<svg width="34" height="34" viewBox="0 0 34 34" fill="none" xmlns="http://www.w3.org/2000/svg">
<circle cx="17" cy="17" r="16.5" stroke="#EE7F49"/>
<path d="M17.4241 14.1538C15.614 14.1538 14.1531 15.6147 14.1531 17.4248C14.1531 19.2349 15.614 20.6958 17.4241 20.6958C19.2342 20.6958 20.695 19.2349 20.695 17.4248C20.695 15.6147 19.2342 14.1538 17.4241 14.1538ZM17.4241 19.5507C16.2535 19.5507 15.2982 18.5954 15.2982 17.4248C15.2982 16.2542 16.2535 15.2989 17.4241 15.2989C18.5946 15.2989 19.5499 16.2542 19.5499 17.4248C19.5499 18.5954 18.5946 19.5507 17.4241 19.5507ZM20.829 13.2575C20.4063 13.2575 20.0651 13.5988 20.0651 14.0214C20.0651 14.4441 20.4063 14.7854 20.829 14.7854C21.2516 14.7854 21.5929 14.4457 21.5929 14.0214C21.593 13.9211 21.5733 13.8217 21.535 13.729C21.4966 13.6362 21.4404 13.5519 21.3694 13.481C21.2984 13.41 21.2142 13.3538 21.1214 13.3154C21.0287 13.2771 20.9293 13.2574 20.829 13.2575V13.2575ZM23.8001 17.4248C23.8001 16.5445 23.808 15.6721 23.7586 14.7933C23.7092 13.7726 23.4763 12.8668 22.73 12.1204C21.982 11.3724 21.0777 11.1412 20.0571 11.0917C19.1768 11.0423 18.3044 11.0503 17.4257 11.0503C16.5453 11.0503 15.673 11.0423 14.7942 11.0917C13.7736 11.1412 12.8677 11.374 12.1214 12.1204C11.3734 12.8684 11.1422 13.7726 11.0927 14.7933C11.0433 15.6737 11.0513 16.5461 11.0513 17.4248C11.0513 18.3036 11.0433 19.1775 11.0927 20.0563C11.1422 21.077 11.375 21.9828 12.1214 22.7292C12.8693 23.4772 13.7736 23.7084 14.7942 23.7579C15.6746 23.8073 16.5469 23.7993 17.4257 23.7993C18.306 23.7993 19.1783 23.8073 20.0571 23.7579C21.0777 23.7084 21.9836 23.4756 22.73 22.7292C23.4779 21.9812 23.7092 21.077 23.7586 20.0563C23.8096 19.1775 23.8001 18.3051 23.8001 17.4248V17.4248ZM22.3966 21.1854C22.2802 21.4757 22.1399 21.6926 21.915 21.9158C21.6902 22.1407 21.4749 22.2811 21.1846 22.3975C20.3457 22.7308 18.3538 22.6558 17.4241 22.6558C16.4943 22.6558 14.5008 22.7308 13.6619 22.3991C13.3717 22.2826 13.1548 22.1423 12.9315 21.9174C12.7067 21.6926 12.5663 21.4773 12.4499 21.187C12.1182 20.3465 12.1931 18.3546 12.1931 17.4248C12.1931 16.495 12.1182 14.5015 12.4499 13.6626C12.5663 13.3723 12.7067 13.1555 12.9315 12.9322C13.1564 12.7089 13.3717 12.567 13.6619 12.4505C14.5008 12.1188 16.4943 12.1938 17.4241 12.1938C18.3538 12.1938 20.3473 12.1188 21.1862 12.4505C21.4765 12.567 21.6933 12.7073 21.9166 12.9322C22.1415 13.157 22.2818 13.3723 22.3982 13.6626C22.73 14.5015 22.655 16.495 22.655 17.4248C22.655 18.3546 22.73 20.3465 22.3966 21.1854Z" fill="#EE7F49"/>
<circle cx="17.5" cy="17.5" r="2.5" fill="#EE7F49"/>
</svg>
