<svg width="34" height="34" viewBox="0 0 34 34" fill="none" xmlns="http://www.w3.org/2000/svg">
<circle cx="17" cy="17" r="16.5" stroke="#EE7F49"/>
<path d="M11.2094 13.0692C12.2365 13.0692 13.0692 12.2365 13.0692 11.2094C13.0692 10.1823 12.2365 9.34961 11.2094 9.34961C10.1823 9.34961 9.34961 10.1823 9.34961 11.2094C9.34961 12.2365 10.1823 13.0692 11.2094 13.0692Z" fill="#EE7F49"/>
<path d="M14.8262 14.4777V24.7958H18.0298V19.6933C18.0298 18.3469 18.2831 17.043 19.9525 17.043C21.599 17.043 21.6194 18.5823 21.6194 19.7783V24.7967H24.8247V19.1382C24.8247 16.3587 24.2263 14.2227 20.9776 14.2227C19.4179 14.2227 18.3724 15.0786 17.9448 15.8887H17.9015V14.4777H14.8262V14.4777ZM9.60547 14.4777H12.8142V24.7958H9.60547V14.4777Z" fill="#EE7F49"/>
</svg>
