<svg width="34" height="34" viewBox="0 0 34 34" fill="none" xmlns="http://www.w3.org/2000/svg">
<circle cx="17" cy="17" r="16.5" stroke="#EE7F49"/>
<g clip-path="url(#clip0_66_850)">
<path d="M24.0102 10.6374C23.9321 10.9925 23.8503 11.3469 23.7765 11.703C23.185 14.5571 22.5949 17.4115 22.0046 20.2658C21.8637 20.9473 21.722 21.6285 21.5833 22.3104C21.4767 22.8347 21.2342 22.9357 20.7971 22.6348C18.9079 21.334 17.0184 20.0334 15.1291 18.7326C15.0855 18.7026 15.0429 18.6714 14.9888 18.6329C15.3485 18.3023 15.6992 17.9793 16.0506 17.657C17.523 16.3065 18.9967 14.9576 20.4652 13.6029C20.5565 13.5186 20.636 13.3978 20.669 13.2795C20.7186 13.1018 20.6413 12.9425 20.487 12.8356C20.3277 12.7252 20.1596 12.7284 19.9905 12.8193C19.536 13.0634 19.0812 13.3068 18.6266 13.5506C16.4348 14.726 14.2429 15.901 12.0525 17.0788C11.9627 17.1271 11.888 17.1331 11.7927 17.0978C10.9898 16.8004 10.1849 16.5089 9.38181 16.2123C9.29164 16.179 9.20138 16.1351 9.12497 16.0778C9.0084 15.9904 9.00727 15.8723 9.12489 15.7852C9.20926 15.7227 9.30914 15.6766 9.40813 15.639C13.0048 14.2731 16.6022 12.9091 20.1995 11.5447C21.2911 11.1307 22.3824 10.7159 23.4744 10.3033C23.5603 10.2709 23.6505 10.2473 23.7406 10.2291C23.854 10.2061 23.9512 10.2345 24.0102 10.345C24.0102 10.4424 24.0102 10.5399 24.0102 10.6374Z" fill="#EE7F49"/>
<path d="M12.5449 17.8439C14.0785 17.0215 15.5956 16.208 17.1126 15.3945C17.1195 15.4021 17.1265 15.4098 17.1334 15.4174C17.1043 15.4479 17.0768 15.4801 17.0459 15.5086C16.0407 16.431 15.0369 17.355 14.0278 18.2732C13.8719 18.4152 13.7974 18.5707 13.7994 18.7833C13.8046 19.3387 13.7949 19.8943 13.7907 20.4498C13.7903 20.5021 13.7862 20.5544 13.7554 20.6132C13.3535 19.6938 12.9516 18.7743 12.5449 17.8439Z" fill="#EE7F49"/>
<path d="M14.7051 19.5459C15.1996 19.8862 15.6625 20.2047 16.1433 20.5355C15.6689 20.9799 15.2037 21.4156 14.7385 21.8513C14.7274 21.8441 14.7162 21.8369 14.7051 21.8297C14.7051 21.0806 14.7051 20.3316 14.7051 19.5459Z" fill="#EE7F49"/>
</g>
<defs>
<clipPath id="clip0_66_850">
<rect width="15.0097" height="15" fill="white" transform="translate(9 9)"/>
</clipPath>
</defs>
</svg>
