<svg width="34" height="34" viewBox="0 0 34 34" fill="none" xmlns="http://www.w3.org/2000/svg">
<circle cx="17" cy="17" r="16.5" stroke="#EE7F49"/>
<path d="M14.5912 20.1642C13.2983 20.1342 12.2114 19.2164 11.8339 17.9503C12.014 17.9777 12.193 17.9976 12.3821 17.9976L12.3821 17.9976C12.6459 17.9968 12.9086 17.9599 13.1639 17.8879L13.1635 17.8727C11.8111 17.5756 10.7957 16.2833 10.7957 14.7231V14.6973C11.2042 14.9424 11.6599 15.0806 12.1265 15.1005L12.1524 15.1016L12.1314 15.0864C11.3364 14.5089 10.8148 13.5267 10.8148 12.4126L10.8148 12.4126C10.8131 11.8473 10.9499 11.2919 11.211 10.8032C12.6692 12.7514 14.8596 14.0237 17.3152 14.1631L17.3157 14.1553L17.3161 14.1475L17.3175 14.1229L17.3234 14.1539C17.2783 13.9147 17.2506 13.6663 17.2506 13.4179C17.2506 11.6486 18.5675 10.208 20.2036 10.208L20.2036 10.208C20.608 10.207 21.0084 10.2965 21.3796 10.471C21.7508 10.6454 22.0851 10.901 22.3614 11.2219L22.3551 11.2274L22.369 11.2245C23.0261 11.0865 23.6565 10.8271 24.2328 10.4578C24.01 11.1908 23.5508 11.8118 22.9397 12.2061L22.9448 12.2204C23.5324 12.1516 24.1029 11.9765 24.6283 11.7331C24.2282 12.3607 23.7286 12.9198 23.1596 13.3722L23.156 13.3676L23.1567 13.3788C23.1653 13.518 23.1653 13.6574 23.1653 13.797C23.1653 18.0474 20.1874 22.9424 14.7473 22.9424C13.0825 22.9424 11.5358 22.4218 10.2297 21.519C10.4568 21.5461 10.6771 21.5548 10.9147 21.5548C12.3007 21.5548 13.5771 21.0448 14.5961 20.1779L14.6117 20.1646L14.5912 20.1642Z" fill="#EE7F49" stroke="#A6C7C9" stroke-width="0.015625"/>
</svg>
