<svg width="34" height="34" viewBox="0 0 34 34" fill="none" xmlns="http://www.w3.org/2000/svg">
<circle cx="17" cy="17" r="16.5" stroke="#EE7F49"/>
<path d="M17.1743 9.50384C19.1519 9.50384 21.1298 9.52018 23.1072 9.49927C25.0622 9.47861 26.3851 10.7803 26.7608 12.1171C26.8627 12.4795 26.9247 12.8655 26.9273 13.2413C26.9428 15.3935 26.9395 17.546 26.9336 19.6983C26.9277 21.823 25.3144 23.438 23.1887 23.4407C19.1777 23.4461 15.1669 23.4458 11.156 23.4409C9.01848 23.4383 7.407 21.8204 7.40325 19.6819C7.3995 17.5374 7.39931 15.393 7.40344 13.2486C7.40706 11.3703 8.65759 9.88005 10.5061 9.55571C10.7699 9.50944 11.0436 9.50638 11.3128 9.50588C13.2666 9.502 15.2204 9.50384 17.1743 9.50384ZM14.6136 19.4828C16.3286 18.478 18.0147 17.4903 19.733 16.4836C18.0013 15.47 16.319 14.4853 14.6136 13.4872C14.6136 15.5076 14.6136 17.4721 14.6136 19.4828Z" fill="#EE7F49"/>
</svg>
