<svg width="189" height="37" viewBox="0 0 189 37" fill="none" xmlns="http://www.w3.org/2000/svg">
<path fill-rule="evenodd" clip-rule="evenodd" d="M18.2026 27.3079L12.0058 30.5656C11.4944 30.8358 10.8739 30.7917 10.4058 30.452C9.93769 30.1122 9.70344 29.536 9.80174 28.966L10.9886 22.0664L5.97768 17.1776C5.56417 16.7744 5.41538 16.1715 5.59385 15.6222C5.77232 15.073 6.2471 14.6726 6.81862 14.5895L13.7462 13.5833L16.8463 7.3076C17.1015 6.78924 17.6291 6.46094 18.2069 6.46094C18.7847 6.46094 19.3123 6.78924 19.5675 7.3076L22.6659 13.585L29.5935 14.5912C30.165 14.6743 30.6398 15.0747 30.8182 15.6239C30.9967 16.1732 30.8479 16.7761 30.4344 17.1793L25.4218 22.0656L26.6086 28.9651C26.7069 29.5351 26.4727 30.1114 26.0046 30.4511C25.5365 30.7909 24.916 30.8349 24.4046 30.5648L18.2026 27.3079Z" fill="#EE7F49"/>
<path fill-rule="evenodd" clip-rule="evenodd" d="M56.3511 27.3079L50.1543 30.5656C49.6428 30.8358 49.0223 30.7917 48.5542 30.452C48.0861 30.1122 47.8519 29.536 47.9502 28.966L49.137 22.0664L44.1261 17.1776C43.7126 16.7744 43.5638 16.1715 43.7423 15.6222C43.9208 15.073 44.3955 14.6726 44.9671 14.5895L51.8946 13.5833L54.9947 7.3076C55.25 6.78924 55.7775 6.46094 56.3553 6.46094C56.9331 6.46094 57.4607 6.78924 57.7159 7.3076L60.8143 13.585L67.7419 14.5912C68.3134 14.6743 68.7882 15.0747 68.9667 15.6239C69.1451 16.1732 68.9963 16.7761 68.5828 17.1793L63.5703 22.0656L64.7571 28.9651C64.8554 29.5351 64.6211 30.1114 64.153 30.4511C63.6849 30.7909 63.0644 30.8349 62.553 30.5648L56.3511 27.3079Z" fill="#EE7F49"/>
<path fill-rule="evenodd" clip-rule="evenodd" d="M94.4976 27.3079L88.3007 30.5656C87.7893 30.8358 87.1688 30.7917 86.7007 30.452C86.2326 30.1122 85.9984 29.536 86.0967 28.966L87.2835 22.0664L82.2726 17.1776C81.8591 16.7744 81.7103 16.1715 81.8888 15.6222C82.0672 15.073 82.542 14.6726 83.1135 14.5895L90.0411 13.5833L93.1412 7.3076C93.3964 6.78924 93.924 6.46094 94.5018 6.46094C95.0796 6.46094 95.6072 6.78924 95.8624 7.3076L98.9608 13.585L105.888 14.5912C106.46 14.6743 106.935 15.0747 107.113 15.6239C107.292 16.1732 107.143 16.7761 106.729 17.1793L101.717 22.0656L102.904 28.9651C103.002 29.5351 102.768 30.1114 102.3 30.4511C101.831 30.7909 101.211 30.8349 100.699 30.5648L94.4976 27.3079Z" fill="#EE7F49"/>
<path fill-rule="evenodd" clip-rule="evenodd" d="M132.646 27.3079L126.449 30.5656C125.938 30.8358 125.317 30.7917 124.849 30.452C124.381 30.1122 124.147 29.536 124.245 28.966L125.432 22.0664L120.421 17.1776C120.008 16.7744 119.859 16.1715 120.037 15.6222C120.216 15.073 120.69 14.6726 121.262 14.5895L128.19 13.5833L131.29 7.3076C131.545 6.78924 132.072 6.46094 132.65 6.46094C133.228 6.46094 133.756 6.78924 134.011 7.3076L137.109 13.585L144.037 14.5912C144.608 14.6743 145.083 15.0747 145.262 15.6239C145.44 16.1732 145.291 16.7761 144.878 17.1793L139.865 22.0656L141.052 28.9651C141.15 29.5351 140.916 30.1114 140.448 30.4511C139.98 30.7909 139.359 30.8349 138.848 30.5648L132.646 27.3079Z" fill="#EE7F49"/>
<path fill-rule="evenodd" clip-rule="evenodd" d="M170.792 27.3079L164.596 30.5656C164.084 30.8358 163.464 30.7917 162.996 30.452C162.528 30.1122 162.293 29.536 162.392 28.966L163.578 22.0664L158.568 17.1776C158.154 16.7744 158.005 16.1715 158.184 15.6222C158.362 15.073 158.837 14.6726 159.408 14.5895L166.336 13.5833L169.436 7.3076C169.691 6.78924 170.219 6.46094 170.797 6.46094C171.375 6.46094 171.902 6.78924 172.157 7.3076L175.256 13.585L182.183 14.5912C182.755 14.6743 183.23 15.0747 183.408 15.6239C183.587 16.1732 183.438 16.7761 183.024 17.1793L178.012 22.0656L179.198 28.9651C179.297 29.5351 179.063 30.1114 178.594 30.4511C178.126 30.7909 177.506 30.8349 176.994 30.5648L170.792 27.3079Z" fill="#EE7F49"/>
</svg>
