<svg width="250" height="250" viewBox="0 0 250 250" fill="none" xmlns="http://www.w3.org/2000/svg">
<g opacity="0.05">
<path d="M121.354 24.4792L66.2501 79.5834C64.1667 81.6667 64.1667 84.8959 66.2501 86.9792L79.6875 100.417C81.7708 102.5 85.0001 102.5 87.0834 100.417L121.354 66.1459C123.438 64.0626 126.667 64.0626 128.75 66.1459L163.021 100.417C165.104 102.5 168.333 102.5 170.417 100.417L183.854 86.9792C185.938 84.8959 185.938 81.6667 183.854 79.5834L128.75 24.4792C126.667 22.5001 123.333 22.5001 121.354 24.4792Z" fill="#9900FF"/>
<path d="M121.354 225.521L66.2501 170.417C64.1667 168.333 64.1667 165.104 66.2501 163.021L79.6875 149.583C81.7708 147.5 85.0001 147.5 87.0834 149.583L121.354 183.854C123.438 185.937 126.667 185.937 128.75 183.854L163.021 149.583C165.104 147.5 168.333 147.5 170.417 149.583L183.854 163.021C185.938 165.104 185.938 168.333 183.854 170.417L128.75 225.521C126.667 227.5 123.333 227.5 121.354 225.521Z" fill="#9900FF"/>
<path d="M209.375 105.208L225.417 121.25C227.5 123.333 227.5 126.562 225.417 128.646L209.375 144.687C207.292 146.771 204.063 146.771 201.979 144.687L185.938 128.646C183.854 126.562 183.854 123.333 185.938 121.25L201.979 105.208C204.063 103.229 207.396 103.229 209.375 105.208Z" fill="#9900FF"/>
<path d="M47.9168 105.208L63.9584 121.25C66.0417 123.333 66.0417 126.562 63.9584 128.646L47.9168 144.687C45.8335 146.771 42.6042 146.771 40.5209 144.687L24.4793 128.646C22.396 126.562 22.396 123.333 24.4793 121.25L40.5209 105.208C42.6042 103.229 45.9376 103.229 47.9168 105.208Z" fill="#9900FF"/>
<path d="M128.646 102.917L147.083 121.354C149.167 123.438 149.167 126.667 147.083 128.75L128.646 147.188C126.563 149.271 123.333 149.271 121.25 147.188L102.813 128.75C100.729 126.667 100.729 123.438 102.813 121.354L121.25 102.917C123.333 100.833 126.667 100.833 128.646 102.917Z" fill="#9900FF"/>
</g>
</svg>
