<svg width="150" height="150" viewBox="0 0 150 150" fill="none" xmlns="http://www.w3.org/2000/svg">
<g opacity="0.35">
<path d="M107.187 62.5C110.639 62.5 113.437 59.7018 113.437 56.25C113.437 52.7982 110.639 50 107.187 50C103.736 50 100.937 52.7982 100.937 56.25C100.937 59.7018 103.736 62.5 107.187 62.5Z" fill="#5D77E5"/>
<path d="M107.187 100C110.639 100 113.437 97.2018 113.437 93.75C113.437 90.2982 110.639 87.5 107.187 87.5C103.736 87.5 100.937 90.2982 100.937 93.75C100.937 97.2018 103.736 100 107.187 100Z" fill="#5D77E5"/>
<path d="M123.438 81.25C126.889 81.25 129.688 78.4518 129.688 75C129.688 71.5482 126.889 68.75 123.438 68.75C119.986 68.75 117.188 71.5482 117.188 75C117.188 78.4518 119.986 81.25 123.438 81.25Z" fill="#5D77E5"/>
<path d="M42.4999 62.5C45.9517 62.5 48.7499 59.7018 48.7499 56.25C48.7499 52.7982 45.9517 50 42.4999 50C39.0481 50 36.2499 52.7982 36.2499 56.25C36.2499 59.7018 39.0481 62.5 42.4999 62.5Z" fill="#5D77E5"/>
<path d="M42.4999 100C45.9517 100 48.7499 97.2018 48.7499 93.75C48.7499 90.2982 45.9517 87.5 42.4999 87.5C39.0481 87.5 36.2499 90.2982 36.2499 93.75C36.2499 97.2018 39.0481 100 42.4999 100Z" fill="#5D77E5"/>
<path d="M26.2501 81.25C29.7018 81.25 32.5001 78.4518 32.5001 75C32.5001 71.5482 29.7018 68.75 26.2501 68.75C22.7983 68.75 20.0001 71.5482 20.0001 75C20.0001 78.4518 22.7983 81.25 26.2501 81.25Z" fill="#5D77E5"/>
<path d="M99.3749 38.75C102.827 38.75 105.625 35.9518 105.625 32.5C105.625 29.0482 102.827 26.25 99.3749 26.25C95.9232 26.25 93.1249 29.0482 93.1249 32.5C93.1249 35.9518 95.9232 38.75 99.3749 38.75Z" fill="#5D77E5"/>
<path d="M50.625 38.75C54.0768 38.75 56.875 35.9518 56.875 32.5C56.875 29.0482 54.0768 26.25 50.625 26.25C47.1732 26.25 44.375 29.0482 44.375 32.5C44.375 35.9518 47.1732 38.75 50.625 38.75Z" fill="#5D77E5"/>
<path d="M75.3124 43.75C78.7642 43.75 81.5624 40.9518 81.5624 37.5C81.5624 34.0482 78.7642 31.25 75.3124 31.25C71.8606 31.25 69.0624 34.0482 69.0624 37.5C69.0624 40.9518 71.8606 43.75 75.3124 43.75Z" fill="#5D77E5"/>
<path d="M99.3749 125C102.827 125 105.625 122.202 105.625 118.75C105.625 115.298 102.827 112.5 99.3749 112.5C95.9232 112.5 93.1249 115.298 93.1249 118.75C93.1249 122.202 95.9232 125 99.3749 125Z" fill="#5D77E5"/>
<path d="M50.625 125C54.0768 125 56.875 122.202 56.875 118.75C56.875 115.298 54.0768 112.5 50.625 112.5C47.1732 112.5 44.375 115.298 44.375 118.75C44.375 122.202 47.1732 125 50.625 125Z" fill="#5D77E5"/>
<path d="M75.3124 120C78.7642 120 81.5624 117.202 81.5624 113.75C81.5624 110.298 78.7642 107.5 75.3124 107.5C71.8606 107.5 69.0624 110.298 69.0624 113.75C69.0624 117.202 71.8606 120 75.3124 120Z" fill="#5D77E5"/>
<path d="M85.9375 64.0625C90.2522 64.0625 93.75 60.5647 93.75 56.25C93.75 51.9353 90.2522 48.4375 85.9375 48.4375C81.6228 48.4375 78.125 51.9353 78.125 56.25C78.125 60.5647 81.6228 64.0625 85.9375 64.0625Z" fill="#5D77E5"/>
<path d="M64.0625 64.0625C68.3772 64.0625 71.875 60.5647 71.875 56.25C71.875 51.9353 68.3772 48.4375 64.0625 48.4375C59.7478 48.4375 56.25 51.9353 56.25 56.25C56.25 60.5647 59.7478 64.0625 64.0625 64.0625Z" fill="#5D77E5"/>
<path d="M96.875 82.8125C101.19 82.8125 104.688 79.3147 104.688 75C104.688 70.6853 101.19 67.1875 96.875 67.1875C92.5603 67.1875 89.0625 70.6853 89.0625 75C89.0625 79.3147 92.5603 82.8125 96.875 82.8125Z" fill="#5D77E5"/>
<path d="M53.125 82.8125C57.4397 82.8125 60.9375 79.3147 60.9375 75C60.9375 70.6853 57.4397 67.1875 53.125 67.1875C48.8103 67.1875 45.3125 70.6853 45.3125 75C45.3125 79.3147 48.8103 82.8125 53.125 82.8125Z" fill="#5D77E5"/>
<path d="M64.0625 101.562C68.3772 101.562 71.875 98.0647 71.875 93.75C71.875 89.4353 68.3772 85.9375 64.0625 85.9375C59.7478 85.9375 56.25 89.4353 56.25 93.75C56.25 98.0647 59.7478 101.562 64.0625 101.562Z" fill="#5D77E5"/>
<path d="M85.9375 101.562C90.2522 101.562 93.75 98.0647 93.75 93.75C93.75 89.4353 90.2522 85.9375 85.9375 85.9375C81.6228 85.9375 78.125 89.4353 78.125 93.75C78.125 98.0647 81.6228 101.562 85.9375 101.562Z" fill="#5D77E5"/>
<path d="M75 20.8125C71.9375 20.8125 69.5 18.375 69.5 15.3125C69.5 12.25 71.9375 9.8125 75 9.8125C78.0625 9.8125 80.5001 12.25 80.5001 15.3125C80.5001 18.375 78.0625 20.8125 75 20.8125Z" fill="#5D77E5"/>
<path d="M107.812 22.5C105.188 22.5 103.062 20.375 103.062 17.8125C103.062 15.25 105.187 13.125 107.75 13.125C110.312 13.125 112.5 15.25 112.5 17.8125C112.5 20.375 110.438 22.5 107.812 22.5Z" fill="#5D77E5"/>
<path d="M42.1875 22.5C39.625 22.5 37.5 20.375 37.5 17.8125C37.5 15.25 39.5625 13.125 42.1875 13.125H42.2501C44.8126 13.125 46.9376 15.25 46.9376 17.8125C46.9376 20.375 44.8125 22.5 42.1875 22.5Z" fill="#5D77E5"/>
<path d="M75 139.875C71.9375 139.875 69.5 137.437 69.5 134.375C69.5 131.312 71.9375 128.875 75 128.875C78.0625 128.875 80.5001 131.312 80.5001 134.375C80.5001 137.437 78.0625 139.875 75 139.875Z" fill="#5D77E5"/>
<path d="M107.812 136.562C105.188 136.562 103.062 134.438 103.062 131.875C103.062 129.312 105.187 127.188 107.75 127.188C110.312 127.188 112.5 129.312 112.5 131.875C112.5 134.438 110.438 136.562 107.812 136.562Z" fill="#5D77E5"/>
<path d="M42.1875 136.562C39.625 136.562 37.5 134.438 37.5 131.875C37.5 129.312 39.5625 127.188 42.1875 127.188H42.2501C44.8126 127.188 46.9376 129.312 46.9376 131.875C46.9376 134.438 44.8125 136.562 42.1875 136.562Z" fill="#5D77E5"/>
<path d="M9.6874 80.5C6.6874 80.5 4.18756 78.0625 4.18756 75.0625V75C4.18756 72 6.6249 69.5 9.6874 69.5C12.7499 69.5 15.1874 71.9375 15.1874 75C15.1874 78.0625 12.6874 80.5 9.6874 80.5Z" fill="#5D77E5"/>
<path d="M23.4375 110.938C20.875 110.938 18.75 108.875 18.75 106.25V106.187C18.75 103.625 20.875 101.5 23.4375 101.5C26 101.5 28.125 103.625 28.125 106.187C28.125 108.75 26 110.938 23.4375 110.938Z" fill="#5D77E5"/>
<path d="M23.4375 48.5C20.875 48.5 18.75 46.375 18.75 43.8125C18.75 41.25 20.875 39.125 23.4375 39.125C26 39.125 28.125 41.1875 28.125 43.75V43.8125C28.125 46.375 26 48.5 23.4375 48.5Z" fill="#5D77E5"/>
<path d="M140.625 80.5C137.625 80.5 135.125 78.0625 135.125 75.0625V75C135.125 72 137.563 69.5 140.625 69.5C143.688 69.5 146.125 71.9375 146.125 75C146.125 78.0625 143.625 80.5 140.625 80.5Z" fill="#5D77E5"/>
<path d="M126.875 110.938C124.312 110.938 122.187 108.875 122.187 106.25V106.187C122.187 103.625 124.312 101.5 126.875 101.5C129.437 101.5 131.562 103.625 131.562 106.187C131.562 108.75 129.437 110.938 126.875 110.938Z" fill="#5D77E5"/>
<path d="M126.875 48.5C124.312 48.5 122.187 46.375 122.187 43.8125C122.187 41.25 124.312 39.125 126.875 39.125C129.437 39.125 131.562 41.1875 131.562 43.8125V43.875C131.562 46.375 129.437 48.5 126.875 48.5Z" fill="#5D77E5"/>
</g>
</svg>
