<svg width="24" height="24" viewBox="0 0 24 24" fill="none" xmlns="http://www.w3.org/2000/svg">
<path d="M17.2083 11H3.79167C3.35444 11 3 11.4253 3 11.95V12.05C3 12.5747 3.35444 13 3.79167 13H17.2083C17.6456 13 18 12.5747 18 12.05V11.95C18 11.4253 17.6456 11 17.2083 11Z" fill="#0C0F12"/>
<path d="M12.4722 16H3.52778C3.23629 16 3 16.4253 3 16.95V17.05C3 17.5747 3.23629 18 3.52778 18H12.4722C12.7637 18 13 17.5747 13 17.05V16.95C13 16.4253 12.7637 16 12.4722 16Z" fill="#0C0F12"/>
<path d="M20.05 6H3.95C3.42533 6 3 6.42533 3 6.95V7.05C3 7.57467 3.42533 8 3.95 8H20.05C20.5747 8 21 7.57467 21 7.05V6.95C21 6.42533 20.5747 6 20.05 6Z" fill="#0C0F12"/>
</svg>
