<svg width="80" height="81" viewBox="0 0 80 81" fill="none" xmlns="http://www.w3.org/2000/svg">
<g clip-path="url(#clip0_66_400)">
<path d="M39.4398 0.295898C39.6477 0.295898 39.8556 0.295898 40.0635 0.295898C40.0635 9.40193 40.0635 18.508 40.0843 27.614C40.0843 27.6764 40.0635 27.7595 40.0635 27.8219C39.3982 28.4664 38.6914 29.1109 38.0677 29.7762C37.6935 30.1712 37.4648 30.1712 37.0906 29.7762C35.6145 28.2585 34.0968 26.7408 32.5791 25.2647C31.5812 24.2876 30.2091 24.2668 29.2319 25.2231C26.8619 27.5516 24.5126 29.9009 22.1841 32.271C21.207 33.2481 21.207 34.641 22.1841 35.6182C26.7371 40.192 31.3109 44.7658 35.8847 49.3188C36.8411 50.2751 38.1716 50.2543 39.1903 49.3604C39.4814 49.1109 39.7725 48.8406 40.0427 48.5703C40.0427 54.0589 40.0427 59.5267 40.0427 65.0152C39.419 65.036 38.8993 64.7866 38.4211 64.3915C37.5271 63.6223 36.6124 62.8739 35.6976 62.1046C35.4897 61.7304 35.1987 61.9383 34.97 62.0423C33.9097 62.4789 32.8702 62.9362 31.8099 63.352C30.5001 63.8718 29.4398 63.4976 28.6706 62.2918C28.2964 61.7096 27.839 61.1275 27.5895 60.5038C27.049 59.1525 26.155 58.8822 24.8036 59.1109C23.6394 59.298 22.392 59.589 21.207 59.0485C20.5417 58.5703 20.1883 57.9258 20.0219 57.1358C19.814 56.1171 19.5438 55.1192 19.3359 54.1213C19.2527 53.7263 19.0656 53.5184 18.6498 53.4352C17.5479 53.2065 16.4253 52.9362 15.3442 52.666C14.1176 52.3541 13.4315 51.4602 13.4523 50.192C13.4523 49.9425 13.4523 49.6722 13.4523 49.4227C13.5562 48.5288 13.6186 47.614 13.7433 46.72C13.8057 46.2626 13.6394 46.0132 13.2444 45.7845C12.288 45.2439 11.3733 44.6618 10.4377 44.1005C9.23191 43.352 8.87848 42.271 9.41902 40.9404C9.81403 39.9217 10.2298 38.9238 10.6872 37.9258C10.8743 37.51 10.8327 37.219 10.5209 36.8863C9.79324 36.0755 9.08638 35.2439 8.40031 34.3915C7.44396 33.2273 7.46475 32.167 8.4211 31.0236C9.12796 30.192 9.83482 29.3604 10.5625 28.5495C10.8535 28.2377 10.8951 27.9674 10.7288 27.5932C10.2714 26.5745 9.83482 25.535 9.43981 24.5163C8.92006 23.1857 9.27349 22.1254 10.4793 21.377C11.3109 20.8572 12.1425 20.2959 13.0157 19.8593C13.7018 19.5267 13.8473 19.0485 13.7433 18.3624C13.6186 17.4893 13.5562 16.6161 13.4939 15.7221C13.3483 14.0381 13.9928 13.1233 15.6352 12.7283C16.6124 12.4996 17.6103 12.2502 18.5874 12.0423C19.0448 11.9383 19.2943 11.7512 19.3982 11.2522C19.6061 10.192 19.8764 9.13166 20.1467 8.07137C20.5001 6.69923 21.3317 6.07553 22.7454 6.1379C23.7849 6.17948 24.8244 6.24185 25.8431 6.40817C26.4876 6.49133 26.8411 6.32501 27.1529 5.76368C27.6519 4.84891 28.2132 3.97573 28.7745 3.10255C29.523 1.93831 30.5833 1.58488 31.8723 2.10463C32.891 2.49964 33.8889 2.91544 34.8868 3.37282C35.365 3.58072 35.6768 3.49756 36.0718 3.16492C37.1113 2.12542 38.1508 1.04434 39.4398 0.295898Z" fill="#5D77E5"/>
<path d="M40.043 65.0565C40.043 59.568 40.043 54.1002 40.043 48.6116C40.043 48.5701 40.0638 48.5285 40.0638 48.4869C40.1677 48.4037 40.2717 48.3414 40.3756 48.2582C46.6334 42.0004 52.8912 35.7426 59.149 29.4848C60.2925 28.3414 60.2717 27.0108 59.1074 25.8466C57.0908 23.8091 54.991 21.8133 53.0159 19.7135C51.2072 17.8008 49.8559 17.78 48.0055 19.7135C45.4276 22.4162 42.7249 24.9942 40.0638 27.6345C40.0638 18.5285 40.0638 9.42244 40.043 0.316406C40.2509 0.316406 40.4588 0.316406 40.6667 0.316406C41.9764 1.00248 42.9536 2.08356 44.0554 3.01911C44.492 3.39333 44.8247 3.49728 45.3652 3.2478C46.3008 2.81121 47.2571 2.4162 48.2342 2.04198C49.6064 1.50144 50.6459 1.83408 51.4359 3.08148C52.0388 4.01703 52.6209 4.97337 53.1823 5.9505C53.3902 6.32472 53.6396 6.40788 54.0554 6.3663C55.2197 6.24156 56.3839 6.1584 57.5482 6.11682C58.8164 6.05445 59.6688 6.69894 60.0014 7.92556C60.2925 9.00664 60.5419 10.0877 60.7706 11.1688C60.8746 11.647 61.1033 11.9172 61.6022 12.0004C62.6625 12.2083 63.7228 12.4578 64.7831 12.7488C66.1137 13.1023 66.7581 13.9339 66.6958 15.2852C66.6542 16.4079 66.5503 17.5098 66.4255 18.6116C66.3631 19.0898 66.4671 19.3809 66.9037 19.6095C67.8392 20.1293 68.7332 20.6906 69.6272 21.252C70.9369 22.0628 71.2904 23.1646 70.7083 24.5784C70.3132 25.5555 69.9182 26.5534 69.4816 27.5098C69.2945 27.9256 69.3569 28.2166 69.6688 28.5493C70.3548 29.3185 71.0409 30.1085 71.7062 30.8985C72.7457 32.1251 72.7665 33.2062 71.727 34.4536C71.0409 35.2644 70.3548 36.0752 69.648 36.8653C69.3569 37.1771 69.3361 37.4474 69.5024 37.8424C69.939 38.8195 70.334 39.7967 70.729 40.7738C71.3112 42.2291 70.9785 43.2894 69.6688 44.1002C68.754 44.6823 67.8184 45.2436 66.8829 45.805C66.5918 45.9713 66.3631 46.1584 66.4463 46.5326C66.6334 47.4682 66.5087 48.4453 66.7582 49.4016C66.7582 49.5472 66.7374 49.7135 66.7374 49.859C66.7582 51.6054 66.1968 52.333 64.492 52.7696C63.5357 52.9983 62.6001 53.2478 61.6438 53.4349C61.1656 53.5181 60.9369 53.726 60.833 54.1834C60.6251 55.1397 60.3964 56.096 60.1885 57.0316C60.0222 57.8008 59.7103 58.5077 59.0658 58.9859C58.3382 59.3809 57.5898 59.3809 56.7997 59.2977C55.9058 59.1938 54.991 59.1314 54.097 59.0482C53.6812 59.0066 53.4317 59.1314 53.2238 59.5056C52.6833 60.4412 52.1012 61.3767 51.5399 62.2915C50.7498 63.5597 49.6687 63.9131 48.2758 63.3518C47.2779 62.936 46.28 62.4994 45.2613 62.1044C45.0118 62.0004 44.7623 61.7717 44.5128 62.1252C43.6396 62.8736 42.7665 63.622 41.8725 64.3497C41.3112 64.7863 40.7914 65.1813 40.043 65.0565Z" fill="#7690FD"/>
<path d="M35.697 62.1466C33.9922 63.8306 32.3082 65.4938 30.6034 67.1985C26.7157 71.0863 22.8072 74.974 18.9402 78.8825C18.4413 79.3815 17.9215 79.8389 17.2978 80.1507C16.8404 80.1507 16.3623 80.1507 15.9049 80.1507C14.907 79.631 14.4496 78.7162 14.1169 77.6767C13.1814 74.7453 12.1627 71.8555 11.1855 68.9449C11.4142 68.737 11.6637 68.5707 11.8924 68.342C13.6596 66.5956 15.4059 64.8285 17.1731 63.0613C18.5036 61.7308 19.8758 60.4002 21.2063 59.0904C22.3914 59.631 23.6388 59.3399 24.803 59.1528C26.1751 58.9241 27.0691 59.1944 27.5889 60.5457C27.8383 61.1902 28.2957 61.7516 28.6699 62.3337C29.4392 63.5395 30.4787 63.9137 31.8092 63.394C32.8695 62.9782 33.909 62.5208 34.9693 62.0842C35.2188 61.9802 35.4891 61.7723 35.697 62.1466Z" fill="url(#paint0_linear_66_400)"/>
<path d="M62.8276 80.1291C62.0999 79.7549 61.5594 79.1935 60.9773 78.6114C55.655 73.2892 50.3328 67.9669 45.0105 62.6447C44.8234 62.4576 44.6363 62.2912 44.4492 62.1041C44.6987 61.7507 44.9482 62.0002 45.1977 62.0833C46.1956 62.4991 47.1935 62.9357 48.2122 63.3307C49.6051 63.8921 50.6862 63.5594 51.4762 62.2705C52.0584 61.3557 52.6405 60.4201 53.1602 59.4846C53.3681 59.1104 53.6176 58.9856 54.0334 59.0272C54.9274 59.1312 55.8421 59.1727 56.7361 59.2767C57.5261 59.3806 58.2954 59.3599 59.0022 58.9648C59.2309 59.2143 59.418 59.4846 59.6675 59.7133C62.4742 62.5407 65.3016 65.3474 68.1083 68.1748C68.3577 68.4243 68.6904 68.6322 68.732 69.0272C68.6488 69.3183 68.5864 69.6301 68.5033 69.9212C67.6509 72.4992 66.7569 75.0771 65.9461 77.6759C65.6135 78.7569 65.1145 79.5885 64.0542 80.0459C63.6592 80.1291 63.2434 80.1291 62.8276 80.1291Z" fill="#3DC290"/>
<path d="M68.7746 69.0899C68.7331 68.6949 68.4004 68.487 68.1509 68.2375C65.3443 65.4101 62.5169 62.6034 59.7102 59.776C59.4815 59.5473 59.2736 59.277 59.0449 59.0276C59.7102 58.5286 60.0013 57.8425 60.1676 57.0733C60.3755 56.117 60.6042 55.1606 60.8121 54.2251C60.916 53.7677 61.1447 53.5598 61.6229 53.4766C62.5792 53.3103 63.5356 53.0608 64.4711 52.8113C66.1759 52.3748 66.7372 51.6471 66.7164 49.9007C66.7164 49.7552 66.7164 49.5889 66.7372 49.4434C67.8183 50.5037 68.8786 51.5432 69.9597 52.6034C72.8911 55.514 75.8017 58.4454 78.7123 61.356C79.2112 61.855 79.6686 62.3747 79.9805 62.9984C79.9805 63.4142 79.9805 63.83 79.9805 64.2458C79.5855 65.2646 78.7954 65.7843 77.7767 66.117C74.7622 67.0525 71.7684 68.092 68.7746 69.0899Z" fill="url(#paint1_linear_66_400)"/>
<path d="M21.2068 59.0691C19.8554 60.3997 18.5041 61.7095 17.1735 63.04C15.4064 64.7864 13.66 66.5535 11.8928 68.3207C11.6849 68.5286 11.4147 68.7157 11.186 68.9236C8.42091 68.0296 5.65584 67.0941 2.86998 66.2209C1.76811 65.8675 0.749395 65.4517 0.146484 64.3914C0.146484 63.934 0.146484 63.4558 0.146484 62.9985C0.499915 62.2916 1.06125 61.7511 1.60179 61.2105C5.55189 57.2812 9.4812 53.3519 13.4105 49.4434C13.4105 49.6928 13.4105 49.9631 13.4105 50.2126C13.3897 51.4808 14.0758 52.3955 15.3024 52.6866C16.4043 52.9569 17.5061 53.2479 18.608 53.4558C19.0446 53.539 19.2109 53.7469 19.2941 54.1419C19.502 55.1606 19.7723 56.1585 19.9802 57.1565C20.1881 57.9465 20.5623 58.591 21.2068 59.0691Z" fill="#34C18E"/>
<path d="M40.0833 27.6348C42.7444 24.9945 45.4471 22.4165 48.0251 19.7138C49.8754 17.7803 51.2268 17.8011 53.0355 19.7138C55.0105 21.8136 57.1103 23.7886 59.127 25.8469C60.2704 27.0111 60.2912 28.3417 59.1685 29.4851C52.9107 35.7429 46.6529 42.0007 40.3951 48.2585C40.312 48.3417 40.1872 48.4248 40.0833 48.4872C40.0833 41.6057 40.0625 34.7242 40.0625 27.8219C40.0625 27.7595 40.0833 27.6972 40.0833 27.6348Z" fill="url(#paint2_linear_66_400)"/>
<path d="M40.0641 27.8427C40.0641 34.7242 40.0849 41.6057 40.0849 48.508C40.0849 48.5495 40.0641 48.5911 40.0641 48.6327C39.7731 48.903 39.5028 49.1525 39.2118 49.4227C38.193 50.3167 36.8625 50.3167 35.9061 49.3811C31.3323 44.8281 26.7585 40.2543 22.2055 35.6805C21.2284 34.7034 21.2284 33.3105 22.2055 32.3333C24.534 29.9633 26.8833 27.614 29.2533 25.2855C30.2305 24.3292 31.6026 24.35 32.6005 25.3271C34.1182 26.824 35.6359 28.3208 37.112 29.8385C37.4862 30.2335 37.7149 30.2335 38.0891 29.8385C38.692 29.1109 39.3989 28.4872 40.0641 27.8427Z" fill="url(#paint3_linear_66_400)"/>
</g>
<defs>
<linearGradient id="paint0_linear_66_400" x1="24.5934" y1="57.4636" x2="24.5934" y2="73.1763" gradientUnits="userSpaceOnUse">
<stop stop-color="#A0F3D4"/>
<stop offset="1" stop-color="#3DC290" stop-opacity="0.6"/>
</linearGradient>
<linearGradient id="paint1_linear_66_400" x1="70.4967" y1="47.9361" x2="70.4967" y2="62.5869" gradientUnits="userSpaceOnUse">
<stop stop-color="#A0F3D4"/>
<stop offset="1" stop-color="#3DC290" stop-opacity="0.6"/>
</linearGradient>
<linearGradient id="paint2_linear_66_400" x1="50.0314" y1="22.2311" x2="50.0314" y2="45.4436" gradientUnits="userSpaceOnUse">
<stop stop-color="#FFD3D3"/>
<stop offset="1" stop-color="#FF4949" stop-opacity="0.2"/>
</linearGradient>
<linearGradient id="paint3_linear_66_400" x1="30.78" y1="27.9236" x2="30.78" y2="47.5188" gradientUnits="userSpaceOnUse">
<stop stop-color="#FFD3D3"/>
<stop offset="1" stop-color="#FF4949" stop-opacity="0.2"/>
</linearGradient>
<clipPath id="clip0_66_400">
<rect width="80" height="80" fill="white" transform="translate(0 0.150391)"/>
</clipPath>
</defs>
</svg>
