<svg width="80" height="81" viewBox="0 0 80 81" fill="none" xmlns="http://www.w3.org/2000/svg">
<g clip-path="url(#clip0_66_429)">
<path d="M79.9782 17.4474C79.5208 18.6948 78.5853 19.3601 77.3587 19.7551C75.9034 20.2332 74.4897 20.7946 73.0551 21.3351C72.7433 20.8362 72.3483 20.5035 71.7246 20.3996C67.026 19.4848 62.3067 18.5077 57.6082 17.5721C54.0531 16.8653 50.4772 16.1584 46.9221 15.4515C46.7973 14.3081 46.1944 13.4765 45.2797 12.832C43.2007 11.4183 40.8722 11.2104 38.4813 11.5014C37.026 11.6678 35.6539 12.1459 34.4897 13.1023C32.8472 14.4328 32.8057 16.3039 34.3649 17.7177C34.8015 18.1127 35.3005 18.4661 35.8618 18.674C39.3129 20.0253 42.6393 19.9214 45.7786 17.7384C45.945 18.175 46.3815 18.1335 46.6934 18.1958C52.2028 19.3185 57.7121 20.3996 63.2215 21.543C65.1549 21.938 67.13 22.2291 69.0427 22.7696C66.8597 23.6012 64.6768 24.412 62.473 25.2436C62.3275 25.306 62.182 25.3684 62.0364 25.41C60.2693 26.0544 58.4813 26.6989 56.7142 27.3434C51.6622 29.2145 46.6102 31.0856 41.579 32.9567C40.7474 33.2686 39.9158 33.4765 39.0219 33.1438C35.5707 31.8549 32.1404 30.5867 28.6892 29.3185C25.1549 28.0087 21.5998 26.7197 18.0447 25.41C13.4294 23.7052 8.83476 21.9796 4.21938 20.2748C3.74121 20.0877 3.26304 19.9006 2.76407 19.7551C1.51667 19.4016 0.601912 18.7156 0.144531 17.4682C0.144531 17.0524 0.144531 16.6366 0.144531 16.2208C0.539542 15.1813 1.22561 14.4744 2.30669 14.0586C11.7869 10.5867 21.2464 7.07316 30.7267 3.58044C33.6373 2.49936 36.5271 1.39749 39.4377 0.316406C39.8535 0.316406 40.2693 0.316406 40.6851 0.316406C40.7474 0.357986 40.789 0.420356 40.8722 0.441146C53.0551 4.93179 65.2589 9.44322 77.4626 13.9131C78.6477 14.3497 79.5624 14.9942 79.999 16.2C79.9782 16.6158 79.9782 17.0316 79.9782 17.4474Z" fill="#5D77E5"/>
<path d="M78.6069 64.9941C79.2929 64.9941 79.6464 65.4515 79.979 65.9505C79.979 67.3434 79.979 68.7571 79.979 70.1501C79.8127 70.2332 79.8335 70.3995 79.8127 70.5659C79.5008 73.3517 78.8979 76.0544 77.9208 78.674C77.6921 79.2769 77.4218 79.7966 76.8605 80.1293C76.5071 80.1293 76.1328 80.1293 75.7794 80.1293C75.6962 79.963 75.5091 79.9837 75.3636 79.963C71.559 79.2353 67.6921 78.7571 63.8459 78.4037C57.7129 77.8216 51.559 77.5097 45.3844 77.4682C45.031 77.4682 44.6567 77.4058 44.3033 77.385C44.2825 75.306 44.2825 73.227 44.2617 71.1688C44.2617 70.7738 44.4904 70.6282 44.7399 70.4411C46.611 69.0898 47.796 67.3226 48.2118 65.0357C58.3366 65.0149 68.4613 64.9941 78.6069 64.9941Z" fill="url(#paint0_linear_66_429)"/>
<path d="M0.144401 65.9505C0.497832 65.4723 0.851262 64.9942 1.51654 64.9942C1.93234 64.9942 2.34814 64.9942 2.76394 64.9942C12.4729 64.9942 22.2026 64.9942 31.9115 64.9942C32.3066 67.2811 33.5124 69.0482 35.3835 70.3996C35.633 70.5867 35.8617 70.7322 35.8617 71.1272C35.8409 73.2062 35.8409 75.2852 35.8201 77.3434C35.4043 77.3642 34.9885 77.4266 34.5727 77.4266C30.7265 77.4058 26.9012 77.5929 23.0758 77.8216C18.4188 78.0919 13.7827 78.5077 9.16727 79.1938C7.48328 79.4432 5.79929 79.6096 4.15687 80.1085C3.84502 80.1085 3.53317 80.1085 3.22132 80.1085C2.82631 79.8175 2.47288 79.5056 2.28577 79.0066C1.5997 77.1563 1.07995 75.2852 0.664152 73.3518C0.435462 72.2707 0.477042 71.148 0.0820312 70.1085C0.144401 68.7572 0.144401 67.3434 0.144401 65.9505Z" fill="url(#paint1_linear_66_429)"/>
<path d="M35.8398 77.3641C35.8606 75.2851 35.8606 73.2061 35.8814 71.1479C35.8814 70.7528 35.6527 70.6073 35.4032 70.4202C33.5321 69.0689 32.3263 67.3017 31.9313 65.0148C31.765 64.1624 31.765 63.3308 31.8897 62.4784C32.1184 60.8152 32.8876 59.4015 33.8647 58.0709C35.0082 57.0522 36.214 56.0959 37.7317 55.7009C40.7462 54.9108 43.4074 55.5345 45.7359 57.6343C45.9022 57.7799 46.0893 57.9254 46.2764 58.0709C46.4427 58.3412 46.609 58.5907 46.7754 58.8401C48.0851 60.7113 48.6049 62.7487 48.1891 65.0148C47.7733 67.3017 46.5882 69.0896 44.7171 70.4202C44.4677 70.6073 44.239 70.7528 44.239 71.1479C44.2598 73.2269 44.2598 75.2851 44.2806 77.3641C44.2598 77.8422 44.1974 78.3204 44.1974 78.7986C44.2182 79.3807 44.0311 79.8381 43.4905 80.1084C43.2826 80.1084 43.0747 80.1084 42.8668 80.1084C42.2015 79.4639 41.5363 78.8194 40.871 78.1957C40.2681 77.6343 39.8523 77.6343 39.2702 78.1957C38.6049 78.8402 37.9396 79.4639 37.2743 80.1084C37.0664 80.1084 36.8585 80.1084 36.6506 80.1084C36.1101 79.8381 35.923 79.3807 35.9438 78.7986C35.9438 78.3204 35.8814 77.8422 35.8398 77.3641ZM40.0602 60.836C38.6672 60.836 37.3159 62.1873 37.2951 63.5803C37.2743 64.994 38.6465 66.3869 40.081 66.3869C41.5155 66.3869 42.8876 64.9732 42.846 63.5595C42.8045 62.1458 41.4531 60.8152 40.0602 60.836Z" fill="url(#paint2_linear_66_429)"/>
<path d="M18.0657 25.4102C21.6208 26.7199 25.1551 28.0089 28.7102 29.3187C32.1613 30.5869 35.6125 31.8758 39.0428 33.144C39.9368 33.4767 40.7684 33.2688 41.6 32.9569C46.652 31.0858 51.704 29.2147 56.7352 27.3436C58.5023 26.6991 60.2902 26.0546 62.0574 25.4102C62.0574 30.1295 62.0574 34.8696 62.0574 39.5889C62.0574 41.1482 61.4961 41.9798 59.9992 42.5411C53.783 44.8696 47.5668 47.1981 41.3713 49.5474C40.4358 49.9008 39.5834 49.8592 38.6478 49.5058C32.4732 47.1565 26.2778 44.8488 20.0823 42.5411C18.6686 42.0006 18.0449 41.1482 18.0449 39.6721C18.0657 34.932 18.0657 30.1711 18.0657 25.4102Z" fill="#7690FD"/>
<path d="M33.8656 58.0507C32.8885 59.3813 32.1192 60.795 31.8905 62.4582C31.7658 63.3106 31.7658 64.163 31.9321 64.9946C22.2232 64.9946 12.4935 64.9946 2.78451 64.9946C2.36871 64.9946 1.95291 64.9946 1.53711 64.9946C1.64106 62.1255 2.22318 59.3397 3.28347 56.6785C3.76164 55.4727 4.13586 55.244 5.40405 55.4935C11.0589 56.5746 16.7762 57.1775 22.5142 57.5725C26.298 57.8012 30.0818 57.9259 33.8656 58.0507Z" fill="#34C18E"/>
<path d="M48.19 65.015C48.585 62.7489 48.0653 60.7115 46.7763 58.8404C46.5892 58.5909 46.4437 58.3206 46.2773 58.0712C48.0653 58.0088 49.8532 57.9464 51.6412 57.8633C59.4998 57.5514 67.3169 56.9277 75.0507 55.41C75.9031 55.2437 76.4229 55.5556 76.7763 56.4495C77.8574 59.1938 78.4811 62.0421 78.6058 64.9942C68.4603 64.9942 58.3356 65.015 48.19 65.015Z" fill="#34C18E"/>
<path d="M46.922 15.4308C50.477 16.1376 54.0529 16.8445 57.608 17.5513C62.3066 18.4869 67.0051 19.464 71.7244 20.3788C72.3481 20.5035 72.7431 20.8154 73.055 21.3143C73.0758 24.6407 73.0966 27.9671 73.0966 31.2935C73.0966 32.4786 73.0966 33.6844 73.0758 34.8694C72.161 34.6615 71.2255 34.6615 70.3107 34.8694C70.3107 31.252 70.3107 27.6553 70.2899 24.0378C70.2899 22.7904 70.2899 22.7904 69.0217 22.7281C67.109 22.1875 65.1548 21.8965 63.2005 21.5014C57.6912 20.3788 52.1818 19.2769 46.6725 18.1542C46.3398 18.0919 45.924 18.1335 45.7577 17.6969C46.4022 17.0732 46.8596 16.3455 46.922 15.4308Z" fill="#7690FD"/>
<path d="M70.3311 34.8903C71.2458 34.6824 72.1814 34.6824 73.0962 34.8903C75.196 35.8259 75.9652 37.5306 75.882 39.7344C75.8404 41.0857 75.882 42.4371 75.882 43.7884C75.882 45.2645 75.4454 45.7011 73.9901 45.7011C72.3893 45.7011 70.7677 45.7011 69.1669 45.7011C68.1066 45.7011 67.6492 45.2437 67.6284 44.1834C67.6076 42.645 67.6908 41.1065 67.6076 39.5888C67.4829 37.3851 68.3352 35.8051 70.3311 34.8903Z" fill="#34C18E"/>
<path d="M40.0622 60.8359C41.4551 60.8359 42.8065 62.1665 42.848 63.5802C42.8896 64.994 41.5175 66.3869 40.083 66.4077C38.6485 66.4077 37.2763 65.0148 37.2971 63.601C37.3179 62.1873 38.6693 60.8359 40.0622 60.8359Z" fill="#5D77E5"/>
</g>
<defs>
<linearGradient id="paint0_linear_66_429" x1="63.7992" y1="63.833" x2="63.7992" y2="75.1195" gradientUnits="userSpaceOnUse">
<stop stop-color="#A0F3D4"/>
<stop offset="1" stop-color="#3DC290" stop-opacity="0.6"/>
</linearGradient>
<linearGradient id="paint1_linear_66_429" x1="19.6536" y1="63.8346" x2="19.6536" y2="75.1056" gradientUnits="userSpaceOnUse">
<stop stop-color="#A0F3D4"/>
<stop offset="1" stop-color="#3DC290" stop-opacity="0.6"/>
</linearGradient>
<linearGradient id="paint2_linear_66_429" x1="40.0662" y1="58.6128" x2="40.0662" y2="77.6166" gradientUnits="userSpaceOnUse">
<stop stop-color="#FFD3D3"/>
<stop offset="1" stop-color="#FF4949" stop-opacity="0.2"/>
</linearGradient>
<clipPath id="clip0_66_429">
<rect width="80" height="80" fill="white" transform="translate(0 0.150391)"/>
</clipPath>
</defs>
</svg>
