<svg width="80" height="80" viewBox="0 0 80 80" fill="none" xmlns="http://www.w3.org/2000/svg">
<g clip-path="url(#clip0_66_415)">
<path d="M23.3897 0.144531C24.5332 0.497962 25.739 0.581122 26.9033 0.892972C35.1777 3.1175 41.4771 10.5395 42.2879 19.0427C43.3274 30.103 36.1964 39.7703 25.344 41.9949C13.8263 44.3649 2.26707 36.34 0.437545 24.7599C0.375175 24.4065 0.458335 23.9907 0.146484 23.6996C0.146484 22.0988 0.146484 20.4772 0.146484 18.8763C0.458335 18.5853 0.375175 18.1695 0.437545 17.8161C1.72653 9.60399 8.21302 2.66012 16.3419 0.768232C17.2359 0.560332 18.1507 0.539542 19.0238 0.186111C20.4791 0.144531 21.9344 0.144531 23.3897 0.144531ZM19.8762 26.7558C18.9615 26.7766 18.0467 26.7142 17.1527 26.7766C15.9677 26.8597 15.0945 27.8368 15.0737 29.0011C15.0321 30.1653 15.8637 31.184 17.028 31.3504C17.4438 31.4127 17.8596 31.4335 18.2754 31.4127C18.8159 31.3711 18.9823 31.5375 18.9823 32.0988C19.003 33.5541 19.9594 34.5104 21.2899 34.5312C22.6413 34.552 23.5976 33.5749 23.6392 32.078C23.66 31.5998 23.764 31.4127 24.2629 31.3504C26.0093 31.1009 27.3606 29.7287 27.4854 27.9616C27.6101 26.1321 27.6101 24.2817 27.4854 22.4314C27.3606 20.5603 25.8638 19.1258 23.9719 18.9803C23.3482 18.9387 22.7245 18.9803 22.1008 18.9595C21.3523 18.9387 20.3752 19.2714 19.9178 18.8348C19.4188 18.3566 19.8346 17.3587 19.7515 16.5894C19.6683 15.9657 19.9178 15.8202 20.5207 15.8202C22.1839 15.841 23.8471 15.8618 25.5103 15.7786C26.7369 15.7163 27.5893 14.6352 27.5477 13.4294C27.5062 12.2235 26.6122 11.2672 25.3856 11.1632C25.0322 11.1425 24.6579 11.1217 24.3045 11.1632C23.7847 11.2256 23.66 11.0177 23.6392 10.5188C23.6184 9.22977 22.9324 8.3358 21.8513 8.10711C20.3336 7.77447 19.0654 8.81397 18.9823 10.4564C18.9615 10.8098 19.0446 11.1217 18.4833 11.2048C16.3835 11.5375 15.1361 12.972 15.0945 15.0926C15.0529 16.4855 15.0737 17.8992 15.0945 19.2921C15.1153 22.0156 16.6538 23.5749 19.3981 23.5957C20.3752 23.6165 21.3731 23.6165 22.3502 23.5957C22.7452 23.5957 22.9116 23.6996 22.8908 24.1154C22.87 24.7807 22.87 25.4668 22.8908 26.1321C22.9116 26.5687 22.7868 26.735 22.3294 26.7142C21.4771 26.7142 20.6662 26.7558 19.8762 26.7558Z" fill="#5D77E5"/>
<path d="M56.4459 79.978C55.6559 79.583 54.7619 79.583 53.9303 79.3959C45.4272 77.4416 38.6912 69.8117 37.8804 61.1423C36.9033 50.5393 43.2235 41.2878 53.4314 38.4603C65.2609 35.1547 77.8389 43.242 79.71 55.3626C79.7723 55.82 79.6892 56.3398 80.001 56.7556C80.001 58.2109 80.001 59.6662 80.001 61.1215C79.7723 61.2046 79.8555 61.4333 79.8347 61.5789C78.2754 70.6641 73.0779 76.5892 64.263 79.2712C63.2027 79.6038 62.08 79.7493 60.9781 79.978C59.4605 79.978 57.9428 79.978 56.4459 79.978ZM56.8409 67.4416C57.8181 65.5082 58.5249 63.5955 58.7952 61.5373C58.8368 61.2046 59.0447 61.2046 59.2942 61.2046C59.9179 61.2046 60.5416 61.2254 61.1653 61.1838C62.4958 61.0799 63.3898 60.082 63.369 58.8138C63.3482 57.5248 62.3503 56.5685 60.9989 56.5269C60.2713 56.5061 59.5436 56.5061 58.816 56.5269C58.421 56.5477 58.2131 56.4437 58.0675 56.0487C57.5894 54.7597 57.0488 53.4915 56.5499 52.2233C56.1133 51.1007 56.6538 50.3107 57.8804 50.2899C59.0239 50.2691 60.1673 50.2899 61.3108 50.2899C62.6206 50.2899 62.9116 50.5393 63.0987 51.8075C63.3066 53.1173 64.3669 54.0113 65.5727 53.9073C66.9033 53.7826 67.7973 52.7223 67.7349 51.3294C67.5894 48.1901 65.2193 45.7576 62.0592 45.6121C60.6039 45.5497 59.1486 45.5497 57.6933 45.5913C53.3066 45.7161 50.6247 49.7493 52.184 53.845C52.4542 54.5726 52.7245 55.3003 53.0364 56.0071C53.2027 56.4021 53.1195 56.5269 52.7037 56.4853C52.5582 56.4645 52.3919 56.4853 52.2463 56.4853C50.9781 56.5685 50.0426 57.504 49.9802 58.7306C49.9386 59.9572 50.8118 60.9759 52.0592 61.1215C52.4958 61.163 52.9532 61.1838 53.3898 61.1631C53.9511 61.1215 54.159 61.2046 53.9927 61.8699C53.4314 64.2192 52.2255 66.215 50.6663 68.0445C49.9802 68.8346 49.7515 69.7285 50.1881 70.7057C50.6247 71.7036 51.4771 72.0778 52.5166 72.0778C56.7578 72.0778 60.9782 72.0986 65.2193 72.0778C66.737 72.0778 67.7557 71.0383 67.7141 69.6662C67.6725 68.3148 66.6538 67.4001 65.1569 67.4001C63.3482 67.4001 61.5187 67.4001 59.71 67.4001C58.7952 67.4416 57.8804 67.4416 56.8409 67.4416Z" fill="#7690FD"/>
<path d="M0.146484 47.5455C1.06125 45.8408 2.66208 44.7597 3.90948 43.3668C4.42923 42.7846 4.99056 42.2441 5.55189 41.7036C6.5706 40.7264 7.88037 40.7264 8.89908 41.7036C10.4583 43.2212 11.9968 44.7805 13.5353 46.3397C14.4708 47.3169 14.4708 48.7098 13.5976 49.6245C12.6829 50.5809 11.2899 50.5809 10.2504 49.6453C10.0633 49.479 9.93859 49.2295 9.66831 49.1672C9.52278 49.4166 9.58515 49.6869 9.58515 49.9364C9.58515 56.5268 9.58515 63.1381 9.56436 69.7285C9.56436 70.4354 9.75147 70.5809 10.4375 70.5809C19.0446 70.5601 27.6309 70.5601 36.238 70.5601C36.5706 70.5601 36.924 70.5601 37.2567 70.6225C38.3378 70.8096 39.1278 71.7867 39.1486 72.8886C39.1486 73.9489 38.4001 74.9468 37.3814 75.1547C37.0072 75.2379 36.6122 75.2379 36.2172 75.2379C26.7785 75.2379 17.3606 75.2379 7.92195 75.2379C5.739 75.2379 4.92819 74.427 4.92819 72.2233C4.92819 64.8221 4.92819 57.4208 4.92819 49.9988C4.92819 49.7285 5.01135 49.4374 4.72029 48.9593C4.57476 49.2087 4.51239 49.4166 4.36686 49.5414C2.97393 50.8927 1.1652 50.5393 0.375175 48.7722C0.333595 48.6682 0.333595 48.5019 0.167274 48.4811C0.146484 48.1692 0.146484 47.8574 0.146484 47.5455Z" fill="#3DC290"/>
<path d="M79.9805 32.5765C78.9618 34.406 77.257 35.5911 75.8849 37.088C75.4691 37.5453 75.0117 37.9819 74.5543 38.4185C73.5148 39.3749 72.2258 39.3956 71.2071 38.4185C69.6271 36.8801 68.0678 35.3208 66.5294 33.7408C65.6354 32.826 65.6562 31.3915 66.5294 30.4975C67.4233 29.562 68.8371 29.5412 69.8142 30.4351C70.0221 30.6223 70.1884 30.8509 70.3755 31.0796C70.6042 30.7262 70.5211 30.4559 70.5211 30.2065C70.5211 23.6368 70.5003 17.0672 70.5418 10.4975C70.5418 9.70749 70.3132 9.58275 69.5855 9.58275C61.02 9.60354 52.4337 9.60354 43.8683 9.60354C42.3506 9.60354 41.519 9.12537 41.124 8.02349C40.6458 6.67214 41.4982 5.19605 42.9119 4.96736C43.1822 4.92578 43.4732 4.92578 43.7643 4.92578C53.3069 4.92578 62.8288 4.92578 72.3714 4.92578C74.3672 4.92578 75.1988 5.75738 75.1988 7.77401C75.1988 15.2376 75.1988 22.6805 75.1988 30.1441C75.1988 30.4144 75.1157 30.7054 75.3859 31.1836C75.5522 30.9341 75.6562 30.7054 75.8017 30.5599C77.2155 29.2085 79.1905 29.7075 79.7726 31.5994C79.7934 31.7033 79.7934 31.8073 79.9389 31.8281C79.9805 32.0568 79.9805 32.327 79.9805 32.5765Z" fill="url(#paint0_linear_66_415)"/>
<path d="M19.8768 26.7559C20.6876 26.7559 21.4984 26.7351 22.2885 26.7559C22.7458 26.7767 22.8706 26.6104 22.8498 26.1738C22.829 25.5085 22.829 24.8224 22.8498 24.1572C22.8706 23.7414 22.7043 23.6166 22.3092 23.6374C21.3321 23.6582 20.3342 23.6582 19.3571 23.6374C16.6128 23.6166 15.0743 22.0574 15.0535 19.3339C15.0535 17.9409 15.0327 16.5272 15.0535 15.1343C15.0951 13.0137 16.3425 11.5792 18.4423 11.2466C19.0036 11.1634 18.9205 10.8515 18.9413 10.4981C19.0244 8.8557 20.2926 7.8162 21.8103 8.14884C22.8914 8.39832 23.5774 9.2715 23.5982 10.5605C23.5982 11.0802 23.7438 11.2673 24.2635 11.205C24.6169 11.1634 24.9912 11.1842 25.3446 11.205C26.5712 11.3089 27.4652 12.2653 27.5067 13.4711C27.5483 14.6769 26.6959 15.7372 25.4693 15.8204C23.8061 15.9243 22.1429 15.9035 20.4797 15.8619C19.8768 15.8619 19.6273 16.0075 19.7105 16.6312C19.7937 17.4004 19.3986 18.3983 19.8768 18.8765C20.3342 19.3131 21.3113 18.9804 22.0598 19.0012C22.6835 19.022 23.3072 18.9804 23.9309 19.022C25.8228 19.1675 27.3196 20.5813 27.4444 22.4732C27.5691 24.3027 27.5691 26.153 27.4444 28.0033C27.3196 29.7705 25.9683 31.1426 24.2219 31.3921C23.723 31.4545 23.5982 31.6416 23.5982 32.1197C23.5566 33.6166 22.6003 34.5937 21.249 34.573C19.9392 34.5522 18.9828 33.5958 18.9413 32.1405C18.9205 31.5792 18.7542 31.4129 18.2344 31.4545C17.8186 31.496 17.4028 31.4545 16.987 31.3921C15.8228 31.205 14.9912 30.207 15.0327 29.0428C15.0743 27.8786 15.9267 26.9014 17.1117 26.8183C18.0473 26.7143 18.9621 26.7559 19.8768 26.7559Z" fill="url(#paint1_linear_66_415)"/>
<circle cx="59" cy="59.1504" r="21" fill="#7690FD"/>
<path d="M55.77 61.5804L57.38 62.3004C58.41 62.7604 59.59 62.7604 60.63 62.3004L62.24 61.5804C63.68 60.9404 65.01 62.6804 64.01 63.9004L60.55 68.1304C59.7 69.1704 58.31 69.1704 57.45 68.1304L54 63.9004C52.99 62.6804 54.32 60.9404 55.77 61.5804Z" fill="url(#paint2_linear_66_415)"/>
<path d="M55.57 58.8204C55.27 59.0404 55.31 59.5004 55.65 59.6704L58 60.8404C58.55 61.1204 59.44 61.1204 59.98 60.8404L62.33 59.6704C62.66 59.5004 62.7 59.0504 62.41 58.8204L59.3 56.4804C59.12 56.3504 58.88 56.3504 58.7 56.4804L55.57 58.8204Z" fill="url(#paint3_linear_66_415)"/>
<path d="M64.88 55.3904L60.71 50.1904C60.63 50.0904 60.54 50.0004 60.45 49.9104C60.19 49.6604 59.82 49.8904 59.82 50.2504V54.5504C59.82 54.7104 59.89 54.8604 60.02 54.9504L64.17 58.0704L64.35 58.2004C64.53 58.3304 64.78 58.3304 64.93 58.1704C65.63 57.4104 65.62 56.3104 64.88 55.3904Z" fill="url(#paint4_linear_66_415)"/>
<path d="M53.11 55.4804L57.26 50.2004C57.34 50.1004 57.42 50.0104 57.51 49.9204C57.77 49.6704 58.14 49.8904 58.14 50.2604V54.6304C58.14 54.7904 58.07 54.9304 57.94 55.0304L53.81 58.2004L53.64 58.3304C53.46 58.4604 53.21 58.4604 53.05 58.2904C52.37 57.5204 52.38 56.4204 53.11 55.4804Z" fill="url(#paint5_linear_66_415)"/>
</g>
<defs>
<linearGradient id="paint0_linear_66_415" x1="62.3181" y1="2.30071" x2="62.3181" y2="27.8174" gradientUnits="userSpaceOnUse">
<stop stop-color="#A0F3D4"/>
<stop offset="1" stop-color="#3DC290" stop-opacity="0.6"/>
</linearGradient>
<linearGradient id="paint1_linear_66_415" x1="21.2854" y1="11.5578" x2="31.515" y2="54.5493" gradientUnits="userSpaceOnUse">
<stop stop-color="#FFD3D3"/>
<stop offset="1" stop-color="#FF4949" stop-opacity="0.2"/>
</linearGradient>
<linearGradient id="paint2_linear_66_415" x1="59.003" y1="62.4217" x2="59.9999" y2="75.1503" gradientUnits="userSpaceOnUse">
<stop stop-color="#FFD3D3"/>
<stop offset="1" stop-color="#FF4949" stop-opacity="0.2"/>
</linearGradient>
<linearGradient id="paint3_linear_66_415" x1="58.9868" y1="56.9945" x2="59.5638" y2="64.9577" gradientUnits="userSpaceOnUse">
<stop stop-color="#FFD3D3"/>
<stop offset="1" stop-color="#FF4949" stop-opacity="0.2"/>
</linearGradient>
<linearGradient id="paint4_linear_66_415" x1="62.633" y1="50.9179" x2="65.0326" y2="65.0701" gradientUnits="userSpaceOnUse">
<stop stop-color="#FFD3D3"/>
<stop offset="1" stop-color="#FF4949" stop-opacity="0.2"/>
</linearGradient>
<linearGradient id="paint5_linear_66_415" x1="55.3458" y1="50.9419" x2="57.8272" y2="65.2786" gradientUnits="userSpaceOnUse">
<stop stop-color="#FFD3D3"/>
<stop offset="1" stop-color="#FF4949" stop-opacity="0.2"/>
</linearGradient>
<clipPath id="clip0_66_415">
<rect width="80" height="80" fill="white" transform="translate(0 -0.000976562)"/>
</clipPath>
</defs>
</svg>
