<svg width="191" height="57" viewBox="0 0 191 57" fill="none" xmlns="http://www.w3.org/2000/svg">
<path d="M1 55.5124C2.88252 53.6953 6.47642 49.8881 7.95962 47.2057C11.0401 41.7544 14.3488 36.3031 17.144 33.2746L17.9997 32.3227C21.9359 27.9963 27.4123 29.4673 30.1505 35.5243L34.2579 44.6963C37.4524 51.8782 44.298 52.3974 47.9489 45.7347L50.8582 40.4564C53.8817 34.9186 59.3011 34.2264 62.952 38.8124C67.4587 44.5233 74.3042 41.8409 76.4149 33.6207L82.6899 9.39265C85.0288 0.393678 92.7871 -1.76953 97.0656 5.41235L101.8 13.373C102.713 14.9305 103.911 16.1419 105.223 16.9207L116.29 23.0642C118.001 24.016 119.428 25.7466 120.454 27.9963L126.558 41.6678C130.152 49.715 138.025 49.1958 141.162 40.716L148.863 19.8626C149.662 17.7859 150.803 16.0554 152.172 14.844L156.793 10.9502C161.356 7.05638 167.175 10.3445 169.001 17.7859L178.356 46.2538C180.638 53.2627 186.799 55.5124 190.621 56.1181L1 55.5124Z" fill="url(#paint0_linear_66_613)"/>
<path d="M1 55.5124C2.88252 53.6953 6.47642 49.8881 7.95962 47.2057C11.0401 41.7544 14.3488 36.3031 17.144 33.2746L17.9997 32.3227C21.9359 27.9963 27.4123 29.4673 30.1505 35.5243L34.2579 44.6963C37.4524 51.8782 44.298 52.3974 47.9489 45.7347L50.8583 40.4564C53.8817 34.9186 59.3011 34.2264 62.952 38.8124C67.4587 44.5233 74.3042 41.8409 76.4149 33.6207L82.69 9.39265C85.0288 0.393678 92.7871 -1.76953 97.0656 5.41235L101.8 13.373C102.713 14.9305 103.911 16.1419 105.223 16.9207L116.29 23.0642C118.001 24.016 119.428 25.7466 120.454 27.9963L126.558 41.6678C130.152 49.715 138.025 49.1958 141.162 40.716L148.863 19.8626C149.662 17.7859 150.803 16.0554 152.172 14.844L156.793 10.9502C161.356 7.05638 167.175 10.3445 169.001 17.7859L178.356 46.2538C180.11 49.7086 184.872 56.5181 189.882 56.1181" stroke="#FF4949"/>
<defs>
<linearGradient id="paint0_linear_66_613" x1="95.8232" y1="8.3255" x2="95.8232" y2="50.578" gradientUnits="userSpaceOnUse">
<stop stop-color="#FFD3D3"/>
<stop offset="1" stop-color="#FF4949" stop-opacity="0.2"/>
</linearGradient>
</defs>
</svg>
