<svg width="191" height="57" viewBox="0 0 191 57" fill="none" xmlns="http://www.w3.org/2000/svg">
<path d="M1 55.3943C2.88252 53.5772 6.47642 49.77 7.95962 47.0876C11.0401 41.6363 14.3488 36.185 17.144 33.1565L17.9997 32.2046C21.9359 27.8782 27.4123 29.3492 30.1505 35.4062L34.2579 44.5782C37.4524 51.7601 44.298 52.2793 47.9489 45.6166L50.8582 40.3383C53.8817 34.8005 59.3011 34.1083 62.952 38.6943C67.4587 44.4052 74.3042 41.7228 76.4149 33.5026L82.6899 9.27455C85.0288 0.275575 92.7871 -1.88763 97.0656 5.29424L101.8 13.2549C102.713 14.8124 103.911 16.0238 105.223 16.8026L116.29 22.9461C118.001 23.8979 119.428 25.6285 120.454 27.8782L126.558 41.5497C130.152 49.5969 138.025 49.0777 141.162 40.5979L148.863 19.7445C149.662 17.6678 150.803 15.9373 152.172 14.7259L156.793 10.8321C161.356 6.93828 167.175 10.2264 169.001 17.6678L178.356 46.1357C180.638 53.1446 186.799 55.3943 190.621 56L1 55.3943Z" fill="url(#paint0_linear_66_495)"/>
<path d="M1 55.3943C2.88252 53.5772 6.47642 49.77 7.95962 47.0876C11.0401 41.6363 14.3488 36.185 17.144 33.1565L17.9997 32.2046C21.9359 27.8782 27.4123 29.3492 30.1505 35.4062L34.2579 44.5782C37.4524 51.7601 44.298 52.2793 47.9489 45.6166L50.8583 40.3383C53.8817 34.8005 59.3011 34.1083 62.952 38.6943C67.4587 44.4052 74.3042 41.7228 76.4149 33.5026L82.69 9.27455C85.0288 0.275575 92.7871 -1.88763 97.0656 5.29424L101.8 13.2549C102.713 14.8124 103.911 16.0238 105.223 16.8026L116.29 22.9461C118.001 23.8979 119.428 25.6285 120.454 27.8782L126.558 41.5497C130.152 49.5969 138.025 49.0777 141.162 40.5979L148.863 19.7445C149.662 17.6678 150.803 15.9373 152.172 14.7259L156.793 10.8321C161.356 6.93828 167.175 10.2264 169.001 17.6678L178.356 46.1357C180.11 49.5905 184.872 56.4 189.882 56" stroke="#FF4949"/>
<defs>
<linearGradient id="paint0_linear_66_495" x1="95.8232" y1="8.2074" x2="95.8232" y2="50.4599" gradientUnits="userSpaceOnUse">
<stop stop-color="#FFD3D3"/>
<stop offset="1" stop-color="#FF4949" stop-opacity="0.2"/>
</linearGradient>
</defs>
</svg>
