<svg width="191" height="57" viewBox="0 0 191 57" fill="none" xmlns="http://www.w3.org/2000/svg">
<path d="M0.998047 55.4121C2.88056 53.6482 6.47444 49.9525 7.95762 47.3488C11.0381 42.0572 14.3467 36.7657 17.142 33.8259L17.9977 32.902C21.9338 28.7024 27.4102 30.1302 30.1484 36.0097L34.2557 44.913C36.0192 58.2188 44.2958 52.3883 47.9467 45.9209L50.856 40.7973C53.8794 35.4218 59.2988 34.7498 62.9497 39.2015C67.4563 44.745 64.6974 64.5283 76.4125 34.1619L82.6875 10.6439C84.4755 -2.9349 92.7846 -0.191145 97.063 6.78025L101.798 14.5076C102.711 16.0195 103.909 17.1954 105.221 17.9513L116.287 23.9148C117.999 24.8387 119.746 25.9085 120.452 28.7024L126.556 41.9732C130.624 63.0721 138.022 49.2806 141.159 41.0493L148.861 20.807C149.659 18.7912 150.8 17.1114 152.169 15.9355L156.79 12.1558C161.354 8.37611 167.172 11.5678 168.998 18.7912L178.353 46.4248C180.635 53.2282 186.796 55.4121 190.618 56L0.998047 55.4121Z" fill="url(#paint0_linear_66_579)"/>
<path d="M190.618 56C186.796 55.4121 180.635 53.2282 178.353 46.4248L168.998 18.7912C167.173 11.5678 161.354 8.37611 156.79 12.1558L152.169 15.9355C150.8 17.1114 149.659 18.7912 148.861 20.807L141.16 41.0493C138.022 49.2806 130.625 63.0721 126.556 41.9732L120.452 28.7024C119.747 25.9085 117.999 24.8387 116.288 23.9148L105.221 17.9513C103.909 17.1954 102.711 16.0195 101.798 14.5076L97.0633 6.78025C92.7849 -0.191145 84.4758 -2.9349 82.6878 10.6439L76.4128 34.1619C64.6977 64.5283 67.4566 44.745 62.95 39.2015C59.299 34.7498 53.8797 35.4218 50.8563 40.7973L47.9469 45.9209C44.296 52.3883 36.0195 58.2188 34.256 44.913L30.1487 36.0097C27.4105 30.1302 21.9341 28.7024 17.9979 32.902L17.1423 33.8259C14.347 36.7657 11.0384 42.0572 7.95789 47.3488C6.10415 49.8396 2.13296 54.9184 1.07812 55.3067" stroke="#34C18E"/>
<defs>
<linearGradient id="paint0_linear_66_579" x1="104.721" y1="-3.21941" x2="104.721" y2="37.7948" gradientUnits="userSpaceOnUse">
<stop stop-color="#A0F3D4"/>
<stop offset="1" stop-color="#3DC290" stop-opacity="0.1"/>
</linearGradient>
</defs>
</svg>
