<svg width="191" height="57" viewBox="0 0 191 57" fill="none" xmlns="http://www.w3.org/2000/svg">
<path d="M1 55.4109C2.88252 53.5938 6.47642 49.7866 7.95962 47.1042C11.0401 41.6529 14.3488 36.2016 17.144 33.1731L17.9997 32.2212C21.9359 27.8948 27.4123 29.3658 30.1505 35.4228L34.2579 44.5948C37.4524 51.7767 44.298 52.2959 47.9489 45.6332L50.8582 40.3549C53.8817 34.8171 59.3011 34.1249 62.952 38.7109C67.4587 44.4218 74.3042 41.7394 76.4149 33.5192L82.6899 9.29115C85.0288 0.292176 92.7871 -1.87103 97.0656 5.31084L101.8 13.2715C102.713 14.829 103.911 16.0404 105.223 16.8192L116.29 22.9627C118.001 23.9145 119.428 25.6451 120.454 27.8948L126.558 41.5663C130.152 49.6135 138.025 49.0943 141.162 40.6145L148.863 19.7611C149.662 17.6844 150.803 15.9539 152.172 14.7425L156.793 10.8487C161.356 6.95488 167.175 10.243 169.001 17.6844L178.356 46.1523C180.638 53.1612 186.799 55.4109 190.621 56.0166L1 55.4109Z" fill="url(#paint0_linear_66_511)"/>
<path d="M1 55.4109C2.88252 53.5938 6.47642 49.7866 7.95962 47.1042C11.0401 41.6529 14.3488 36.2016 17.144 33.1731L17.9997 32.2212C21.9359 27.8948 27.4123 29.3658 30.1505 35.4228L34.2579 44.5948C37.4524 51.7767 44.298 52.2959 47.9489 45.6332L50.8583 40.3549C53.8817 34.8171 59.3011 34.1249 62.952 38.7109C67.4587 44.4218 74.3042 41.7394 76.4149 33.5192L82.69 9.29115C85.0288 0.292176 92.7871 -1.87103 97.0656 5.31084L101.8 13.2715C102.713 14.829 103.911 16.0404 105.223 16.8192L116.29 22.9627C118.001 23.9145 119.428 25.6451 120.454 27.8948L126.558 41.5663C130.152 49.6135 138.025 49.0943 141.162 40.6145L148.863 19.7611C149.662 17.6844 150.803 15.9539 152.172 14.7425L156.793 10.8487C161.356 6.95488 167.175 10.243 169.001 17.6844L178.356 46.1523C180.11 49.6071 184.872 56.4166 189.882 56.0166" stroke="#3DC290"/>
<defs>
<linearGradient id="paint0_linear_66_511" x1="104.723" y1="-3.20281" x2="104.723" y2="37.8114" gradientUnits="userSpaceOnUse">
<stop stop-color="#A0F3D4"/>
<stop offset="1" stop-color="#3DC290" stop-opacity="0.1"/>
</linearGradient>
</defs>
</svg>
