<svg width="191" height="57" viewBox="0 0 191 57" fill="none" xmlns="http://www.w3.org/2000/svg">
<path d="M1 55.4617C2.88252 53.6446 6.47642 49.8373 7.95962 47.1549C11.0401 41.7036 14.3488 36.2523 17.144 33.2238L17.9997 32.272C21.9359 27.9456 27.4123 29.4166 30.1505 35.4736L34.2579 44.6456C37.4524 51.8275 44.298 52.3467 47.9489 45.6839L50.8582 40.4057C53.8817 34.8679 59.3011 34.1756 62.952 38.7617C67.4587 44.4725 74.3042 41.7902 76.4149 33.5699L82.6899 9.34193C85.0288 0.342958 92.7871 -1.82025 97.0656 5.36163L101.8 13.3223C102.713 14.8798 103.911 16.0912 105.223 16.8699L116.29 23.0135C118.001 23.9653 119.428 25.6958 120.454 27.9456L126.558 41.6171C130.152 49.6643 138.025 49.1451 141.162 40.6653L148.863 19.8119C149.662 17.7352 150.803 16.0046 152.172 14.7932L156.793 10.8995C161.356 7.00566 167.175 10.2938 169.001 17.7352L178.356 46.2031C180.638 53.2119 186.799 55.4617 190.621 56.0674L1 55.4617Z" fill="url(#paint0_linear_66_563)"/>
<path d="M1 55.4617C2.88252 53.6446 6.47642 49.8373 7.95962 47.1549C11.0401 41.7036 14.3488 36.2523 17.144 33.2238L17.9997 32.272C21.9359 27.9456 27.4123 29.4166 30.1505 35.4736L34.2579 44.6456C37.4524 51.8275 44.298 52.3467 47.9489 45.684L50.8583 40.4057C53.8817 34.8679 59.3011 34.1756 62.952 38.7617C67.4587 44.4726 74.3042 41.7902 76.4149 33.5699L82.69 9.34193C85.0288 0.342957 92.7871 -1.82025 97.0656 5.36163L101.8 13.3223C102.713 14.8798 103.911 16.0912 105.223 16.8699L116.29 23.0135C118.001 23.9653 119.428 25.6958 120.454 27.9456L126.558 41.6171C130.152 49.6643 138.025 49.1451 141.162 40.6653L148.863 19.8119C149.662 17.7352 150.803 16.0046 152.172 14.7932L156.793 10.8995C161.356 7.00566 167.175 10.2938 169.001 17.7352L178.356 46.2031C180.11 49.6579 184.872 56.4674 189.882 56.0674" stroke="#FF4949"/>
<defs>
<linearGradient id="paint0_linear_66_563" x1="95.8232" y1="8.27478" x2="95.8232" y2="50.5273" gradientUnits="userSpaceOnUse">
<stop stop-color="#FFD3D3"/>
<stop offset="1" stop-color="#FF4949" stop-opacity="0.2"/>
</linearGradient>
</defs>
</svg>
