<svg width="191" height="57" viewBox="0 0 191 57" fill="none" xmlns="http://www.w3.org/2000/svg">
<path d="M1 55.4958C2.88252 53.6787 6.47642 49.8715 7.95962 47.1891C11.0401 41.7378 14.3488 36.2865 17.144 33.258L17.9997 32.3061C21.9359 27.9797 27.4123 29.4507 30.1505 35.5077L34.2579 44.6797C37.4524 51.8616 44.298 52.3808 47.9489 45.7181L50.8582 40.4398C53.8817 34.902 59.3011 34.2098 62.952 38.7958C67.4587 44.5067 74.3042 41.8243 76.4149 33.6041L82.6899 9.37605C85.0288 0.377076 92.7871 -1.78613 97.0656 5.39574L101.8 13.3564C102.713 14.9139 103.911 16.1253 105.223 16.9041L116.29 23.0476C118.001 23.9994 119.428 25.73 120.454 27.9797L126.558 41.6512C130.152 49.6984 138.025 49.1792 141.162 40.6994L148.863 19.846C149.662 17.7693 150.803 16.0388 152.172 14.8274L156.793 10.9336C161.356 7.03978 167.175 10.3279 169.001 17.7693L178.356 46.2372C180.638 53.2461 186.799 55.4958 190.621 56.1015L1 55.4958Z" fill="url(#paint0_linear_66_597)"/>
<path d="M1 55.4958C2.88252 53.6787 6.47642 49.8715 7.95962 47.1891C11.0401 41.7378 14.3488 36.2865 17.144 33.258L17.9997 32.3061C21.9359 27.9797 27.4123 29.4507 30.1505 35.5077L34.2579 44.6797C37.4524 51.8616 44.298 52.3808 47.9489 45.7181L50.8583 40.4398C53.8817 34.902 59.3011 34.2098 62.952 38.7958C67.4587 44.5067 74.3042 41.8243 76.4149 33.6041L82.69 9.37605C85.0288 0.377076 92.7871 -1.78613 97.0656 5.39574L101.8 13.3564C102.713 14.9139 103.911 16.1253 105.223 16.9041L116.29 23.0476C118.001 23.9994 119.428 25.73 120.454 27.9797L126.558 41.6512C130.152 49.6984 138.025 49.1792 141.162 40.6994L148.863 19.846C149.662 17.7693 150.803 16.0388 152.172 14.8274L156.793 10.9336C161.356 7.03978 167.175 10.3279 169.001 17.7693L178.356 46.2372C180.11 49.692 184.872 56.5015 189.882 56.1015" stroke="#FF4949"/>
<defs>
<linearGradient id="paint0_linear_66_597" x1="95.8232" y1="8.3089" x2="95.8232" y2="50.5614" gradientUnits="userSpaceOnUse">
<stop stop-color="#FFD3D3"/>
<stop offset="1" stop-color="#FF4949" stop-opacity="0.2"/>
</linearGradient>
</defs>
</svg>
