<svg width="191" height="57" viewBox="0 0 191 57" fill="none" xmlns="http://www.w3.org/2000/svg">
<path d="M190.621 55.4121C188.739 53.6482 185.145 49.9525 183.662 47.3488C180.581 42.0572 177.272 36.7657 174.477 33.8259L173.621 32.902C169.685 28.7024 164.209 30.1302 161.471 36.0097L157.363 44.913C155.6 58.2188 147.323 52.3883 143.672 45.9209L140.763 40.7973C137.74 35.4218 132.32 34.7498 128.669 39.2015C124.163 44.745 126.922 64.5283 115.207 34.1619L108.932 10.6439C107.144 -2.9349 98.8345 -0.191145 94.5561 6.78025L89.8213 14.5076C88.9086 16.0195 87.7106 17.1954 86.3986 17.9513L75.3317 23.9148C73.6203 24.8387 71.8727 25.9085 71.1674 28.7024L65.0635 41.9732C60.9947 63.0721 53.5973 49.2806 50.4597 41.0493L42.7586 20.807C41.9599 18.7912 40.819 17.1114 39.4499 15.9355L34.8292 12.1558C30.2656 8.37611 24.4469 11.5678 22.6214 18.7912L13.2659 46.4248C10.9841 53.2282 4.82318 55.4121 1.00111 56L190.621 55.4121Z" fill="url(#paint0_linear_66_545)"/>
<path d="M1.00086 56C4.82292 55.4121 10.9838 53.2282 13.2657 46.4248L22.6212 18.7912C24.4466 11.5678 30.2653 8.37611 34.829 12.1558L39.4497 15.9355C40.8188 17.1114 41.9597 18.7912 42.7583 20.807L50.4595 41.0493C53.597 49.2806 60.9944 63.0721 65.0632 41.9732L71.1671 28.7024C71.8724 25.9085 73.6201 24.8387 75.3314 23.9148L86.3983 17.9513C87.7103 17.1954 88.9083 16.0195 89.821 14.5076L94.5558 6.78025C98.8343 -0.191145 107.143 -2.9349 108.931 10.6439L115.206 34.1619C126.921 64.5283 124.163 44.745 128.669 39.2015C132.32 34.7498 137.739 35.4218 140.763 40.7973L143.672 45.9209C147.323 52.3883 155.6 58.2188 157.363 44.913L161.47 36.0097C164.209 30.1302 169.685 28.7024 173.621 32.902L174.477 33.8259C177.272 36.7657 180.581 42.0572 183.661 47.3488C185.515 49.8396 189.486 54.9184 190.541 55.3067" stroke="#34C18E"/>
<defs>
<linearGradient id="paint0_linear_66_545" x1="86.8983" y1="-3.21941" x2="86.8983" y2="37.7948" gradientUnits="userSpaceOnUse">
<stop stop-color="#A0F3D4"/>
<stop offset="1" stop-color="#3DC290" stop-opacity="0.1"/>
</linearGradient>
</defs>
</svg>
