<svg width="404" height="379" viewBox="0 0 404 379" fill="none" xmlns="http://www.w3.org/2000/svg">
<g filter="url(#filter0_d_66_713)">
<path d="M49.778 332.177C47.1463 332.177 44.5147 331.938 41.883 332.257C36.9387 332.895 33.4298 330.901 30.6387 327.073C30.6387 243.498 30.6387 159.923 30.6387 76.3483C33.5096 71.0052 38.2944 70.128 43.7172 70.6065C45.0729 70.766 46.4286 70.6065 47.7843 70.6065C47.7843 71.2445 47.8641 71.9622 47.3058 72.3609C44.1957 74.3546 43.9564 77.385 43.9564 80.7344C44.0362 161.279 44.0362 241.824 43.8767 322.368C43.9564 327.153 45.7109 330.183 49.778 332.177Z" fill="#E6EAFA"/>
<path d="M49.8215 332.177C45.7544 330.104 44 327.153 44 322.368C44.1595 241.824 44.0797 161.279 44.0797 80.7343C44.0797 77.385 44.319 74.4343 47.4291 72.3609C48.0671 71.9621 47.9076 71.2444 47.9076 70.6064C67.7646 70.6064 87.5419 70.6064 107.399 70.6064C111.785 71.0052 116.251 71.0052 120.637 70.6862C136.347 70.7659 152.057 70.7659 167.768 70.8457C167.847 74.833 167.927 78.8204 168.007 82.8078C166.173 82.8078 164.418 82.8078 162.584 82.8875C159.713 83.047 157.64 85.1204 157.64 87.6723C157.64 90.3837 159.873 92.4572 162.823 92.4572C183.637 92.4572 204.371 92.4572 225.186 92.4572C228.136 92.4572 230.369 90.304 230.289 87.6723C230.289 85.0407 228.216 83.1267 225.265 82.9673C223.431 82.8875 221.677 82.8875 219.842 82.8875C219.922 78.9002 220.002 74.9925 220.002 71.0052C222.155 71.0052 224.229 71.0052 226.382 71.0052C244.325 71.0052 262.268 70.9254 280.211 70.9254C302.54 70.9254 324.869 70.9254 347.199 70.9254C353.578 70.9254 357.247 74.5938 357.247 80.9736C357.247 161.757 357.247 242.541 357.247 323.405C357.247 329.067 353.897 332.576 348.554 332.576C249.03 332.177 149.426 332.177 49.8215 332.177ZM143.445 270.931C145.04 268.379 146.714 265.827 148.309 263.276C149.346 263.515 150.223 264.073 151.1 264.711C154.53 267.343 155.726 267.103 157.64 263.276C161.308 255.939 164.897 248.682 168.565 241.345C177.736 244.854 187.066 248.283 196.158 252.031C199.666 253.467 202.537 256.098 205.089 259.049C207.88 262.398 209.396 266.306 211.07 271.25C211.15 270.054 211.23 269.815 211.23 269.576C211.23 221.249 211.23 172.842 211.23 124.516C211.23 117.976 207.242 114.069 200.623 114.069C189.698 114.069 178.693 114.069 167.768 114.069C138.899 114.069 109.951 114.148 81.0824 114.148C78.8495 114.148 76.6166 113.989 74.3837 114.069C66.0102 114.308 63.1393 119.412 63.3786 125.472C63.3786 126.509 63.3786 127.626 63.3786 128.662C63.3786 176.511 63.3786 224.359 63.3786 272.207C63.3786 279.065 63.3786 285.844 63.2988 292.702C64.3355 296.849 66.3292 300.039 70.795 301.315C73.4267 302.033 74.2242 301.395 74.2242 298.763C74.1444 288.874 74.1444 278.986 74.2242 269.177C74.2242 265.508 75.2609 262.159 77.0153 258.889C78.8495 255.381 81.9596 252.908 84.4318 249.958C91.609 247.167 98.866 244.375 106.043 241.664C107.08 242.382 107.319 243.578 107.877 244.615C111.227 251.234 114.496 257.853 117.846 264.472C119.202 267.103 120.478 267.422 122.79 265.668C123.907 264.791 125.023 264.073 126.538 264.153C128.133 266.465 129.728 268.778 131.403 271.171C130.207 280.581 129.09 290.071 127.734 299.401C127.416 301.714 128.053 301.873 129.888 301.793C132.838 301.714 135.789 301.714 138.74 301.634C140.733 301.634 142.807 301.554 144.8 301.793C147.273 302.033 147.831 301.315 147.432 298.763C145.757 289.353 144.641 280.182 143.445 270.931ZM244.484 129.938C243.607 132.171 243.687 134.564 244.006 136.876C244.644 141.342 247.196 143.974 251.183 143.974C272.874 144.054 294.486 143.974 316.177 143.974C319.128 143.974 321.44 142.459 322.477 139.827C323.833 136.398 324.311 132.65 322.318 129.141C320.962 125.791 318.171 124.835 314.901 124.835C294.087 124.835 273.273 124.835 252.459 124.835C248.711 124.835 245.92 126.35 244.484 129.938ZM283.959 218.617C271.12 218.617 258.281 218.617 245.441 218.617C241.613 218.617 239.38 220.611 239.38 223.641C239.38 226.592 241.215 228.745 244.724 228.745C270.721 228.825 296.719 228.825 322.796 228.745C326.385 228.745 328.538 226.113 328.139 223.003C327.82 220.292 325.428 218.617 321.68 218.617C309 218.617 296.479 218.617 283.959 218.617ZM283.72 270.931C270.641 270.931 257.563 270.931 244.484 270.931C241.055 270.931 239.062 273.084 239.301 276.274C239.54 278.986 241.693 280.501 245.362 280.501C270.96 280.501 296.559 280.501 322.238 280.501C325.986 280.501 327.98 278.826 327.98 275.716C327.98 272.606 325.986 270.931 322.238 270.931C309.478 270.931 296.559 270.931 283.72 270.931ZM283.72 176.511C296.559 176.511 309.398 176.511 322.318 176.511C326.066 176.511 328.059 174.836 328.059 171.726C328.059 168.695 325.986 166.941 322.238 166.941C296.559 166.941 270.801 166.941 245.122 166.941C241.454 166.941 239.301 168.775 239.38 171.806C239.38 174.836 241.454 176.511 245.202 176.511C257.962 176.511 270.801 176.511 283.72 176.511ZM283.64 193.098C270.801 193.098 257.962 193.098 245.043 193.098C241.294 193.098 239.301 194.773 239.301 197.803C239.301 200.834 241.374 202.588 245.122 202.588C270.801 202.588 296.559 202.588 322.238 202.588C325.906 202.588 328.059 200.754 327.98 197.723C327.98 194.693 325.906 193.018 322.158 193.018C309.398 193.098 296.479 193.098 283.64 193.098ZM283.321 254.344C296.32 254.344 309.239 254.344 322.238 254.344C325.986 254.344 327.98 252.669 327.98 249.639C327.98 246.608 325.906 244.854 322.158 244.854C296.479 244.854 270.721 244.854 245.043 244.854C241.374 244.854 239.221 246.688 239.301 249.719C239.301 252.749 241.374 254.424 245.122 254.424C257.882 254.344 270.641 254.344 283.321 254.344ZM95.1179 290.948C95.1179 288.476 95.1179 286.083 95.1179 283.611C95.1179 279.703 93.6027 277.55 90.7318 277.391C87.2229 277.152 85.0698 279.145 84.9103 283.372C84.671 288.795 84.9103 294.217 84.8305 299.64C84.8305 301.474 85.8672 301.953 87.2229 301.634C89.7749 300.996 92.9647 303.388 94.9584 300.198C95.2774 299.72 95.0382 298.923 95.0382 298.285C95.1179 295.812 95.1179 293.34 95.1179 290.948ZM189.539 290.868C189.539 287.917 189.618 284.887 189.459 281.936C189.299 279.225 187.226 277.311 184.833 277.311C181.963 277.231 180.447 278.587 179.889 281.538C178.773 287.519 179.57 293.579 179.331 299.64C179.251 302.112 181.165 301.873 182.361 301.554C184.754 300.916 187.944 303.707 189.459 299.8C189.618 299.321 189.459 298.763 189.459 298.205C189.539 295.733 189.539 293.34 189.539 290.868Z" fill="#F0F2FC"/>
<path d="M220.118 70.7664C220.038 74.7538 219.958 78.6614 219.958 82.6487C207.039 82.6487 194.12 82.569 181.201 82.569C181.201 63.4297 181.281 44.3701 181.201 25.2308C181.201 20.6852 182.796 17.4953 186.943 15.7409C194.918 15.7409 202.892 15.6611 210.787 15.6611C217.008 15.6611 219.879 18.4523 219.958 24.7523C220.038 33.684 220.038 42.5359 220.118 51.4676C220.118 58.0069 220.118 64.3866 220.118 70.7664Z" fill="#F16100"/>
<path d="M220.117 70.7659C220.117 64.3862 220.117 57.9266 220.117 51.5469C236.864 51.5469 253.611 51.5469 270.358 51.5469C277.136 51.5469 280.247 54.7368 280.326 61.3558C280.326 64.4659 280.326 67.4963 280.326 70.6064C262.383 70.6064 244.44 70.6862 226.497 70.6862C224.344 70.7659 222.27 70.7659 220.117 70.7659Z" fill="#403F3F"/>
<path opacity="0.8" d="M186.944 15.8206C182.717 17.5751 181.122 20.7649 181.202 25.3105C181.361 44.3701 181.202 63.5094 181.202 82.6487C176.816 82.6487 172.35 82.7285 167.964 82.7285C167.884 78.7411 167.804 74.7538 167.725 70.7664C167.725 64.3866 167.725 58.0069 167.725 51.6271C167.725 42.9347 167.804 34.1625 167.804 25.47C167.804 18.3725 170.516 15.6611 177.613 15.6611C180.803 15.6611 183.834 15.7409 186.944 15.8206Z" fill="#FF4949"/>
<path d="M167.803 51.5475C167.803 57.9273 167.803 64.3071 167.803 70.6868C152.093 70.6071 136.383 70.6071 120.673 70.5273C120.752 63.7488 119.237 56.5716 125.776 51.4678C139.732 51.5475 153.768 51.5475 167.803 51.5475Z" fill="#403F3F"/>
<path d="M125.698 51.5475C119.158 56.5716 120.753 63.8286 120.594 70.6071C116.208 70.9261 111.742 71.0058 107.356 70.5273C107.356 67.178 107.276 63.7488 107.436 60.3995C107.675 54.8172 111.263 51.5475 116.846 51.4678C119.796 51.4678 122.747 51.5475 125.698 51.5475Z" fill="#6E6F6F"/>
<path d="M80.9588 114.149C109.827 114.149 138.776 114.069 167.644 114.069C178.569 114.069 189.574 114.069 200.5 114.069C207.119 114.069 211.106 117.977 211.106 124.516C211.106 172.843 211.106 221.249 211.106 269.576C211.106 269.815 211.106 269.975 210.947 271.251C209.352 266.386 207.837 262.399 204.966 259.05C202.414 256.099 199.543 253.467 196.034 252.032C186.943 248.284 177.612 244.934 168.441 241.346C163.577 238.714 158.234 237.358 153.21 235.125C153.13 230.899 153.13 226.672 153.05 222.446C153.608 221.808 154.087 221.09 154.805 220.612C161.583 215.109 165.012 208.011 165.331 199.319C168.521 199 171.871 199 174.263 196.289C179.128 191.982 179.447 186.559 175.22 180.499C175.539 173.082 175.858 165.586 174.183 158.329C170.196 140.625 155.044 129.54 139.094 128.743C120.354 127.866 104.165 139.668 99.7792 157.691C97.945 165.267 98.3437 173.082 98.6627 180.818C97.1475 182.891 95.7918 184.965 95.712 187.676C95.4728 194.534 100.178 198.841 108.472 199.319C108.711 209.287 113.256 216.784 121.231 222.446C121.231 226.672 121.231 230.899 121.151 235.205C116.127 237.518 110.705 238.874 105.76 241.505C98.5829 244.296 91.326 247.088 84.1487 249.799C80.4006 250.517 77.2107 252.431 74.0208 254.424C74.0208 211.919 74.1006 169.334 73.8613 126.829C73.9411 120.928 75.7753 116.781 80.9588 114.149Z" fill="#5D77E5"/>
<path d="M80.9597 114.149C75.7762 116.86 73.8622 121.007 73.942 126.829C74.1015 169.334 74.0217 211.919 74.1015 254.424C73.3837 255.142 72.5863 255.859 71.8685 256.577C67.4027 260.884 64.5318 265.908 63.8141 272.128C63.6546 272.208 63.4154 272.208 63.2559 272.128C63.2559 224.28 63.2559 176.431 63.2559 128.583C63.2559 127.546 63.2559 126.43 63.2559 125.393C63.0166 119.332 65.8875 114.228 74.261 113.989C76.4939 113.989 78.7268 114.069 80.9597 114.149Z" fill="#718AF2"/>
<path d="M153.289 235.125C158.313 237.358 163.656 238.793 168.521 241.345C164.852 248.682 161.264 255.939 157.595 263.276C155.681 267.104 154.565 267.343 151.056 264.711C150.179 264.073 149.302 263.515 148.265 263.276C146.909 261.521 144.995 260.405 143.081 259.368C137.978 254.344 137.978 254.344 132.316 258.411C130.88 259.448 129.365 260.405 127.929 261.521C127.132 262.159 126.016 262.558 126.255 263.914C124.74 263.834 123.703 264.552 122.507 265.429C120.194 267.183 118.838 266.864 117.562 264.233C114.213 257.614 110.943 250.995 107.594 244.376C107.115 243.339 106.796 242.143 105.76 241.425C110.704 238.793 116.127 237.358 121.151 235.125C124.341 238.953 127.531 242.781 130.721 246.688C132.316 248.682 134.15 250.436 135.426 252.59C136.861 254.982 137.898 254.105 139.094 252.59C143.879 246.768 148.584 240.947 153.289 235.125Z" fill="#E6EAFA"/>
<path d="M283.916 218.617C296.436 218.617 308.956 218.617 321.477 218.617C325.145 218.617 327.538 220.292 327.936 223.003C328.335 226.113 326.182 228.745 322.593 228.745C296.596 228.825 270.598 228.825 244.521 228.745C241.092 228.745 239.178 226.672 239.178 223.641C239.178 220.611 241.49 218.617 245.239 218.617C258.237 218.617 271.077 218.617 283.916 218.617Z" fill="#5D77E5"/>
<path d="M322.274 129.142C324.268 132.65 323.789 136.399 322.434 139.828C321.477 142.38 319.084 143.975 316.134 143.975C294.442 143.975 272.831 144.054 251.14 143.975C247.073 143.975 244.521 141.343 243.962 136.877C243.643 134.564 243.564 132.172 244.441 129.939C246.993 130.737 248.508 133.288 251.698 133.209C272.99 132.969 294.283 133.129 315.655 133.129C318.686 133.129 320.918 131.933 322.274 129.142Z" fill="#718AF2"/>
<path d="M283.677 270.932C296.516 270.932 309.435 270.932 322.275 270.932C326.023 270.932 328.016 272.686 328.016 275.716C328.016 278.827 326.023 280.501 322.275 280.501C296.676 280.501 271.077 280.501 245.398 280.501C241.73 280.501 239.577 278.986 239.338 276.275C239.098 273.085 241.092 270.932 244.521 270.932C257.52 270.932 270.599 270.932 283.677 270.932Z" fill="#5D77E5"/>
<path d="M283.677 176.511C270.838 176.511 257.998 176.511 245.079 176.511C241.331 176.511 239.338 174.836 239.258 171.806C239.258 168.776 241.331 166.941 245 166.941C270.678 166.941 296.437 166.941 322.115 166.941C325.863 166.941 327.937 168.776 327.937 171.726C327.937 174.836 325.943 176.511 322.195 176.511C309.356 176.511 296.516 176.511 283.677 176.511Z" fill="#5D77E5"/>
<path d="M283.598 193.099C296.437 193.099 309.276 193.099 322.195 193.099C325.943 193.099 327.937 194.773 328.017 197.804C328.017 200.834 325.943 202.668 322.275 202.668C296.596 202.668 270.838 202.668 245.159 202.668C241.491 202.668 239.338 200.834 239.338 197.883C239.338 194.853 241.332 193.178 245.08 193.178C257.919 193.099 270.758 193.099 283.598 193.099Z" fill="#5D77E5"/>
<path d="M283.278 254.344C270.518 254.344 257.759 254.344 244.999 254.344C241.251 254.344 239.257 252.669 239.178 249.639C239.178 246.609 241.251 244.774 244.92 244.774C270.598 244.774 296.356 244.774 322.035 244.774C325.703 244.774 327.857 246.609 327.857 249.559C327.857 252.669 325.863 254.264 322.115 254.264C309.196 254.344 296.277 254.344 283.278 254.344Z" fill="#5D77E5"/>
<path d="M167.963 82.6491C172.35 82.6491 176.815 82.5693 181.202 82.5693C194.121 82.5693 207.04 82.6491 219.959 82.6491C221.793 82.6491 223.547 82.6491 225.381 82.7288C228.332 82.8883 230.326 84.882 230.406 87.4339C230.406 90.1453 228.252 92.2188 225.302 92.2188C204.488 92.2188 183.753 92.2188 162.939 92.2188C159.989 92.2188 157.756 90.1453 157.756 87.4339C157.756 84.882 159.829 82.8086 162.7 82.6491C164.375 82.6491 166.129 82.7288 167.963 82.6491Z" fill="url(#paint0_linear_66_713)"/>
<path d="M322.275 129.141C320.919 131.932 318.686 133.129 315.656 133.129C294.363 133.129 273.071 133.049 251.698 133.208C248.429 133.208 246.993 130.736 244.441 129.939C245.877 126.27 248.668 124.835 252.416 124.835C273.23 124.835 294.044 124.835 314.858 124.835C318.128 124.835 320.919 125.792 322.275 129.141Z" fill="#5D77E5"/>
<path d="M63.8135 272.128C64.5312 265.908 67.4021 260.884 71.868 256.577C72.5857 255.86 73.3831 255.142 74.1009 254.424C77.2908 252.51 80.4806 250.516 84.2288 249.799C81.7566 252.749 78.6465 255.222 76.8123 258.73C75.1376 262 74.0211 265.349 74.0211 269.018C74.0211 278.906 73.9414 288.795 74.0211 298.604C74.0211 301.315 73.2237 301.953 70.592 301.156C66.1262 299.88 64.1325 296.69 63.0958 292.543C63.973 291.826 63.7337 290.789 63.7337 289.912C63.8135 284.01 63.8135 278.109 63.8135 272.128Z" fill="#E6EAFA"/>
<path d="M138.457 301.475C135.506 301.475 132.556 301.475 129.605 301.635C127.771 301.714 127.133 301.475 127.452 299.242C128.887 289.832 129.924 280.422 131.12 271.012C134.868 271.012 138.616 271.012 142.285 271.012C141.726 281.219 139.892 291.347 138.457 301.475Z" fill="#ED5354"/>
<path d="M95.0734 290.948C95.0734 293.42 95.0734 295.813 95.0734 298.285C95.0734 298.923 95.3126 299.72 94.9936 300.199C93 303.389 89.8101 300.996 87.2582 301.634C85.9025 301.953 84.786 301.475 84.8658 299.64C84.9455 294.218 84.7063 288.795 84.9455 283.372C85.105 279.066 87.1784 277.152 90.767 277.391C93.5582 277.55 95.0734 279.783 95.1531 283.611C95.0734 286.004 95.0734 288.476 95.0734 290.948Z" fill="#E6EAFA"/>
<path d="M189.496 290.869C189.496 293.341 189.496 295.733 189.496 298.205C189.496 298.763 189.655 299.322 189.496 299.8C187.98 303.628 184.791 300.837 182.398 301.555C181.122 301.953 179.208 302.113 179.368 299.641C179.607 293.66 178.81 287.599 179.926 281.538C180.484 278.587 181.92 277.312 184.87 277.312C187.342 277.391 189.416 279.225 189.496 281.937C189.575 284.967 189.496 287.918 189.496 290.869Z" fill="#E6EAFA"/>
<path d="M142.285 270.932C138.537 270.932 134.789 270.932 131.12 270.932C129.525 268.619 127.93 266.307 126.256 263.914C126.016 262.559 127.133 262.16 127.93 261.522C129.366 260.406 130.881 259.449 132.316 258.412C137.978 254.345 137.978 254.345 143.082 259.369C142.604 259.608 142.125 259.847 141.727 260.087C137.739 262.479 137.58 263.356 140.132 267.184C140.849 268.46 141.567 269.736 142.285 270.932Z" fill="#D83B43"/>
<path d="M138.457 301.475C139.892 291.347 141.727 281.219 142.285 270.932C142.684 270.932 143.003 270.932 143.401 270.932C144.598 280.182 145.714 289.353 147.149 298.604C147.548 301.156 146.99 301.873 144.518 301.634C142.444 301.395 140.451 301.475 138.457 301.475Z" fill="#FD6D6D"/>
<path d="M143.4 270.932C143.002 270.932 142.683 270.932 142.284 270.932C141.566 269.656 140.848 268.38 140.051 267.183C137.499 263.356 137.738 262.478 141.646 260.086C142.124 259.847 142.603 259.607 143.002 259.368C144.995 260.405 146.829 261.521 148.185 263.276C146.67 265.828 144.995 268.38 143.4 270.932Z" fill="#ED5354"/>
<path d="M63.8138 272.128C63.8138 278.109 63.8138 284.01 63.8138 289.991C63.8138 290.948 64.053 291.905 63.1758 292.623C63.1758 285.765 63.1758 278.986 63.2555 272.128C63.415 272.208 63.5745 272.208 63.8138 272.128Z" fill="#D7DBE4"/>
<path d="M165.331 199.319C165.012 208.011 161.583 215.109 154.805 220.611C154.167 221.17 153.688 221.808 153.05 222.446C151.615 223.084 150.179 223.801 148.664 224.36C145.873 225.316 143.401 226.832 140.131 225.954C127.452 222.685 118.679 211.68 118.6 198.601C118.6 190.228 118.6 181.775 118.6 173.401C130.083 172.604 140.849 169.414 150.658 163.193C153.369 161.439 155.204 161.758 157.117 164.15C158.792 166.224 160.626 168.138 162.54 169.972C164.614 171.886 165.65 174.199 165.331 176.99C165.411 184.486 165.331 191.902 165.331 199.319Z" fill="#F1D0A4"/>
<path d="M165.491 177.069C165.81 174.198 164.773 171.965 162.7 170.052C160.786 168.217 158.952 166.303 157.277 164.23C155.363 161.758 153.529 161.519 150.817 163.273C141.088 169.414 130.243 172.603 118.759 173.481C115.569 173.56 112.3 172.763 109.189 174.039C109.429 169.573 108.87 165.187 109.748 160.721C112.3 146.925 120.115 137.435 132.795 131.773C134.948 130.816 137.5 130.816 139.095 128.822C154.964 129.62 170.196 140.705 174.183 158.408C175.858 165.665 175.539 173.162 175.22 180.578C174.901 180.419 174.582 180.339 174.263 180.179C171.95 177.309 168.681 177.149 165.491 177.069Z" fill="#6E6F6F"/>
<path d="M109.11 173.959C112.22 172.683 115.489 173.481 118.679 173.401C118.679 181.775 118.679 190.228 118.679 198.601C118.679 211.68 127.531 222.685 140.211 225.955C143.481 226.752 145.953 225.237 148.744 224.36C150.259 223.881 151.695 223.084 153.13 222.446C153.21 226.672 153.21 230.899 153.29 235.125C148.585 240.947 143.879 246.769 139.254 252.59C137.978 254.185 137.021 254.983 135.586 252.59C134.23 250.437 132.476 248.682 130.881 246.689C131.838 245.891 131.519 244.695 131.519 243.738C131.519 239.831 131.519 235.923 131.519 232.015C131.519 226.832 131.519 226.832 126.495 224.918C124.74 224.28 123.065 223.323 121.391 222.446C113.416 216.784 108.791 209.287 108.631 199.319C108.95 197.246 108.232 195.491 107.036 193.737C104.484 190.068 104.724 186.081 107.036 182.492C108.232 180.658 108.791 178.983 108.551 176.99C108.472 176.033 108.472 174.916 109.11 173.959Z" fill="#F1BA88"/>
<path d="M109.109 173.959C108.392 174.916 108.392 175.953 108.392 177.069C104.644 176.989 101.374 178.425 98.5828 180.817C98.3436 173.082 97.8651 165.267 99.6993 157.691C104.085 139.668 120.274 127.785 139.015 128.742C137.42 130.736 134.788 130.736 132.715 131.693C119.955 137.355 112.22 146.845 109.668 160.641C108.79 165.107 109.349 169.573 109.109 173.959Z" fill="#403F3F"/>
<path d="M98.6628 180.818C101.454 178.346 104.644 176.99 108.472 177.07C108.631 179.143 108.153 180.738 106.957 182.572C104.644 186.161 104.405 190.069 106.957 193.817C108.153 195.571 108.87 197.246 108.551 199.399C100.258 198.841 95.5527 194.534 95.7919 187.756C95.7919 184.965 97.1476 182.891 98.6628 180.818Z" fill="#E2A771"/>
<path d="M165.491 177.069C168.761 177.229 171.951 177.309 174.263 180.1C174.263 185.523 174.263 190.866 174.184 196.288C171.791 199 168.522 199 165.252 199.319C165.332 191.902 165.411 184.486 165.491 177.069Z" fill="#E2A771"/>
<path d="M121.232 222.445C122.907 223.243 124.581 224.2 126.336 224.917C131.36 226.831 131.36 226.752 131.36 232.015C131.36 235.923 131.36 239.83 131.36 243.738C131.36 244.775 131.679 245.891 130.722 246.688C127.532 242.861 124.342 239.033 121.152 235.125C121.232 230.978 121.232 226.672 121.232 222.445Z" fill="#E2A771"/>
<path d="M174.184 196.288C174.184 190.865 174.184 185.522 174.263 180.1C174.582 180.259 174.901 180.339 175.22 180.498C179.367 186.639 179.048 191.982 174.184 196.288Z" fill="#F1BA88"/>
<path d="M161.68 95.799H163.28V106.999H161.68V95.799ZM166.633 95.799H171.353C172.537 95.799 173.588 96.0337 174.505 96.503C175.422 96.9724 176.132 97.6337 176.633 98.487C177.145 99.3297 177.401 100.3 177.401 101.399C177.401 102.498 177.145 103.474 176.633 104.327C176.132 105.17 175.422 105.826 174.505 106.295C173.588 106.764 172.537 106.999 171.353 106.999H166.633V95.799ZM171.257 105.607C172.164 105.607 172.958 105.431 173.641 105.079C174.334 104.727 174.868 104.236 175.241 103.607C175.614 102.967 175.801 102.231 175.801 101.399C175.801 100.567 175.614 99.8364 175.241 99.207C174.868 98.567 174.334 98.071 173.641 97.719C172.958 97.367 172.164 97.191 171.257 97.191H168.233V105.607H171.257ZM189.157 107.127C188.037 107.127 187.023 106.882 186.117 106.391C185.221 105.89 184.517 105.207 184.005 104.343C183.493 103.468 183.237 102.487 183.237 101.399C183.237 100.311 183.493 99.335 184.005 98.471C184.517 97.5964 185.226 96.9137 186.133 96.423C187.039 95.9217 188.053 95.671 189.173 95.671C190.047 95.671 190.847 95.8204 191.573 96.119C192.298 96.407 192.917 96.839 193.429 97.415L192.389 98.423C191.546 97.5377 190.495 97.095 189.237 97.095C188.405 97.095 187.653 97.2817 186.981 97.655C186.309 98.0284 185.781 98.5457 185.397 99.207C185.023 99.8577 184.837 100.588 184.837 101.399C184.837 102.21 185.023 102.946 185.397 103.607C185.781 104.258 186.309 104.77 186.981 105.143C187.653 105.516 188.405 105.703 189.237 105.703C190.485 105.703 191.535 105.255 192.389 104.359L193.429 105.367C192.917 105.943 192.293 106.38 191.557 106.679C190.831 106.978 190.031 107.127 189.157 107.127ZM202.582 104.199H196.63L195.398 106.999H193.75L198.822 95.799H200.406L205.494 106.999H203.814L202.582 104.199ZM202.022 102.919L199.606 97.431L197.19 102.919H202.022ZM214.652 106.999L212.236 103.559C211.938 103.58 211.703 103.591 211.532 103.591H208.764V106.999H207.164V95.799H211.532C212.983 95.799 214.124 96.1457 214.956 96.839C215.788 97.5324 216.204 98.487 216.204 99.703C216.204 100.567 215.991 101.303 215.564 101.911C215.138 102.519 214.53 102.962 213.74 103.239L216.396 106.999H214.652ZM211.484 102.231C212.498 102.231 213.271 102.012 213.804 101.575C214.338 101.138 214.604 100.514 214.604 99.703C214.604 98.8924 214.338 98.2737 213.804 97.847C213.271 97.4097 212.498 97.191 211.484 97.191H208.764V102.231H211.484ZM218.789 95.799H223.509C224.693 95.799 225.744 96.0337 226.661 96.503C227.579 96.9724 228.288 97.6337 228.789 98.487C229.301 99.3297 229.557 100.3 229.557 101.399C229.557 102.498 229.301 103.474 228.789 104.327C228.288 105.17 227.579 105.826 226.661 106.295C225.744 106.764 224.693 106.999 223.509 106.999H218.789V95.799ZM223.413 105.607C224.32 105.607 225.115 105.431 225.797 105.079C226.491 104.727 227.024 104.236 227.397 103.607C227.771 102.967 227.957 102.231 227.957 101.399C227.957 100.567 227.771 99.8364 227.397 99.207C227.024 98.567 226.491 98.071 225.797 97.719C225.115 97.367 224.32 97.191 223.413 97.191H220.389V105.607H223.413Z" fill="#0C0F12"/>
</g>
<g filter="url(#filter1_d_66_713)">
<circle cx="357" cy="323.999" r="32" fill="#3DC290"/>
<path d="M348.004 324.152C347.856 323.983 347.675 323.845 347.474 323.745C347.272 323.645 347.052 323.586 346.828 323.571C346.603 323.556 346.378 323.586 346.165 323.658C345.951 323.73 345.755 323.843 345.585 323.991C345.416 324.14 345.277 324.32 345.178 324.522C345.078 324.723 345.019 324.943 345.004 325.167C344.989 325.392 345.018 325.617 345.09 325.83C345.163 326.044 345.276 326.241 345.424 326.41L351.423 333.267C351.58 333.447 351.774 333.592 351.991 333.694C352.207 333.795 352.443 333.849 352.682 333.854C352.921 333.858 353.159 333.813 353.38 333.72C353.6 333.627 353.799 333.489 353.963 333.315L368.532 317.89C368.844 317.559 369.012 317.118 368.999 316.664C368.986 316.21 368.793 315.779 368.463 315.467C368.133 315.155 367.692 314.987 367.238 315C366.783 315.013 366.353 315.206 366.041 315.536L352.765 329.595L348.004 324.152Z" fill="white"/>
</g>
<defs>
<filter id="filter0_d_66_713" x="0" y="-5.00098" width="388" height="388" filterUnits="userSpaceOnUse" color-interpolation-filters="sRGB">
<feFlood flood-opacity="0" result="BackgroundImageFix"/>
<feColorMatrix in="SourceAlpha" type="matrix" values="0 0 0 0 0 0 0 0 0 0 0 0 0 0 0 0 0 0 127 0" result="hardAlpha"/>
<feOffset dy="15"/>
<feGaussianBlur stdDeviation="15"/>
<feComposite in2="hardAlpha" operator="out"/>
<feColorMatrix type="matrix" values="0 0 0 0 0.443137 0 0 0 0 0.541176 0 0 0 0 0.94902 0 0 0 0.15 0"/>
<feBlend mode="normal" in2="BackgroundImageFix" result="effect1_dropShadow_66_713"/>
<feBlend mode="normal" in="SourceGraphic" in2="effect1_dropShadow_66_713" result="shape"/>
</filter>
<filter id="filter1_d_66_713" x="310" y="284.999" width="94" height="94" filterUnits="userSpaceOnUse" color-interpolation-filters="sRGB">
<feFlood flood-opacity="0" result="BackgroundImageFix"/>
<feColorMatrix in="SourceAlpha" type="matrix" values="0 0 0 0 0 0 0 0 0 0 0 0 0 0 0 0 0 0 127 0" result="hardAlpha"/>
<feOffset dy="8"/>
<feGaussianBlur stdDeviation="7.5"/>
<feComposite in2="hardAlpha" operator="out"/>
<feColorMatrix type="matrix" values="0 0 0 0 0.364706 0 0 0 0 0.466667 0 0 0 0 0.898039 0 0 0 0.1 0"/>
<feBlend mode="normal" in2="BackgroundImageFix" result="effect1_dropShadow_66_713"/>
<feBlend mode="normal" in="SourceGraphic" in2="effect1_dropShadow_66_713" result="shape"/>
</filter>
<linearGradient id="paint0_linear_66_713" x1="194.086" y1="83.8338" x2="194.086" y2="91.2468" gradientUnits="userSpaceOnUse">
<stop stop-color="#FFD3D3"/>
<stop offset="1" stop-color="#FF4949" stop-opacity="0.2"/>
</linearGradient>
</defs>
</svg>
