<svg width="1169" height="290" viewBox="0 0 1169 290" fill="none" xmlns="http://www.w3.org/2000/svg">
<path d="M35.1104 251.062V253.15H22.9184V236.35H34.7744V238.438H25.3184V243.598H33.7424V245.638H25.3184V251.062H35.1104ZM43.1285 240.31C44.8885 240.31 46.2325 240.742 47.1605 241.606C48.1045 242.47 48.5765 243.758 48.5765 245.47V253.15H46.3925V251.47C46.0085 252.062 45.4565 252.518 44.7365 252.838C44.0325 253.142 43.1925 253.294 42.2165 253.294C40.7925 253.294 39.6485 252.95 38.7845 252.262C37.9365 251.574 37.5125 250.67 37.5125 249.55C37.5125 248.43 37.9205 247.534 38.7365 246.862C39.5525 246.174 40.8485 245.83 42.6245 245.83H46.2725V245.374C46.2725 244.382 45.9845 243.622 45.4085 243.094C44.8325 242.566 43.9845 242.302 42.8645 242.302C42.1125 242.302 41.3765 242.43 40.6565 242.686C39.9365 242.926 39.3285 243.254 38.8325 243.67L37.8725 241.942C38.5285 241.414 39.3125 241.014 40.2245 240.742C41.1365 240.454 42.1045 240.31 43.1285 240.31ZM42.6005 251.518C43.4805 251.518 44.2405 251.326 44.8805 250.942C45.5205 250.542 45.9845 249.982 46.2725 249.262V247.486H42.7205C40.7685 247.486 39.7925 248.142 39.7925 249.454C39.7925 250.094 40.0405 250.598 40.5365 250.966C41.0325 251.334 41.7205 251.518 42.6005 251.518ZM56.4883 253.294C55.4483 253.294 54.4483 253.158 53.4883 252.886C52.5283 252.598 51.7763 252.238 51.2323 251.806L52.1923 249.982C52.7523 250.382 53.4323 250.702 54.2323 250.942C55.0323 251.182 55.8403 251.302 56.6562 251.302C58.6723 251.302 59.6803 250.726 59.6803 249.574C59.6803 249.19 59.5443 248.886 59.2723 248.662C59.0003 248.438 58.6563 248.278 58.2403 248.182C57.8403 248.07 57.2643 247.95 56.5123 247.822C55.4883 247.662 54.6483 247.478 53.9923 247.27C53.3523 247.062 52.8003 246.71 52.3363 246.214C51.8723 245.718 51.6403 245.022 51.6403 244.126C51.6403 242.974 52.1203 242.054 53.0803 241.366C54.0403 240.662 55.3283 240.31 56.9443 240.31C57.7923 240.31 58.6403 240.414 59.4883 240.622C60.3363 240.83 61.0323 241.11 61.5763 241.462L60.5923 243.286C59.5523 242.614 58.3283 242.278 56.9203 242.278C55.9443 242.278 55.2003 242.438 54.6883 242.758C54.1763 243.078 53.9203 243.502 53.9203 244.03C53.9203 244.446 54.0643 244.774 54.3523 245.014C54.6403 245.254 54.9923 245.43 55.4083 245.542C55.8403 245.654 56.4403 245.782 57.2083 245.926C58.2323 246.102 59.0563 246.294 59.6803 246.502C60.3203 246.694 60.8643 247.03 61.3123 247.51C61.7603 247.99 61.9843 248.662 61.9843 249.526C61.9843 250.678 61.4883 251.598 60.4963 252.286C59.5203 252.958 58.1843 253.294 56.4883 253.294ZM75.8853 240.43L69.7173 254.422C69.1733 255.718 68.5333 256.63 67.7973 257.158C67.0773 257.686 66.2053 257.95 65.1813 257.95C64.5573 257.95 63.9493 257.846 63.3573 257.638C62.7813 257.446 62.3013 257.158 61.9173 256.774L62.9013 255.046C63.5573 255.67 64.3173 255.982 65.1813 255.982C65.7413 255.982 66.2053 255.83 66.5733 255.526C66.9573 255.238 67.3013 254.734 67.6053 254.014L68.0133 253.126L62.3973 240.43H64.7973L69.2373 250.606L73.6293 240.43H75.8853ZM89.7129 253.342C88.4489 253.342 87.2249 253.15 86.0409 252.766C84.8729 252.366 83.9529 251.854 83.2809 251.23L84.1689 249.358C84.8089 249.934 85.6249 250.406 86.6169 250.774C87.6249 251.126 88.6569 251.302 89.7129 251.302C91.1049 251.302 92.1449 251.07 92.8329 250.606C93.5209 250.126 93.8649 249.494 93.8649 248.71C93.8649 248.134 93.6729 247.67 93.2889 247.318C92.9209 246.95 92.4569 246.67 91.8969 246.478C91.3529 246.286 90.5769 246.07 89.5689 245.83C88.3049 245.526 87.2809 245.222 86.4969 244.918C85.7289 244.614 85.0649 244.15 84.5049 243.526C83.9609 242.886 83.6889 242.03 83.6889 240.958C83.6889 240.062 83.9209 239.254 84.3849 238.534C84.8649 237.814 85.5849 237.238 86.5449 236.806C87.5049 236.374 88.6969 236.158 90.1209 236.158C91.1129 236.158 92.0889 236.286 93.0489 236.542C94.0089 236.798 94.8329 237.166 95.5209 237.646L94.7289 239.566C94.0249 239.118 93.2729 238.782 92.4729 238.558C91.6729 238.318 90.8889 238.198 90.1209 238.198C88.7609 238.198 87.7369 238.446 87.0489 238.942C86.3769 239.438 86.0409 240.078 86.0409 240.862C86.0409 241.438 86.2329 241.91 86.6169 242.278C87.0009 242.63 87.4729 242.91 88.0329 243.118C88.6089 243.31 89.3849 243.518 90.3609 243.742C91.6249 244.046 92.6409 244.35 93.4089 244.654C94.1769 244.958 94.8329 245.422 95.3769 246.046C95.9369 246.67 96.2169 247.51 96.2169 248.566C96.2169 249.446 95.9769 250.254 95.4969 250.99C95.0169 251.71 94.2889 252.286 93.3129 252.718C92.3369 253.134 91.1369 253.342 89.7129 253.342ZM99.3871 240.43H101.691V253.15H99.3871V240.43ZM100.539 237.982C100.091 237.982 99.7151 237.838 99.4111 237.55C99.1231 237.262 98.9791 236.91 98.9791 236.494C98.9791 236.078 99.1231 235.726 99.4111 235.438C99.7151 235.134 100.091 234.982 100.539 234.982C100.987 234.982 101.355 235.126 101.643 235.414C101.947 235.686 102.099 236.03 102.099 236.446C102.099 236.878 101.947 237.246 101.643 237.55C101.355 237.838 100.987 237.982 100.539 237.982ZM118.258 240.43V251.422C118.258 253.646 117.706 255.286 116.602 256.342C115.498 257.414 113.85 257.95 111.658 257.95C110.458 257.95 109.314 257.782 108.226 257.446C107.138 257.126 106.258 256.662 105.586 256.054L106.69 254.278C107.282 254.79 108.01 255.19 108.874 255.478C109.754 255.782 110.658 255.934 111.586 255.934C113.074 255.934 114.17 255.582 114.874 254.878C115.594 254.174 115.954 253.102 115.954 251.662V250.654C115.41 251.31 114.738 251.806 113.938 252.142C113.154 252.462 112.298 252.622 111.37 252.622C110.154 252.622 109.05 252.366 108.058 251.854C107.082 251.326 106.314 250.598 105.754 249.67C105.194 248.726 104.914 247.654 104.914 246.454C104.914 245.254 105.194 244.19 105.754 243.262C106.314 242.318 107.082 241.59 108.058 241.078C109.05 240.566 110.154 240.31 111.37 240.31C112.33 240.31 113.218 240.486 114.034 240.838C114.866 241.19 115.546 241.71 116.074 242.398V240.43H118.258ZM111.634 250.606C112.466 250.606 113.21 250.43 113.866 250.078C114.538 249.726 115.058 249.238 115.426 248.614C115.81 247.974 116.002 247.254 116.002 246.454C116.002 245.222 115.594 244.23 114.778 243.478C113.962 242.71 112.914 242.326 111.634 242.326C110.338 242.326 109.282 242.71 108.466 243.478C107.65 244.23 107.242 245.222 107.242 246.454C107.242 247.254 107.426 247.974 107.794 248.614C108.178 249.238 108.698 249.726 109.354 250.078C110.026 250.43 110.786 250.606 111.634 250.606ZM129.453 240.31C131.069 240.31 132.349 240.782 133.293 241.726C134.253 242.654 134.733 244.022 134.733 245.83V253.15H132.429V246.094C132.429 244.862 132.133 243.934 131.541 243.31C130.949 242.686 130.101 242.374 128.997 242.374C127.749 242.374 126.765 242.742 126.045 243.478C125.325 244.198 124.965 245.238 124.965 246.598V253.15H122.661V240.43H124.869V242.35C125.333 241.694 125.957 241.19 126.741 240.838C127.541 240.486 128.445 240.31 129.453 240.31ZM152.738 253.342C150.498 253.342 148.754 252.702 147.506 251.422C146.258 250.142 145.634 248.302 145.634 245.902V236.35H148.034V245.806C148.034 249.406 149.61 251.206 152.762 251.206C154.298 251.206 155.474 250.766 156.29 249.886C157.106 248.99 157.514 247.63 157.514 245.806V236.35H159.842V245.902C159.842 248.318 159.218 250.166 157.97 251.446C156.722 252.71 154.978 253.342 152.738 253.342ZM171.17 240.31C172.402 240.31 173.506 240.582 174.482 241.126C175.458 241.67 176.218 242.43 176.762 243.406C177.322 244.382 177.602 245.51 177.602 246.79C177.602 248.07 177.322 249.206 176.762 250.198C176.218 251.174 175.458 251.934 174.482 252.478C173.506 253.022 172.402 253.294 171.17 253.294C170.258 253.294 169.418 253.118 168.65 252.766C167.898 252.414 167.258 251.902 166.73 251.23V257.806H164.426V240.43H166.634V242.446C167.146 241.742 167.794 241.214 168.578 240.862C169.362 240.494 170.226 240.31 171.17 240.31ZM170.978 251.278C171.794 251.278 172.522 251.094 173.162 250.726C173.818 250.342 174.33 249.814 174.698 249.142C175.082 248.454 175.274 247.67 175.274 246.79C175.274 245.91 175.082 245.134 174.698 244.462C174.33 243.774 173.818 243.246 173.162 242.878C172.522 242.51 171.794 242.326 170.978 242.326C170.178 242.326 169.45 242.518 168.794 242.902C168.154 243.27 167.642 243.79 167.258 244.462C166.89 245.134 166.706 245.91 166.706 246.79C166.706 247.67 166.89 248.454 167.258 249.142C167.626 249.814 168.138 250.342 168.794 250.726C169.45 251.094 170.178 251.278 170.978 251.278Z" fill="#403F3F"/>
<circle cx="99.5" cy="99.499" r="99.5" fill="white"/>
<path d="M77.6504 105.483C77.2086 104.729 76.455 104.339 75.8313 103.794C70.7637 99.2198 67.5673 93.5805 66.6317 86.7978C65.5402 78.8196 67.4373 71.5431 72.5309 65.2281C76.7928 59.8747 82.3022 56.4963 89.0329 55.2229C95.8157 53.9236 102.235 54.9371 108.238 58.3674C114.527 61.9537 118.737 67.2292 121.05 74.0379C122.089 77.1044 122.609 80.2749 122.453 83.4974C122.167 90.1242 119.958 96.0234 115.618 101.065C114.397 102.468 113.097 103.742 111.616 104.885C111.408 105.041 111.174 105.197 111.226 105.509C110.966 105.561 110.733 105.613 110.499 105.769C104.625 109.849 98.1546 111.46 91.034 110.654C87.2658 110.239 83.7315 109.069 80.4571 107.172C79.5215 106.6 78.586 106.029 77.6504 105.483Z" fill="#5D77E5"/>
<path d="M77.6515 105.482C78.5871 106.028 79.5226 106.6 80.4842 107.146C83.7586 109.043 87.2929 110.212 91.0611 110.628C98.1557 111.434 104.653 109.822 110.526 105.742C110.76 105.586 110.994 105.534 111.253 105.482C113.826 105.872 116.243 106.73 118.582 107.847C118.894 108.003 119.232 108.133 119.543 108.289C119.232 108.705 118.738 108.783 118.296 109.017C110.916 112.785 106.68 121.023 108.083 129.209C109.408 136.823 113.826 141.917 121.077 144.542C122.22 144.957 123.416 145.191 124.585 145.503C114.45 145.503 104.341 145.503 94.2056 145.477C93.7638 145.009 93.348 144.516 92.8542 144.074C90.8532 142.229 88.9821 140.28 87.2409 138.201C84.1224 134.51 81.1858 130.638 78.613 126.532C75.6765 121.803 73.0777 116.891 70.9467 111.719C70.479 110.576 70.1671 109.329 69.4395 108.289C72.0382 106.886 74.7409 105.924 77.6515 105.482Z" fill="url(#paint0_linear_66_642)"/>
<path d="M69.465 108.264C70.1927 109.303 70.5045 110.551 70.9723 111.694C73.1033 116.84 75.6761 121.777 78.6386 126.507C81.2114 130.639 84.122 134.485 87.2665 138.175C89.0077 140.254 90.9048 142.203 92.8798 144.048C93.3476 144.49 93.7634 144.984 94.2312 145.452C89.3975 145.452 84.5638 145.478 79.7301 145.478C74.8705 145.478 69.9848 145.478 65.1251 145.478C58.8621 145.478 53.6127 140.358 53.7426 134.095C53.9765 122.765 59.096 114.241 68.8673 108.498C69.0492 108.394 69.2571 108.342 69.465 108.264Z" fill="#3DC290"/>
<path d="M124.585 145.478C123.415 145.166 122.194 144.932 121.076 144.516C113.8 141.918 109.382 136.824 108.082 129.184C106.679 120.998 110.889 112.76 118.296 108.991C118.711 108.784 119.231 108.68 119.543 108.264C120.686 108.238 121.7 107.614 122.791 107.38C125.884 106.653 128.95 106.705 131.991 107.51C137.63 109.017 141.814 112.448 144.465 117.671C145.556 119.828 146.128 122.115 146.336 124.532C146.856 131.029 144.621 136.408 139.839 140.696C136.903 143.347 133.368 144.88 129.366 145.322C127.755 145.504 126.17 145.426 124.585 145.478ZM122.869 134.147C122.869 134.953 122.869 135.759 122.869 136.59C122.895 139.657 125.858 141.684 128.717 140.592C130.302 139.995 131.419 138.279 131.445 136.356C131.471 134.745 131.497 133.108 131.419 131.497C131.393 130.665 131.679 130.457 132.485 130.483C134.148 130.535 135.785 130.509 137.448 130.509C139.865 130.509 141.788 128.586 141.788 126.221C141.788 123.83 139.865 121.959 137.422 121.959C135.759 121.959 134.096 121.907 132.459 121.985C131.627 122.011 131.445 121.751 131.419 120.946C131.393 118.971 131.627 116.996 131.263 115.021C130.822 112.708 129.002 111.408 126.482 111.642C124.481 111.824 122.869 113.669 122.869 115.8C122.869 117.593 122.843 119.36 122.869 121.154C122.869 121.803 122.661 122.011 122.038 121.985C120.349 121.959 118.659 121.985 116.97 121.959C114.371 121.933 112.396 123.726 112.422 126.247C112.422 128.82 114.423 130.561 116.996 130.535C118.659 130.509 120.323 130.561 121.96 130.509C122.713 130.483 122.921 130.743 122.869 131.471C122.843 132.328 122.869 133.238 122.869 134.147Z" fill="#E6EAFA"/>
<path d="M122.869 134.147C122.869 133.237 122.817 132.328 122.869 131.418C122.921 130.716 122.687 130.456 121.959 130.456C120.296 130.508 118.659 130.456 116.996 130.482C114.423 130.508 112.422 128.767 112.422 126.194C112.422 123.674 114.371 121.881 116.97 121.907C118.659 121.933 120.348 121.881 122.037 121.933C122.687 121.959 122.895 121.751 122.869 121.101C122.843 119.308 122.843 117.541 122.869 115.747C122.869 113.617 124.506 111.771 126.481 111.589C129.002 111.356 130.821 112.655 131.263 114.968C131.627 116.943 131.393 118.918 131.419 120.893C131.419 121.699 131.627 121.959 132.458 121.933C134.121 121.881 135.759 121.907 137.422 121.907C139.865 121.907 141.788 123.804 141.788 126.168C141.788 128.559 139.891 130.456 137.448 130.456C135.785 130.456 134.121 130.508 132.484 130.43C131.705 130.404 131.393 130.612 131.419 131.444C131.471 133.055 131.445 134.692 131.445 136.304C131.419 138.227 130.301 139.942 128.716 140.54C125.857 141.631 122.895 139.578 122.869 136.538C122.869 135.758 122.869 134.952 122.869 134.147Z" fill="url(#paint1_linear_66_642)"/>
<path d="M483.374 236.35L476.006 253.15H473.63L466.238 236.35H468.83L474.878 250.15L480.974 236.35H483.374ZM495.715 246.862C495.715 247.038 495.699 247.27 495.667 247.558H485.347C485.491 248.678 485.979 249.582 486.811 250.27C487.659 250.942 488.707 251.278 489.955 251.278C491.475 251.278 492.699 250.766 493.627 249.742L494.899 251.23C494.323 251.902 493.603 252.414 492.739 252.766C491.891 253.118 490.939 253.294 489.883 253.294C488.539 253.294 487.347 253.022 486.307 252.478C485.267 251.918 484.459 251.142 483.883 250.15C483.323 249.158 483.043 248.038 483.043 246.79C483.043 245.558 483.315 244.446 483.859 243.454C484.419 242.462 485.179 241.694 486.139 241.15C487.115 240.59 488.211 240.31 489.427 240.31C490.643 240.31 491.723 240.59 492.667 241.15C493.627 241.694 494.371 242.462 494.899 243.454C495.443 244.446 495.715 245.582 495.715 246.862ZM489.427 242.254C488.323 242.254 487.395 242.59 486.643 243.262C485.907 243.934 485.475 244.814 485.347 245.902H493.507C493.379 244.83 492.939 243.958 492.187 243.286C491.451 242.598 490.531 242.254 489.427 242.254ZM501.122 242.566C501.522 241.83 502.114 241.27 502.898 240.886C503.682 240.502 504.634 240.31 505.754 240.31V242.542C505.626 242.526 505.45 242.518 505.226 242.518C503.978 242.518 502.994 242.894 502.274 243.646C501.57 244.382 501.218 245.438 501.218 246.814V253.15H498.914V240.43H501.122V242.566ZM508.594 240.43H510.898V253.15H508.594V240.43ZM509.746 237.982C509.298 237.982 508.922 237.838 508.618 237.55C508.33 237.262 508.186 236.91 508.186 236.494C508.186 236.078 508.33 235.726 508.618 235.438C508.922 235.134 509.298 234.982 509.746 234.982C510.194 234.982 510.562 235.126 510.85 235.414C511.154 235.686 511.306 236.03 511.306 236.446C511.306 236.878 511.154 237.246 510.85 237.55C510.562 237.838 510.194 237.982 509.746 237.982ZM519.953 237.094C518.577 237.094 517.889 237.838 517.889 239.326V240.43H521.585V242.326H517.937V253.15H515.633V242.326H513.473V240.43H515.633V239.302C515.633 238.038 516.001 237.038 516.737 236.302C517.473 235.566 518.505 235.198 519.833 235.198C520.345 235.198 520.825 235.262 521.273 235.39C521.721 235.518 522.105 235.702 522.425 235.942L521.729 237.694C521.201 237.294 520.609 237.094 519.953 237.094ZM535.249 240.43L529.081 254.422C528.537 255.718 527.897 256.63 527.161 257.158C526.441 257.686 525.569 257.95 524.545 257.95C523.921 257.95 523.313 257.846 522.721 257.638C522.145 257.446 521.665 257.158 521.281 256.774L522.265 255.046C522.921 255.67 523.681 255.982 524.545 255.982C525.105 255.982 525.569 255.83 525.937 255.526C526.321 255.238 526.665 254.734 526.969 254.014L527.377 253.126L521.761 240.43H524.161L528.601 250.606L532.993 240.43H535.249ZM555.1 240.43L548.932 254.422C548.388 255.718 547.748 256.63 547.012 257.158C546.292 257.686 545.42 257.95 544.396 257.95C543.772 257.95 543.164 257.846 542.572 257.638C541.996 257.446 541.516 257.158 541.132 256.774L542.116 255.046C542.772 255.67 543.532 255.982 544.396 255.982C544.956 255.982 545.42 255.83 545.788 255.526C546.172 255.238 546.516 254.734 546.82 254.014L547.228 253.126L541.612 240.43H544.012L548.452 250.606L552.844 240.43H555.1ZM562.347 253.294C561.083 253.294 559.947 253.014 558.939 252.454C557.931 251.894 557.139 251.126 556.563 250.15C556.003 249.158 555.723 248.038 555.723 246.79C555.723 245.542 556.003 244.43 556.563 243.454C557.139 242.462 557.931 241.694 558.939 241.15C559.947 240.59 561.083 240.31 562.347 240.31C563.611 240.31 564.739 240.59 565.731 241.15C566.739 241.694 567.523 242.462 568.083 243.454C568.659 244.43 568.947 245.542 568.947 246.79C568.947 248.038 568.659 249.158 568.083 250.15C567.523 251.126 566.739 251.894 565.731 252.454C564.739 253.014 563.611 253.294 562.347 253.294ZM562.347 251.278C563.163 251.278 563.891 251.094 564.531 250.726C565.187 250.342 565.699 249.814 566.067 249.142C566.435 248.454 566.619 247.67 566.619 246.79C566.619 245.91 566.435 245.134 566.067 244.462C565.699 243.774 565.187 243.246 564.531 242.878C563.891 242.51 563.163 242.326 562.347 242.326C561.531 242.326 560.795 242.51 560.139 242.878C559.499 243.246 558.987 243.774 558.603 244.462C558.235 245.134 558.051 245.91 558.051 246.79C558.051 247.67 558.235 248.454 558.603 249.142C558.987 249.814 559.499 250.342 560.139 250.726C560.795 251.094 561.531 251.278 562.347 251.278ZM583.989 240.43V253.15H581.805V251.23C581.341 251.886 580.725 252.398 579.957 252.766C579.205 253.118 578.381 253.294 577.485 253.294C575.789 253.294 574.453 252.83 573.477 251.902C572.501 250.958 572.013 249.574 572.013 247.75V240.43H574.317V247.486C574.317 248.718 574.613 249.654 575.205 250.294C575.797 250.918 576.645 251.23 577.749 251.23C578.965 251.23 579.925 250.862 580.629 250.126C581.333 249.39 581.685 248.35 581.685 247.006V240.43H583.989ZM590.583 242.566C590.983 241.83 591.575 241.27 592.359 240.886C593.143 240.502 594.095 240.31 595.215 240.31V242.542C595.087 242.526 594.911 242.518 594.687 242.518C593.439 242.518 592.455 242.894 591.735 243.646C591.031 244.382 590.679 245.438 590.679 246.814V253.15H588.375V240.43H590.583V242.566ZM615.704 248.95H606.776L604.928 253.15H602.456L610.064 236.35H612.44L620.072 253.15H617.552L615.704 248.95ZM614.864 247.03L611.24 238.798L607.616 247.03H614.864ZM627.669 253.294C626.373 253.294 625.213 253.014 624.189 252.454C623.181 251.894 622.389 251.126 621.813 250.15C621.237 249.158 620.949 248.038 620.949 246.79C620.949 245.542 621.237 244.43 621.813 243.454C622.389 242.462 623.181 241.694 624.189 241.15C625.213 240.59 626.373 240.31 627.669 240.31C628.821 240.31 629.845 240.542 630.741 241.006C631.653 241.47 632.357 242.142 632.853 243.022L631.101 244.15C630.701 243.542 630.205 243.086 629.613 242.782C629.021 242.478 628.365 242.326 627.645 242.326C626.813 242.326 626.061 242.51 625.389 242.878C624.733 243.246 624.213 243.774 623.829 244.462C623.461 245.134 623.277 245.91 623.277 246.79C623.277 247.686 623.461 248.478 623.829 249.166C624.213 249.838 624.733 250.358 625.389 250.726C626.061 251.094 626.813 251.278 627.645 251.278C628.365 251.278 629.021 251.126 629.613 250.822C630.205 250.518 630.701 250.062 631.101 249.454L632.853 250.558C632.357 251.438 631.653 252.118 630.741 252.598C629.845 253.062 628.821 253.294 627.669 253.294ZM641.193 253.294C639.897 253.294 638.737 253.014 637.713 252.454C636.705 251.894 635.913 251.126 635.337 250.15C634.761 249.158 634.473 248.038 634.473 246.79C634.473 245.542 634.761 244.43 635.337 243.454C635.913 242.462 636.705 241.694 637.713 241.15C638.737 240.59 639.897 240.31 641.193 240.31C642.345 240.31 643.369 240.542 644.265 241.006C645.177 241.47 645.881 242.142 646.377 243.022L644.625 244.15C644.225 243.542 643.729 243.086 643.137 242.782C642.545 242.478 641.889 242.326 641.169 242.326C640.337 242.326 639.585 242.51 638.913 242.878C638.257 243.246 637.737 243.774 637.353 244.462C636.985 245.134 636.801 245.91 636.801 246.79C636.801 247.686 636.985 248.478 637.353 249.166C637.737 249.838 638.257 250.358 638.913 250.726C639.585 251.094 640.337 251.278 641.169 251.278C641.889 251.278 642.545 251.126 643.137 250.822C643.729 250.518 644.225 250.062 644.625 249.454L646.377 250.558C645.881 251.438 645.177 252.118 644.265 252.598C643.369 253.062 642.345 253.294 641.193 253.294ZM654.62 253.294C653.356 253.294 652.22 253.014 651.212 252.454C650.204 251.894 649.412 251.126 648.836 250.15C648.276 249.158 647.996 248.038 647.996 246.79C647.996 245.542 648.276 244.43 648.836 243.454C649.412 242.462 650.204 241.694 651.212 241.15C652.22 240.59 653.356 240.31 654.62 240.31C655.884 240.31 657.012 240.59 658.004 241.15C659.012 241.694 659.796 242.462 660.356 243.454C660.932 244.43 661.22 245.542 661.22 246.79C661.22 248.038 660.932 249.158 660.356 250.15C659.796 251.126 659.012 251.894 658.004 252.454C657.012 253.014 655.884 253.294 654.62 253.294ZM654.62 251.278C655.436 251.278 656.164 251.094 656.804 250.726C657.46 250.342 657.972 249.814 658.34 249.142C658.708 248.454 658.892 247.67 658.892 246.79C658.892 245.91 658.708 245.134 658.34 244.462C657.972 243.774 657.46 243.246 656.804 242.878C656.164 242.51 655.436 242.326 654.62 242.326C653.804 242.326 653.068 242.51 652.412 242.878C651.772 243.246 651.26 243.774 650.876 244.462C650.508 245.134 650.324 245.91 650.324 246.79C650.324 247.67 650.508 248.454 650.876 249.142C651.26 249.814 651.772 250.342 652.412 250.726C653.068 251.094 653.804 251.278 654.62 251.278ZM676.263 240.43V253.15H674.079V251.23C673.615 251.886 672.999 252.398 672.231 252.766C671.479 253.118 670.655 253.294 669.759 253.294C668.063 253.294 666.727 252.83 665.751 251.902C664.775 250.958 664.287 249.574 664.287 247.75V240.43H666.591V247.486C666.591 248.718 666.887 249.654 667.479 250.294C668.071 250.918 668.919 251.23 670.023 251.23C671.239 251.23 672.199 250.862 672.903 250.126C673.607 249.39 673.959 248.35 673.959 247.006V240.43H676.263ZM687.441 240.31C689.057 240.31 690.337 240.782 691.281 241.726C692.241 242.654 692.721 244.022 692.721 245.83V253.15H690.417V246.094C690.417 244.862 690.121 243.934 689.529 243.31C688.937 242.686 688.089 242.374 686.985 242.374C685.737 242.374 684.753 242.742 684.033 243.478C683.313 244.198 682.953 245.238 682.953 246.598V253.15H680.649V240.43H682.857V242.35C683.321 241.694 683.945 241.19 684.729 240.838C685.529 240.486 686.433 240.31 687.441 240.31ZM704.137 252.406C703.801 252.694 703.385 252.918 702.889 253.078C702.393 253.222 701.881 253.294 701.353 253.294C700.073 253.294 699.081 252.95 698.377 252.262C697.673 251.574 697.321 250.59 697.321 249.31V242.326H695.161V240.43H697.321V237.646H699.625V240.43H703.273V242.326H699.625V249.214C699.625 249.902 699.793 250.43 700.129 250.798C700.481 251.166 700.977 251.35 701.617 251.35C702.321 251.35 702.921 251.15 703.417 250.75L704.137 252.406Z" fill="#403F3F"/>
<circle cx="585.5" cy="99.499" r="99.5" fill="white"/>
<path d="M536.195 140.056C536.195 121.116 536.195 102.2 536.195 83.26C536.682 83.1871 536.633 82.7494 536.755 82.4577C538.067 78.835 541.204 76.6955 544.826 76.6955C557.64 76.6225 570.477 76.6712 583.29 76.6712C583.29 86.5909 583.266 96.5107 583.266 106.43C583.266 119.851 583.266 133.272 583.29 146.669C570.477 146.669 557.64 146.717 544.826 146.644C541.204 146.62 538.067 144.481 536.755 140.882C536.633 140.566 536.682 140.128 536.195 140.056ZM559.536 134.974C562.526 134.974 565.493 135.023 568.483 134.998C569.991 134.974 571.158 133.758 571.206 132.251C571.231 131.206 571.206 130.184 571.206 129.139C571.206 123.839 567.608 119.219 562.502 117.858C562.065 117.736 561.505 117.882 561.141 117.396C562.186 117.128 563.183 116.764 564.107 116.229C567.34 114.332 569.042 110.102 567.973 106.479C566.806 102.54 563.377 99.9145 559.536 100.036C555.767 100.158 552.826 101.835 551.561 105.361C549.397 111.39 552.047 115.329 558.004 117.59C557.591 117.687 557.421 117.712 557.275 117.76C554.187 118.393 551.853 120.119 550.078 122.672C548.012 125.638 547.671 128.969 547.89 132.421C547.987 133.904 549.179 134.998 550.686 135.023C553.652 135.023 556.594 134.974 559.536 134.974Z" fill="#E6EAFA"/>
<path d="M583.29 76.6708C585.211 76.6708 587.156 76.6465 589.077 76.6465C589.198 80.415 589.903 84.062 591.751 87.3686C596.249 95.4892 603.154 99.7197 612.466 99.9628C615.821 100.084 618.982 99.282 622.021 97.9691C625.084 96.6319 627.662 94.6139 629.947 92.2069C629.947 98.0177 629.971 103.804 629.971 109.615C629.971 118.878 629.971 128.142 629.971 137.429C629.971 141.319 628.294 144.213 624.793 145.915C623.772 146.401 622.653 146.693 621.51 146.693C608.77 146.693 596.03 146.693 583.314 146.693C583.314 133.272 583.314 119.851 583.29 106.454C583.266 96.486 583.29 86.5906 583.29 76.6708ZM603.64 123.328C607.53 123.328 611.42 123.328 615.286 123.328C616.94 123.328 618.228 122.063 618.252 120.483C618.277 118.903 617.012 117.517 615.408 117.517C607.579 117.493 599.726 117.493 591.897 117.517C590.949 117.517 590.146 117.955 589.612 118.757C588.955 119.754 588.882 120.799 589.49 121.869C590.098 122.914 591.022 123.328 592.164 123.328C596.006 123.328 599.823 123.328 603.64 123.328ZM603.689 129.163C599.872 129.163 596.055 129.163 592.237 129.163C591.168 129.163 590.268 129.528 589.66 130.427C589.004 131.424 588.931 132.469 589.539 133.539C590.146 134.585 591.07 134.998 592.213 134.998C599.823 134.998 607.433 134.998 615.043 134.998C617.012 134.998 618.325 133.807 618.301 132.056C618.277 130.354 616.988 129.187 615.067 129.163C611.275 129.163 607.482 129.163 603.689 129.163ZM592.067 111.657C593.672 111.633 594.96 110.32 594.936 108.716C594.936 107.111 593.623 105.822 592.019 105.822C590.365 105.822 589.052 107.159 589.101 108.813C589.15 110.417 590.462 111.682 592.067 111.657ZM603.713 105.822C602.108 105.798 600.796 107.087 600.771 108.691C600.747 110.296 602.011 111.633 603.616 111.657C605.269 111.706 606.606 110.393 606.606 108.74C606.606 107.135 605.318 105.847 603.713 105.822ZM618.277 108.764C618.277 107.159 617.012 105.847 615.408 105.822C613.803 105.798 612.49 107.062 612.442 108.667C612.417 110.32 613.73 111.657 615.359 111.657C616.988 111.657 618.277 110.369 618.277 108.764Z" fill="#E6EAFA"/>
<path d="M559.535 100.035C563.377 99.9137 566.829 102.54 567.972 106.478C569.042 110.101 567.34 114.331 564.106 116.228C563.182 116.763 562.185 117.127 561.14 117.395C561.505 117.881 562.064 117.735 562.501 117.857C567.631 119.218 571.205 123.838 571.205 129.138C571.205 130.184 571.23 131.205 571.205 132.25C571.157 133.758 569.99 134.998 568.482 134.998C565.492 135.022 562.526 134.998 559.535 134.973C559.535 123.327 559.535 111.681 559.535 100.035Z" fill="#7690FD"/>
<path d="M559.536 100.036C559.536 111.682 559.536 123.328 559.536 134.974C556.594 134.974 553.628 135.023 550.686 134.998C549.178 134.974 547.987 133.88 547.89 132.397C547.671 128.944 548.036 125.589 550.078 122.647C551.853 120.094 554.187 118.368 557.275 117.736C557.42 117.712 557.591 117.663 558.004 117.566C552.047 115.329 549.397 111.39 551.561 105.336C552.825 101.835 555.792 100.158 559.536 100.036Z" fill="#5D77E5"/>
<path d="M612.442 99.9628C603.13 99.7197 596.225 95.4892 591.727 87.3686C589.904 84.062 589.174 80.415 589.053 76.6465C589.174 72.9266 589.879 69.3039 591.679 66.0216C596.176 57.8524 603.081 53.5976 612.418 53.3545C612.418 60.6728 612.418 67.991 612.442 75.3093C612.418 75.3579 612.418 75.4308 612.418 75.4795C611.64 76.2575 610.813 76.9869 610.059 77.7892C609.597 78.2755 609.33 78.2268 608.917 77.7649C607.871 76.6951 606.801 75.6497 605.732 74.6285C604.954 73.8748 604.054 73.5344 602.984 73.8262C600.723 74.4097 600.018 76.9869 601.671 78.7374C603.227 80.3664 604.856 81.9468 606.461 83.5514C608.941 86.0314 609.743 86.0557 612.369 83.7459C612.418 89.1678 612.442 94.5653 612.442 99.9628Z" fill="#3DC290"/>
<path d="M612.441 99.9628C612.417 94.5653 612.417 89.1678 612.393 83.7703C612.393 83.7217 612.417 83.673 612.417 83.6487C616.161 80.099 619.759 76.4277 623.358 72.7564C624.282 71.8082 624.355 70.5196 623.722 69.4255C622.701 67.6263 620.537 67.3832 618.957 68.9149C616.769 71.0302 614.605 73.1697 612.441 75.3093C612.441 67.991 612.441 60.6728 612.417 53.3545C618.155 53.2816 623.188 55.2266 627.54 58.8736C631.649 62.3261 634.274 66.7268 635.296 71.9784C636.73 79.4182 634.955 86.1287 630.068 91.9881C629.995 92.0611 629.947 92.134 629.898 92.2313C627.613 94.6383 625.035 96.6563 621.972 97.9935C618.957 99.2821 615.796 100.084 612.441 99.9628Z" fill="url(#paint2_linear_66_642)"/>
<path d="M603.64 123.328C599.823 123.328 596.005 123.328 592.188 123.328C591.046 123.328 590.122 122.915 589.514 121.869C588.906 120.8 588.979 119.778 589.635 118.757C590.17 117.931 590.973 117.517 591.921 117.517C599.75 117.493 607.603 117.493 615.432 117.517C617.036 117.517 618.301 118.927 618.276 120.483C618.252 122.064 616.963 123.328 615.31 123.328C611.42 123.352 607.53 123.328 603.64 123.328Z" fill="#5D77E5"/>
<path d="M603.688 129.163C607.481 129.163 611.274 129.163 615.067 129.163C616.963 129.163 618.276 130.33 618.3 132.056C618.325 133.807 617.012 134.998 615.042 134.998C607.432 134.998 599.822 134.998 592.212 134.998C591.069 134.998 590.146 134.585 589.538 133.539C588.906 132.47 588.979 131.424 589.659 130.427C590.267 129.503 591.167 129.163 592.237 129.163C596.054 129.163 599.871 129.163 603.688 129.163Z" fill="#5D77E5"/>
<path d="M592.068 111.657C590.463 111.682 589.151 110.417 589.102 108.813C589.078 107.159 590.366 105.822 592.019 105.822C593.624 105.822 594.913 107.111 594.937 108.716C594.961 110.32 593.673 111.633 592.068 111.657Z" fill="#5D77E5"/>
<path d="M603.712 105.822C605.316 105.847 606.605 107.135 606.605 108.74C606.605 110.393 605.268 111.682 603.615 111.657C602.01 111.609 600.746 110.296 600.77 108.691C600.794 107.087 602.107 105.822 603.712 105.822Z" fill="#5D77E5"/>
<path d="M618.276 108.765C618.276 110.369 616.963 111.658 615.358 111.658C613.705 111.658 612.392 110.321 612.441 108.667C612.465 107.063 613.778 105.798 615.407 105.823C617.012 105.847 618.3 107.16 618.276 108.765Z" fill="#5D77E5"/>
<path d="M612.466 75.285C614.63 73.1454 616.793 71.0059 618.982 68.8906C620.562 67.3589 622.726 67.602 623.747 69.4012C624.379 70.4953 624.306 71.7839 623.382 72.7321C619.784 76.4034 616.186 80.099 612.441 83.6244C612.441 80.9013 612.441 78.1782 612.441 75.4795C612.441 75.4065 612.441 75.3579 612.466 75.285Z" fill="url(#paint3_linear_66_642)"/>
<path d="M612.442 75.4796C612.442 78.2027 612.442 80.9258 612.442 83.6245C612.418 83.6731 612.418 83.7218 612.418 83.7461C609.792 86.0558 608.989 86.0315 606.51 83.5516C604.905 81.9469 603.276 80.3665 601.72 78.7376C600.067 77.0113 600.772 74.4341 603.033 73.8263C604.103 73.5345 605.002 73.8992 605.78 74.6286C606.85 75.6741 607.92 76.6953 608.965 77.765C609.403 78.2027 609.67 78.2756 610.108 77.7894C610.837 76.987 611.664 76.2333 612.442 75.4796Z" fill="url(#paint4_linear_66_642)"/>
<circle cx="1069.5" cy="99.499" r="99.5" fill="white"/>
<path d="M1114.33 125.052C1113.06 128.534 1111.03 131.574 1108.59 134.329C1103.52 139.968 1097.26 143.659 1089.77 144.828C1077.59 146.725 1067.27 143.009 1059.08 133.705C1055.58 129.703 1053.37 125.026 1052.12 119.88C1051.7 117.723 1051.37 115.566 1051.34 113.357C1051.24 109.511 1051.86 105.769 1053 102.105C1053.91 99.5837 1055.11 97.1929 1056.46 94.854C1058.1 92.5671 1059.84 90.3841 1061.92 88.4611C1063.14 87.3176 1064.54 86.3821 1065.81 85.2906C1065.89 85.2386 1065.94 85.1607 1066.02 85.1087C1067.14 84.7189 1068 83.8613 1069.14 83.5234C1069.14 84.0172 1068.91 84.459 1068.75 84.9008C1067.92 87.2397 1067.4 89.6305 1067.19 92.0993C1067.19 92.1773 1067.19 92.2293 1067.19 92.3072C1064.49 94.2563 1062.57 96.855 1060.95 99.7397C1057.94 105.171 1056.95 110.966 1058.02 117.073C1059.32 124.48 1063.11 130.327 1069.3 134.511C1075.07 138.409 1081.48 139.864 1088.42 138.695C1095.83 137.448 1101.65 133.705 1105.94 127.572C1106.07 127.442 1106.2 127.312 1106.33 127.156C1106.56 127.442 1106.82 127.338 1107.13 127.26C1109.32 126.819 1111.42 126.065 1113.42 125.103C1113.68 124.974 1114 124.636 1114.33 125.052Z" fill="url(#paint5_linear_66_642)"/>
<path d="M1114.33 125.051C1114 124.61 1113.68 124.973 1113.4 125.103C1111.4 126.091 1109.29 126.819 1107.11 127.26C1106.82 127.312 1106.54 127.442 1106.3 127.156C1106.38 126.975 1106.43 126.793 1106.54 126.637C1108.95 122.816 1110.28 118.633 1110.57 114.137C1110.8 110.368 1110.23 106.678 1108.85 103.118C1107.11 98.6221 1104.41 94.75 1100.59 91.8134C1094.97 87.4735 1088.61 85.4984 1081.46 86.2261C1078.26 86.5639 1075.27 87.4475 1072.39 88.7988C1070.49 89.6824 1068.86 90.9558 1067.14 92.0993C1067.35 89.6304 1067.87 87.2396 1068.7 84.9007C1068.86 84.4589 1069.09 84.0171 1069.09 83.5234C1069.38 83.3415 1069.64 83.1336 1069.92 82.9517C1070.05 82.9257 1070.18 82.9257 1070.29 82.8737C1074.29 80.9766 1078.52 80.093 1082.89 79.8072C1085.05 79.7812 1087.2 79.9631 1089.36 80.197C1092.19 80.7947 1094.97 81.4964 1097.6 82.7438C1107.68 87.5774 1113.94 95.4517 1116.21 106.418C1117.5 112.707 1116.75 118.866 1114.44 124.818C1114.46 124.895 1114.39 124.973 1114.33 125.051Z" fill="url(#paint6_linear_66_642)"/>
<path d="M1051.34 113.357C1051.37 115.565 1051.7 117.722 1052.12 119.879C1043.86 118.502 1037.12 114.448 1031.93 107.925C1026.7 101.402 1024.31 93.8399 1024.94 85.5239C1025.79 74.0894 1031.28 65.3576 1041.05 59.3544C1041.54 59.0426 1042.09 58.8087 1042.61 58.5488C1042.66 58.8867 1042.48 59.1725 1042.37 59.4584C1041.52 61.9532 1040.87 64.5 1040.66 67.1247C1040.58 67.2547 1040.53 67.3586 1040.45 67.4885C1037.75 69.5156 1035.83 72.1923 1034.24 75.1289C1031.62 79.9626 1030.68 85.1341 1031.28 90.6174C1031.64 93.8399 1032.55 96.9064 1034.01 99.7651C1036.27 104.157 1039.54 107.665 1043.75 110.238C1046.12 111.719 1048.59 112.863 1051.34 113.357Z" fill="#3DC290"/>
<path d="M1040.66 67.1512C1040.87 64.5004 1041.52 61.9796 1042.38 59.4848C1042.48 59.173 1042.66 58.9131 1042.61 58.5753C1045.34 57.042 1048.3 56.1065 1051.34 55.4828C1054.02 54.937 1056.72 54.7291 1059.45 54.911C1066.1 55.3528 1072.16 57.5098 1077.46 61.5898C1083.38 66.1376 1087.33 72.0368 1089.28 79.2613C1089.36 79.5732 1089.39 79.911 1089.41 80.2229C1087.26 79.989 1085.1 79.8071 1082.94 79.8331C1081.41 74.9474 1078.76 70.7634 1074.81 67.515C1066.88 61.0181 1058.02 59.5368 1048.35 62.8632C1045.49 63.7728 1043.05 65.41 1040.66 67.1512Z" fill="url(#paint7_linear_66_642)"/>
<path d="M1047.88 137.265C1048.59 137.577 1048.98 138.279 1049.55 138.747C1049.94 139.085 1049.68 139.293 1049.44 139.526C1047.55 141.398 1045.68 143.295 1043.57 145.374C1043.57 144.386 1043.54 143.632 1043.57 142.879C1043.6 142.333 1043.41 142.151 1042.87 142.151C1041.08 142.177 1039.31 142.177 1037.52 142.151C1032.06 142.125 1028 138.071 1027.98 132.614C1027.98 130.873 1027.95 129.105 1028 127.364C1028.03 126.715 1027.8 126.507 1027.17 126.559C1026.47 126.611 1025.77 126.559 1024.78 126.559C1026.21 125.129 1027.48 123.882 1028.73 122.635C1029.02 122.349 1029.28 122.089 1029.56 121.803C1031.28 120.088 1031.56 120.114 1032.92 122.245C1031.67 123.388 1031.17 124.869 1031.12 126.481C1031.07 128.508 1031.1 130.561 1031.1 132.614C1031.1 136.252 1033.85 139.007 1037.49 139.007C1039.49 139.007 1041.52 139.033 1043.52 139.007C1045.21 139.033 1046.69 138.487 1047.88 137.265Z" fill="#5D77E5"/>
<path d="M1112.2 76.7142C1111.32 77.6237 1110.41 78.5073 1109.53 79.4169C1109.24 79.7027 1109.03 79.8587 1108.67 79.4948C1106.77 77.5718 1104.87 75.6747 1102.77 73.5957C1103.7 73.5957 1104.43 73.5697 1105.16 73.5957C1105.73 73.6216 1105.97 73.4917 1105.97 72.842C1105.91 71.0229 1105.99 69.2038 1105.94 67.3846C1105.91 65.5655 1104.59 64.2661 1102.77 64.2402C1100.95 64.2142 1099.13 64.2661 1097.31 64.2142C1096.66 64.1882 1096.56 64.474 1096.58 65.0198C1096.61 65.7214 1096.58 66.4231 1096.58 67.4626C1095.83 66.683 1095.26 66.0853 1094.69 65.4876C1093.39 64.1622 1092.09 62.8628 1090.76 61.5634C1090.4 61.1996 1090.4 60.9917 1090.76 60.6279C1091.67 59.7703 1092.56 58.8607 1093.47 57.9512C1093.8 57.9512 1093.88 58.211 1093.99 58.4449C1094.95 60.316 1096.53 61.0957 1098.59 61.0957C1100.51 61.0697 1102.41 61.0957 1104.33 61.0957C1107.06 61.1216 1109.03 63.0967 1109.06 65.8254C1109.06 67.8784 1109.03 69.9054 1109.06 71.9584C1109.08 73.7776 1109.92 75.1809 1111.53 76.0905C1111.79 76.2464 1112.18 76.2724 1112.2 76.7142Z" fill="#5D77E5"/>
<path d="M1112.2 76.7146C1112.18 76.2988 1111.81 76.2469 1111.53 76.0909C1109.92 75.1814 1109.11 73.778 1109.06 71.9589C1109.01 69.9059 1109.06 67.8789 1109.06 65.8259C1109.03 63.0972 1107.06 61.1221 1104.33 61.0961C1102.41 61.0961 1100.51 61.0701 1098.59 61.0961C1096.53 61.1221 1094.95 60.3165 1093.99 58.4454C1093.86 58.2115 1093.78 57.9516 1093.47 57.9516C1094.27 57.12 1095.1 56.2884 1095.94 55.4568C1096.09 55.3009 1096.22 55.041 1096.48 55.171C1096.69 55.2749 1096.59 55.5088 1096.61 55.6907C1096.61 55.7167 1096.61 55.7427 1096.61 55.7947C1096.69 57.9776 1096.69 57.9257 1098.9 57.9776C1100.8 58.0036 1102.72 57.7957 1104.62 58.1595C1108.77 58.9132 1112.15 62.8633 1112.18 67.0733C1112.18 68.9184 1112.2 70.7635 1112.18 72.6346C1112.15 73.3363 1112.36 73.6221 1113.09 73.5961C1113.71 73.5702 1114.75 73.3103 1114.91 73.7261C1115.11 74.3238 1114.18 74.7136 1113.74 75.2074C1113.24 75.7531 1112.7 76.2209 1112.2 76.7146Z" fill="#7690FD"/>
<path d="M1047.88 137.266C1046.69 138.513 1045.21 139.033 1043.54 139.059C1041.54 139.085 1039.52 139.059 1037.52 139.059C1033.88 139.059 1031.15 136.304 1031.12 132.666C1031.12 130.613 1031.07 128.586 1031.15 126.533C1031.2 124.922 1031.69 123.44 1032.94 122.297C1034.55 123.44 1035.75 125 1037.18 126.325C1037.15 126.403 1037.13 126.507 1037.07 126.585C1036.37 126.585 1035.67 126.611 1034.99 126.585C1034.47 126.559 1034.24 126.715 1034.24 127.286C1034.27 129.21 1034.21 131.107 1034.27 133.03C1034.29 134.537 1035.67 135.888 1037.15 135.914C1039.07 135.966 1040.97 135.914 1042.89 135.94C1043.47 135.94 1043.62 135.706 1043.6 135.187C1043.57 134.511 1043.6 133.835 1043.73 133.056C1045.16 134.407 1046.71 135.628 1047.88 137.266Z" fill="#7690FD"/>
<path d="M1067.17 92.0991C1068.88 90.9296 1070.52 89.6822 1072.42 88.7987C1075.3 87.4473 1078.29 86.5637 1081.49 86.2259C1088.66 85.4982 1095 87.4733 1100.61 91.8132C1104.43 94.7498 1107.13 98.596 1108.88 103.118C1110.25 106.678 1110.83 110.368 1110.59 114.137C1110.31 118.632 1108.98 122.816 1106.56 126.637C1106.46 126.792 1106.41 126.974 1106.33 127.156C1106.2 127.286 1106.07 127.416 1105.94 127.572C1102.64 128.144 1099.31 128.352 1095.96 127.936C1095 127.806 1093.99 127.78 1093.08 127.364C1093.34 126.87 1093.86 126.688 1094.27 126.403C1095.05 125.831 1095.26 124.973 1094.79 124.194C1094.32 123.466 1093.39 123.232 1092.58 123.752C1091.36 124.532 1090.19 125.389 1089 126.221C1088.87 126.273 1088.74 126.351 1088.61 126.403C1088.37 126.117 1088.03 126.013 1087.7 125.883C1085.31 124.921 1083.04 123.674 1080.91 122.219C1079.8 121.465 1078.89 120.451 1077.69 119.776C1077.69 119.724 1077.69 119.646 1077.69 119.594C1077.92 119.256 1077.9 118.866 1077.9 118.476C1077.9 114.552 1077.9 110.628 1077.9 106.704C1077.9 105.457 1077.35 104.781 1076.34 104.781C1075.33 104.781 1074.78 105.457 1074.78 106.678C1074.78 108.367 1074.78 110.082 1074.78 111.772C1073.66 109.953 1072.73 108.081 1071.79 106.21C1070.91 104.469 1070.05 104.287 1068.57 105.561C1067.24 101.221 1066.62 96.8288 1067.17 92.307C1067.17 92.229 1067.17 92.151 1067.17 92.0991ZM1080.99 112.577C1080.99 114.578 1080.99 116.605 1080.99 118.606C1080.99 119.698 1081.56 120.348 1082.52 120.348C1083.51 120.374 1084.11 119.724 1084.11 118.554C1084.11 117.411 1084.16 116.267 1084.11 115.15C1084.06 114.37 1084.27 114.007 1085.12 114.085C1085.85 114.162 1086.6 114.137 1087.36 114.085C1088.22 114.033 1088.79 113.383 1088.81 112.551C1088.81 111.72 1088.24 111.07 1087.41 110.992C1087.1 110.966 1086.76 110.992 1086.45 110.992C1084.06 110.992 1084.06 110.992 1084.14 108.627C1084.16 108.003 1084.4 107.874 1084.97 107.874C1086.16 107.899 1087.36 107.899 1088.58 107.874C1089.75 107.874 1090.4 107.302 1090.4 106.34C1090.4 105.353 1089.75 104.781 1088.61 104.781C1086.68 104.781 1084.79 104.781 1082.86 104.781C1081.59 104.781 1081.07 105.327 1081.07 106.652C1080.99 108.601 1080.99 110.576 1080.99 112.577ZM1095.02 99.9473C1094.97 99.4535 1094.69 99.0118 1094.14 98.6739C1091.18 96.7249 1088.19 94.7498 1085.25 92.7488C1084.45 92.203 1083.75 92.203 1082.94 92.7488C1080.03 94.7238 1077.07 96.6729 1074.13 98.6219C1073.14 99.2976 1072.88 100.181 1073.46 100.987C1073.97 101.766 1074.88 101.844 1075.85 101.221C1077.95 99.8174 1080.06 98.44 1082.16 97.0367C1084.11 95.7373 1084.08 95.7373 1086.03 97.0367C1088.16 98.466 1090.3 99.8693 1092.43 101.299C1093.02 101.688 1093.62 101.792 1094.25 101.455C1094.79 101.143 1095.02 100.675 1095.02 99.9473ZM1096.58 113.669C1096.58 115.254 1096.58 116.839 1096.58 118.424C1096.58 119.672 1097.13 120.322 1098.14 120.322C1099.16 120.322 1099.7 119.646 1099.7 118.398C1099.7 115.514 1099.7 112.629 1099.7 109.745C1099.7 108.029 1099.7 108.029 1101.39 107.848C1102.25 107.744 1102.82 107.12 1102.82 106.288C1102.82 105.457 1102.25 104.755 1101.39 104.755C1099.21 104.729 1097.05 104.703 1094.87 104.755C1094.01 104.781 1093.44 105.483 1093.47 106.314C1093.47 107.146 1094.04 107.77 1094.89 107.848C1095.18 107.874 1095.49 107.874 1095.78 107.848C1096.45 107.77 1096.61 108.081 1096.58 108.705C1096.56 110.368 1096.58 112.032 1096.58 113.669ZM1102.82 112.577C1102.85 113.461 1103.5 114.085 1104.35 114.111C1105.26 114.111 1105.94 113.435 1105.94 112.525C1105.91 111.642 1105.26 111.018 1104.41 110.992C1103.5 110.992 1102.82 111.668 1102.82 112.577Z" fill="#E6EAFA"/>
<path d="M1093.08 127.338C1093.99 127.754 1095 127.806 1095.96 127.91C1099.29 128.352 1102.61 128.118 1105.94 127.546C1101.63 133.679 1095.83 137.422 1088.42 138.669C1081.49 139.838 1075.07 138.409 1069.3 134.485C1063.11 130.301 1059.32 124.428 1058.02 117.047C1056.95 110.94 1057.94 105.119 1060.96 99.7137C1062.54 96.8551 1064.49 94.2303 1067.19 92.2812C1066.65 96.8031 1067.27 101.221 1068.6 105.535C1068.6 105.795 1068.6 106.029 1068.6 106.289C1068.6 110.317 1068.57 114.319 1068.57 118.347C1068.57 119.672 1069.09 120.348 1070.15 120.322C1071.19 120.296 1071.69 119.646 1071.69 118.295C1071.69 116.632 1071.69 114.968 1071.69 113.331C1072.81 115.202 1073.77 117.099 1074.73 119.022C1075.48 120.556 1076.34 120.738 1077.72 119.75C1078.91 120.426 1079.82 121.439 1080.94 122.193C1083.07 123.648 1085.31 124.896 1087.72 125.857C1088.03 125.987 1088.4 126.091 1088.63 126.377C1087.41 127.182 1086.16 127.936 1084.99 128.794C1084.37 129.262 1083.93 129.21 1083.3 128.768C1080.81 127.053 1078.31 125.389 1075.77 123.778C1074.86 123.18 1073.95 123.414 1073.46 124.168C1072.99 124.896 1073.14 125.857 1073.95 126.403C1077.02 128.456 1080.08 130.509 1083.17 132.536C1083.77 132.926 1084.4 132.978 1085.02 132.588C1087.62 130.899 1090.24 129.236 1092.74 127.39C1092.84 127.364 1092.95 127.364 1093.08 127.338ZM1062.28 112.474C1062.25 113.409 1062.9 114.085 1063.81 114.111C1064.7 114.137 1065.37 113.513 1065.4 112.629C1065.45 111.694 1064.78 111.018 1063.87 110.992C1062.98 110.992 1062.33 111.616 1062.28 112.474Z" fill="#E6EAFA"/>
<path d="M1040.66 67.1511C1043.05 65.41 1045.49 63.7727 1048.32 62.8112C1057.99 59.4848 1066.85 60.9921 1074.78 67.463C1078.76 70.7114 1081.38 74.8954 1082.91 79.7811C1078.52 80.0669 1074.29 80.9505 1070.31 82.8476C1070.21 82.8996 1070.05 82.8996 1069.92 82.9256C1069.84 82.7436 1069.79 82.5617 1069.66 82.4318C1065.84 77.6241 1061.99 72.8164 1058.15 68.0347C1058.02 67.8788 1057.97 67.385 1057.52 67.6709C1057.29 67.7228 1057.11 67.8788 1056.98 68.0607C1053.24 72.7644 1049.52 77.4682 1045.75 82.1459C1045.21 82.8216 1045.34 83.0555 1046.04 83.3933C1049.57 85.1345 1053.11 86.9276 1056.64 88.6948C1056.93 88.8507 1057.21 89.0066 1057.55 89.0066C1057.94 89.1106 1058.23 88.8507 1058.54 88.6948C1060.62 87.6553 1062.7 86.6158 1064.8 85.5763C1065.11 85.4204 1065.4 85.1605 1065.79 85.2904C1064.52 86.3819 1063.11 87.3174 1061.89 88.4609C1059.81 90.384 1058.07 92.5669 1056.43 94.8538C1056.23 94.542 1055.86 94.464 1055.55 94.3081C1052.53 92.7748 1049.52 91.2675 1046.48 89.7603C1046.4 89.7083 1046.35 89.6303 1046.27 89.5784C1046.38 89.1366 1046.06 88.8507 1045.86 88.5389C1044.69 86.8237 1043.75 84.9786 1042.95 83.0815C1041.02 78.4817 1040.29 73.674 1040.42 68.7104C1040.42 68.3206 1040.87 67.9307 1040.42 67.5409C1040.5 67.385 1040.58 67.2811 1040.66 67.1511Z" fill="#7690FD"/>
<path d="M1040.45 67.5146C1040.89 67.9045 1040.48 68.2943 1040.45 68.6841C1040.32 73.6477 1041.02 78.4554 1042.97 83.0552C1043.78 84.9783 1044.71 86.7974 1045.88 88.5126C1046.09 88.8244 1046.4 89.1103 1046.3 89.5521C1045.99 89.4741 1045.65 89.3961 1045.34 89.3442C1045.31 89.3182 1045.26 89.2922 1045.23 89.2662C1045.26 89.2922 1045.29 89.3442 1045.31 89.3702C1045.34 89.734 1045.57 90.0198 1045.75 90.3057C1048.17 94.2298 1050.56 98.1539 1052.98 102.078C1051.86 105.742 1051.24 109.484 1051.31 113.331C1048.56 112.837 1046.06 111.693 1043.73 110.238C1039.52 107.639 1036.24 104.157 1033.98 99.7652C1032.5 96.9065 1031.59 93.84 1031.25 90.6176C1030.65 85.1342 1031.59 79.9627 1034.21 75.129C1035.83 72.2184 1037.75 69.5417 1040.45 67.5146ZM1040.45 87.629C1040.45 86.7714 1039.83 86.0957 1038.97 86.0438C1038.06 86.0178 1037.36 86.6675 1037.33 87.577C1037.33 88.4866 1038.01 89.1623 1038.92 89.1623C1039.8 89.1623 1040.45 88.4866 1040.45 87.629Z" fill="#5D77E5"/>
<path d="M1065.81 85.2644C1065.43 85.1344 1065.14 85.4203 1064.83 85.5502C1062.75 86.5897 1060.67 87.6292 1058.56 88.6687C1058.25 88.8247 1057.97 89.0845 1057.58 88.9806C1057.6 88.6687 1057.6 88.3309 1057.6 88.019C1057.6 81.6001 1057.6 75.1812 1057.6 68.7623C1057.6 68.3984 1057.55 68.0606 1057.55 67.6968C1057.99 67.4109 1058.04 67.8787 1058.17 68.0606C1062.02 72.8423 1065.87 77.65 1069.69 82.4577C1069.79 82.6136 1069.87 82.7955 1069.95 82.9515C1069.66 83.1334 1069.4 83.3413 1069.12 83.5232C1067.97 83.835 1067.11 84.7186 1066 85.1084C1065.87 85.0825 1065.76 85.1084 1065.81 85.2644Z" fill="url(#paint8_linear_66_642)"/>
<path d="M1053 102.104C1050.59 98.1799 1048.2 94.2558 1045.78 90.3317C1045.6 90.0198 1045.36 89.7599 1045.34 89.3961L1045.36 89.3701C1045.68 89.4481 1046.01 89.526 1046.33 89.578C1046.4 89.63 1046.46 89.708 1046.53 89.7599C1049.55 91.2672 1052.59 92.7745 1055.6 94.3078C1055.91 94.4637 1056.28 94.5416 1056.49 94.8535C1055.11 97.1664 1053.91 99.5572 1053 102.104Z" fill="#3DC290"/>
<path d="M1065.79 85.2909C1065.76 85.135 1065.87 85.109 1066 85.083C1065.95 85.161 1065.87 85.2129 1065.79 85.2909Z" fill="#01B4D7"/>
<path d="M1080.99 112.577C1080.99 110.602 1080.99 108.627 1080.99 106.626C1080.99 105.327 1081.54 104.781 1082.79 104.755C1084.71 104.755 1086.61 104.755 1088.53 104.755C1089.67 104.755 1090.35 105.353 1090.32 106.314C1090.32 107.302 1089.65 107.847 1088.5 107.847C1087.31 107.847 1086.11 107.873 1084.89 107.847C1084.34 107.821 1084.08 107.977 1084.06 108.601C1083.98 110.966 1083.95 110.966 1086.37 110.966C1086.68 110.966 1087.02 110.94 1087.33 110.966C1088.19 111.044 1088.76 111.694 1088.74 112.525C1088.74 113.357 1088.16 114.006 1087.28 114.058C1086.53 114.11 1085.77 114.136 1085.05 114.058C1084.19 113.98 1084.01 114.344 1084.03 115.124C1084.08 116.267 1084.06 117.385 1084.03 118.528C1084.03 119.672 1083.43 120.321 1082.45 120.321C1081.51 120.295 1080.94 119.672 1080.91 118.58C1080.99 116.579 1080.99 114.578 1080.99 112.577Z" fill="#5D77E5"/>
<path d="M1095.03 99.9477C1095.03 100.675 1094.77 101.143 1094.25 101.455C1093.62 101.819 1093.03 101.715 1092.43 101.299C1090.3 99.8697 1088.17 98.4664 1086.04 97.0371C1084.09 95.7377 1084.11 95.7377 1082.16 97.0371C1080.06 98.4404 1077.95 99.8437 1075.85 101.221C1074.89 101.845 1073.98 101.767 1073.46 100.987C1072.91 100.182 1073.15 99.272 1074.13 98.6223C1077.07 96.6733 1080.01 94.7242 1082.94 92.7491C1083.75 92.2034 1084.45 92.2034 1085.26 92.7491C1088.19 94.7502 1091.16 96.7252 1094.14 98.6743C1094.69 99.0121 1095 99.4279 1095.03 99.9477Z" fill="#5D77E5"/>
<path d="M1068.54 106.314C1068.54 106.054 1068.54 105.82 1068.54 105.561C1070.03 104.287 1070.88 104.469 1071.77 106.21C1072.7 108.081 1073.64 109.952 1074.76 111.772C1074.76 110.082 1074.76 108.367 1074.76 106.678C1074.76 105.431 1075.3 104.781 1076.32 104.781C1077.33 104.781 1077.87 105.457 1077.87 106.704C1077.87 110.628 1077.87 114.552 1077.87 118.476C1077.87 118.866 1077.9 119.256 1077.67 119.594C1076.52 118.632 1075.51 117.541 1074.55 116.397C1072.62 114.084 1071.07 111.59 1069.82 108.861C1069.45 107.977 1069.32 106.99 1068.54 106.314Z" fill="#5D77E5"/>
<path d="M1092.71 127.39C1090.22 129.261 1087.59 130.898 1084.99 132.588C1084.4 132.977 1083.75 132.925 1083.15 132.536C1080.06 130.509 1076.99 128.482 1073.92 126.403C1073.12 125.857 1072.96 124.921 1073.43 124.168C1073.92 123.414 1074.83 123.18 1075.74 123.778C1078.26 125.415 1080.78 127.078 1083.28 128.767C1083.9 129.183 1084.32 129.261 1084.97 128.793C1086.14 127.936 1087.39 127.182 1088.61 126.377C1088.74 126.325 1088.87 126.247 1089 126.195C1090.11 126.948 1091.47 127 1092.71 127.39Z" fill="#5D77E5"/>
<path d="M1096.59 113.669C1096.59 112.005 1096.56 110.368 1096.59 108.705C1096.59 108.081 1096.43 107.769 1095.78 107.847C1095.49 107.873 1095.18 107.873 1094.9 107.847C1094.04 107.769 1093.47 107.146 1093.47 106.314C1093.47 105.482 1094.01 104.781 1094.87 104.755C1097.05 104.703 1099.21 104.703 1101.39 104.755C1102.25 104.781 1102.82 105.456 1102.82 106.288C1102.82 107.12 1102.25 107.743 1101.39 107.847C1099.7 108.029 1099.7 108.029 1099.7 109.744C1099.7 112.629 1099.7 115.514 1099.7 118.398C1099.7 119.646 1099.16 120.321 1098.14 120.321C1097.13 120.321 1096.59 119.646 1096.59 118.424C1096.59 116.865 1096.59 115.28 1096.59 113.669Z" fill="#5D77E5"/>
<path d="M1068.54 106.314C1069.32 106.99 1069.45 107.978 1069.84 108.835C1071.09 111.564 1072.65 114.059 1074.57 116.372C1075.54 117.515 1076.55 118.607 1077.69 119.568C1077.69 119.62 1077.69 119.698 1077.69 119.75C1076.32 120.763 1075.46 120.556 1074.7 119.022C1073.74 117.125 1072.81 115.202 1071.66 113.331C1071.66 114.994 1071.66 116.657 1071.66 118.295C1071.66 119.646 1071.17 120.296 1070.13 120.322C1069.09 120.348 1068.54 119.672 1068.54 118.347C1068.54 114.345 1068.54 110.343 1068.54 106.314Z" fill="#5D77E5"/>
<path d="M1092.71 127.39C1091.46 127.026 1090.11 126.974 1089 126.195C1090.19 125.363 1091.39 124.531 1092.58 123.726C1093.39 123.206 1094.32 123.44 1094.79 124.168C1095.26 124.921 1095.05 125.779 1094.27 126.377C1093.86 126.688 1093.34 126.844 1093.08 127.338C1092.95 127.364 1092.84 127.364 1092.71 127.39Z" fill="#5D77E5"/>
<path d="M1102.82 112.577C1102.8 111.668 1103.5 110.992 1104.41 110.992C1105.29 110.992 1105.94 111.642 1105.94 112.525C1105.97 113.435 1105.27 114.111 1104.36 114.111C1103.5 114.111 1102.85 113.461 1102.82 112.577Z" fill="#5D77E5"/>
<path d="M1062.28 112.473C1062.31 111.59 1062.98 110.966 1063.87 110.992C1064.78 111.018 1065.43 111.694 1065.4 112.629C1065.37 113.513 1064.7 114.136 1063.82 114.11C1062.91 114.11 1062.26 113.409 1062.28 112.473Z" fill="#5D77E5"/>
<path d="M1057.55 67.6973C1057.58 68.0611 1057.6 68.3989 1057.6 68.7628C1057.6 75.1817 1057.6 81.6006 1057.6 88.0195C1057.6 88.3314 1057.58 88.6692 1057.58 88.9811C1057.24 88.9811 1056.95 88.8251 1056.67 88.6692C1053.13 86.9021 1049.6 85.1089 1046.07 83.3677C1045.36 83.0299 1045.23 82.796 1045.78 82.1203C1049.55 77.4426 1053.26 72.7388 1057.01 68.0351C1057.14 67.9052 1057.32 67.7492 1057.55 67.6973Z" fill="#3DC290"/>
<path d="M1046.51 89.7601C1046.43 89.7081 1046.38 89.6301 1046.3 89.5781C1046.38 89.6301 1046.43 89.6821 1046.51 89.7601Z" fill="#0096C6"/>
<path d="M1040.45 87.629C1040.45 88.4865 1039.77 89.1622 1038.92 89.1622C1038.01 89.1882 1037.33 88.4865 1037.33 87.577C1037.33 86.6674 1038.06 86.0177 1038.97 86.0437C1039.83 86.0957 1040.48 86.7714 1040.45 87.629Z" fill="#3DC290"/>
<path d="M1045.34 89.3705C1045.31 89.3446 1045.29 89.2926 1045.26 89.2666C1045.29 89.2926 1045.31 89.3186 1045.34 89.3705C1045.34 89.3705 1045.34 89.3446 1045.34 89.3705Z" fill="#48C9E3"/>
<path d="M993.865 253.342C992.601 253.342 991.377 253.15 990.193 252.766C989.025 252.366 988.105 251.854 987.433 251.23L988.321 249.358C988.961 249.934 989.777 250.406 990.769 250.774C991.777 251.126 992.809 251.302 993.865 251.302C995.257 251.302 996.297 251.07 996.985 250.606C997.673 250.126 998.017 249.494 998.017 248.71C998.017 248.134 997.825 247.67 997.441 247.318C997.073 246.95 996.609 246.67 996.049 246.478C995.505 246.286 994.729 246.07 993.721 245.83C992.457 245.526 991.433 245.222 990.649 244.918C989.881 244.614 989.217 244.15 988.657 243.526C988.113 242.886 987.841 242.03 987.841 240.958C987.841 240.062 988.073 239.254 988.537 238.534C989.017 237.814 989.737 237.238 990.697 236.806C991.657 236.374 992.849 236.158 994.273 236.158C995.265 236.158 996.241 236.286 997.201 236.542C998.161 236.798 998.985 237.166 999.673 237.646L998.881 239.566C998.177 239.118 997.425 238.782 996.625 238.558C995.825 238.318 995.041 238.198 994.273 238.198C992.913 238.198 991.889 238.446 991.201 238.942C990.529 239.438 990.193 240.078 990.193 240.862C990.193 241.438 990.385 241.91 990.769 242.278C991.153 242.63 991.625 242.91 992.185 243.118C992.761 243.31 993.537 243.518 994.513 243.742C995.777 244.046 996.793 244.35 997.561 244.654C998.329 244.958 998.985 245.422 999.529 246.046C1000.09 246.67 1000.37 247.51 1000.37 248.566C1000.37 249.446 1000.13 250.254 999.649 250.99C999.169 251.71 998.441 252.286 997.465 252.718C996.489 253.134 995.289 253.342 993.865 253.342ZM1010.69 252.406C1010.36 252.694 1009.94 252.918 1009.44 253.078C1008.95 253.222 1008.44 253.294 1007.91 253.294C1006.63 253.294 1005.64 252.95 1004.93 252.262C1004.23 251.574 1003.88 250.59 1003.88 249.31V242.326H1001.72V240.43H1003.88V237.646H1006.18V240.43H1009.83V242.326H1006.18V249.214C1006.18 249.902 1006.35 250.43 1006.68 250.798C1007.04 251.166 1007.53 251.35 1008.17 251.35C1008.88 251.35 1009.48 251.15 1009.97 250.75L1010.69 252.406ZM1018.11 240.31C1019.87 240.31 1021.21 240.742 1022.14 241.606C1023.08 242.47 1023.56 243.758 1023.56 245.47V253.15H1021.37V251.47C1020.99 252.062 1020.44 252.518 1019.72 252.838C1019.01 253.142 1018.17 253.294 1017.2 253.294C1015.77 253.294 1014.63 252.95 1013.76 252.262C1012.92 251.574 1012.49 250.67 1012.49 249.55C1012.49 248.43 1012.9 247.534 1013.72 246.862C1014.53 246.174 1015.83 245.83 1017.6 245.83H1021.25V245.374C1021.25 244.382 1020.96 243.622 1020.39 243.094C1019.81 242.566 1018.96 242.302 1017.84 242.302C1017.09 242.302 1016.36 242.43 1015.64 242.686C1014.92 242.926 1014.31 243.254 1013.81 243.67L1012.85 241.942C1013.51 241.414 1014.29 241.014 1015.2 240.742C1016.12 240.454 1017.08 240.31 1018.11 240.31ZM1017.58 251.518C1018.46 251.518 1019.22 251.326 1019.86 250.942C1020.5 250.542 1020.96 249.982 1021.25 249.262V247.486H1017.7C1015.75 247.486 1014.77 248.142 1014.77 249.454C1014.77 250.094 1015.02 250.598 1015.52 250.966C1016.01 251.334 1016.7 251.518 1017.58 251.518ZM1030.03 242.566C1030.43 241.83 1031.02 241.27 1031.8 240.886C1032.59 240.502 1033.54 240.31 1034.66 240.31V242.542C1034.53 242.526 1034.36 242.518 1034.13 242.518C1032.88 242.518 1031.9 242.894 1031.18 243.646C1030.48 244.382 1030.12 245.438 1030.12 246.814V253.15H1027.82V240.43H1030.03V242.566ZM1045.17 252.406C1044.83 252.694 1044.42 252.918 1043.92 253.078C1043.42 253.222 1042.91 253.294 1042.38 253.294C1041.1 253.294 1040.11 252.95 1039.41 252.262C1038.7 251.574 1038.35 250.59 1038.35 249.31V242.326H1036.19V240.43H1038.35V237.646H1040.66V240.43H1044.3V242.326H1040.66V249.214C1040.66 249.902 1040.82 250.43 1041.16 250.798C1041.51 251.166 1042.01 251.35 1042.65 251.35C1043.35 251.35 1043.95 251.15 1044.45 250.75L1045.17 252.406ZM1058.07 238.438H1052.31V236.35H1066.21V238.438H1060.45V253.15H1058.07V238.438ZM1070.39 242.566C1070.79 241.83 1071.38 241.27 1072.16 240.886C1072.95 240.502 1073.9 240.31 1075.02 240.31V242.542C1074.89 242.526 1074.72 242.518 1074.49 242.518C1073.24 242.518 1072.26 242.894 1071.54 243.646C1070.84 244.382 1070.48 245.438 1070.48 246.814V253.15H1068.18V240.43H1070.39V242.566ZM1082.47 240.31C1084.23 240.31 1085.57 240.742 1086.5 241.606C1087.44 242.47 1087.92 243.758 1087.92 245.47V253.15H1085.73V251.47C1085.35 252.062 1084.8 252.518 1084.08 252.838C1083.37 253.142 1082.53 253.294 1081.56 253.294C1080.13 253.294 1078.99 252.95 1078.12 252.262C1077.28 251.574 1076.85 250.67 1076.85 249.55C1076.85 248.43 1077.26 247.534 1078.08 246.862C1078.89 246.174 1080.19 245.83 1081.96 245.83H1085.61V245.374C1085.61 244.382 1085.32 243.622 1084.75 243.094C1084.17 242.566 1083.32 242.302 1082.2 242.302C1081.45 242.302 1080.72 242.43 1080 242.686C1079.28 242.926 1078.67 243.254 1078.17 243.67L1077.21 241.942C1077.87 241.414 1078.65 241.014 1079.56 240.742C1080.48 240.454 1081.44 240.31 1082.47 240.31ZM1081.94 251.518C1082.82 251.518 1083.58 251.326 1084.22 250.942C1084.86 250.542 1085.32 249.982 1085.61 249.262V247.486H1082.06C1080.11 247.486 1079.13 248.142 1079.13 249.454C1079.13 250.094 1079.38 250.598 1079.88 250.966C1080.37 251.334 1081.06 251.518 1081.94 251.518ZM1104.25 235.342V253.15H1102.04V251.134C1101.53 251.838 1100.88 252.374 1100.1 252.742C1099.31 253.11 1098.45 253.294 1097.51 253.294C1096.27 253.294 1095.17 253.022 1094.19 252.478C1093.22 251.934 1092.45 251.174 1091.89 250.198C1091.35 249.206 1091.07 248.07 1091.07 246.79C1091.07 245.51 1091.35 244.382 1091.89 243.406C1092.45 242.43 1093.22 241.67 1094.19 241.126C1095.17 240.582 1096.27 240.31 1097.51 240.31C1098.42 240.31 1099.26 240.486 1100.03 240.838C1100.79 241.174 1101.43 241.678 1101.95 242.35V235.342H1104.25ZM1097.7 251.278C1098.5 251.278 1099.23 251.094 1099.88 250.726C1100.54 250.342 1101.05 249.814 1101.42 249.142C1101.79 248.454 1101.97 247.67 1101.97 246.79C1101.97 245.91 1101.79 245.134 1101.42 244.462C1101.05 243.774 1100.54 243.246 1099.88 242.878C1099.23 242.51 1098.5 242.326 1097.7 242.326C1096.88 242.326 1096.15 242.51 1095.49 242.878C1094.85 243.246 1094.34 243.774 1093.95 244.462C1093.59 245.134 1093.4 245.91 1093.4 246.79C1093.4 247.67 1093.59 248.454 1093.95 249.142C1094.34 249.814 1094.85 250.342 1095.49 250.726C1096.15 251.094 1096.88 251.278 1097.7 251.278ZM1108.61 240.43H1110.91V253.15H1108.61V240.43ZM1109.76 237.982C1109.31 237.982 1108.94 237.838 1108.63 237.55C1108.35 237.262 1108.2 236.91 1108.2 236.494C1108.2 236.078 1108.35 235.726 1108.63 235.438C1108.94 235.134 1109.31 234.982 1109.76 234.982C1110.21 234.982 1110.58 235.126 1110.87 235.414C1111.17 235.686 1111.32 236.03 1111.32 236.446C1111.32 236.878 1111.17 237.246 1110.87 237.55C1110.58 237.838 1110.21 237.982 1109.76 237.982ZM1122.1 240.31C1123.72 240.31 1125 240.782 1125.94 241.726C1126.9 242.654 1127.38 244.022 1127.38 245.83V253.15H1125.08V246.094C1125.08 244.862 1124.78 243.934 1124.19 243.31C1123.6 242.686 1122.75 242.374 1121.65 242.374C1120.4 242.374 1119.42 242.742 1118.7 243.478C1117.98 244.198 1117.62 245.238 1117.62 246.598V253.15H1115.31V240.43H1117.52V242.35C1117.98 241.694 1118.61 241.19 1119.39 240.838C1120.19 240.486 1121.1 240.31 1122.1 240.31ZM1143.89 240.43V251.422C1143.89 253.646 1143.34 255.286 1142.23 256.342C1141.13 257.414 1139.48 257.95 1137.29 257.95C1136.09 257.95 1134.94 257.782 1133.86 257.446C1132.77 257.126 1131.89 256.662 1131.22 256.054L1132.32 254.278C1132.91 254.79 1133.64 255.19 1134.5 255.478C1135.38 255.782 1136.29 255.934 1137.22 255.934C1138.7 255.934 1139.8 255.582 1140.5 254.878C1141.22 254.174 1141.58 253.102 1141.58 251.662V250.654C1141.04 251.31 1140.37 251.806 1139.57 252.142C1138.78 252.462 1137.93 252.622 1137 252.622C1135.78 252.622 1134.68 252.366 1133.69 251.854C1132.71 251.326 1131.94 250.598 1131.38 249.67C1130.82 248.726 1130.54 247.654 1130.54 246.454C1130.54 245.254 1130.82 244.19 1131.38 243.262C1131.94 242.318 1132.71 241.59 1133.69 241.078C1134.68 240.566 1135.78 240.31 1137 240.31C1137.96 240.31 1138.85 240.486 1139.66 240.838C1140.5 241.19 1141.18 241.71 1141.7 242.398V240.43H1143.89ZM1137.26 250.606C1138.1 250.606 1138.84 250.43 1139.5 250.078C1140.17 249.726 1140.69 249.238 1141.06 248.614C1141.44 247.974 1141.63 247.254 1141.63 246.454C1141.63 245.222 1141.22 244.23 1140.41 243.478C1139.59 242.71 1138.54 242.326 1137.26 242.326C1135.97 242.326 1134.91 242.71 1134.1 243.478C1133.28 244.23 1132.87 245.222 1132.87 246.454C1132.87 247.254 1133.06 247.974 1133.42 248.614C1133.81 249.238 1134.33 249.726 1134.98 250.078C1135.66 250.43 1136.42 250.606 1137.26 250.606ZM994.7 266.35H997.1V283.15H994.7V266.35ZM1017.71 270.31C1019.31 270.31 1020.57 270.774 1021.5 271.702C1022.44 272.63 1022.91 274.006 1022.91 275.83V283.15H1020.61V276.094C1020.61 274.862 1020.32 273.934 1019.75 273.31C1019.19 272.686 1018.38 272.374 1017.32 272.374C1016.15 272.374 1015.23 272.742 1014.54 273.478C1013.85 274.198 1013.51 275.238 1013.51 276.598V283.15H1011.2V276.094C1011.2 274.862 1010.91 273.934 1010.34 273.31C1009.78 272.686 1008.97 272.374 1007.91 272.374C1006.75 272.374 1005.82 272.742 1005.13 273.478C1004.44 274.198 1004.1 275.238 1004.1 276.598V283.15H1001.79V270.43H1004V272.326C1004.47 271.67 1005.07 271.174 1005.83 270.838C1006.58 270.486 1007.43 270.31 1008.39 270.31C1009.39 270.31 1010.27 270.51 1011.03 270.91C1011.8 271.31 1012.39 271.894 1012.81 272.662C1013.29 271.926 1013.95 271.35 1014.8 270.934C1015.67 270.518 1016.63 270.31 1017.71 270.31ZM1043.06 270.31C1044.66 270.31 1045.93 270.774 1046.86 271.702C1047.8 272.63 1048.27 274.006 1048.27 275.83V283.15H1045.97V276.094C1045.97 274.862 1045.68 273.934 1045.1 273.31C1044.54 272.686 1043.74 272.374 1042.68 272.374C1041.51 272.374 1040.58 272.742 1039.9 273.478C1039.21 274.198 1038.86 275.238 1038.86 276.598V283.15H1036.56V276.094C1036.56 274.862 1036.27 273.934 1035.7 273.31C1035.14 272.686 1034.33 272.374 1033.27 272.374C1032.1 272.374 1031.18 272.742 1030.49 273.478C1029.8 274.198 1029.46 275.238 1029.46 276.598V283.15H1027.15V270.43H1029.36V272.326C1029.82 271.67 1030.43 271.174 1031.18 270.838C1031.94 270.486 1032.79 270.31 1033.75 270.31C1034.74 270.31 1035.62 270.51 1036.39 270.91C1037.16 271.31 1037.75 271.894 1038.17 272.662C1038.65 271.926 1039.31 271.35 1040.16 270.934C1041.02 270.518 1041.99 270.31 1043.06 270.31ZM1064.08 276.862C1064.08 277.038 1064.06 277.27 1064.03 277.558H1053.71C1053.85 278.678 1054.34 279.582 1055.17 280.27C1056.02 280.942 1057.07 281.278 1058.32 281.278C1059.84 281.278 1061.06 280.766 1061.99 279.742L1063.26 281.23C1062.69 281.902 1061.97 282.414 1061.1 282.766C1060.25 283.118 1059.3 283.294 1058.25 283.294C1056.9 283.294 1055.71 283.022 1054.67 282.478C1053.63 281.918 1052.82 281.142 1052.25 280.15C1051.69 279.158 1051.41 278.038 1051.41 276.79C1051.41 275.558 1051.68 274.446 1052.22 273.454C1052.78 272.462 1053.54 271.694 1054.5 271.15C1055.48 270.59 1056.57 270.31 1057.79 270.31C1059.01 270.31 1060.09 270.59 1061.03 271.15C1061.99 271.694 1062.73 272.462 1063.26 273.454C1063.81 274.446 1064.08 275.582 1064.08 276.862ZM1057.79 272.254C1056.69 272.254 1055.76 272.59 1055.01 273.262C1054.27 273.934 1053.84 274.814 1053.71 275.902H1061.87C1061.74 274.83 1061.3 273.958 1060.55 273.286C1059.81 272.598 1058.89 272.254 1057.79 272.254ZM1079.28 265.342V283.15H1077.07V281.134C1076.56 281.838 1075.91 282.374 1075.13 282.742C1074.34 283.11 1073.48 283.294 1072.53 283.294C1071.3 283.294 1070.2 283.022 1069.22 282.478C1068.25 281.934 1067.48 281.174 1066.92 280.198C1066.37 279.206 1066.1 278.07 1066.1 276.79C1066.1 275.51 1066.37 274.382 1066.92 273.406C1067.48 272.43 1068.25 271.67 1069.22 271.126C1070.2 270.582 1071.3 270.31 1072.53 270.31C1073.45 270.31 1074.29 270.486 1075.05 270.838C1075.82 271.174 1076.46 271.678 1076.97 272.35V265.342H1079.28ZM1072.73 281.278C1073.53 281.278 1074.25 281.094 1074.91 280.726C1075.57 280.342 1076.08 279.814 1076.45 279.142C1076.81 278.454 1077 277.67 1077 276.79C1077 275.91 1076.81 275.134 1076.45 274.462C1076.08 273.774 1075.57 273.246 1074.91 272.878C1074.25 272.51 1073.53 272.326 1072.73 272.326C1071.91 272.326 1071.17 272.51 1070.52 272.878C1069.88 273.246 1069.37 273.774 1068.98 274.462C1068.61 275.134 1068.43 275.91 1068.43 276.79C1068.43 277.67 1068.61 278.454 1068.98 279.142C1069.37 279.814 1069.88 280.342 1070.52 280.726C1071.17 281.094 1071.91 281.278 1072.73 281.278ZM1083.64 270.43H1085.94V283.15H1083.64V270.43ZM1084.79 267.982C1084.34 267.982 1083.97 267.838 1083.66 267.55C1083.37 267.262 1083.23 266.91 1083.23 266.494C1083.23 266.078 1083.37 265.726 1083.66 265.438C1083.97 265.134 1084.34 264.982 1084.79 264.982C1085.24 264.982 1085.61 265.126 1085.89 265.414C1086.2 265.686 1086.35 266.03 1086.35 266.446C1086.35 266.878 1086.2 267.246 1085.89 267.55C1085.61 267.838 1085.24 267.982 1084.79 267.982ZM1094.97 270.31C1096.73 270.31 1098.08 270.742 1099 271.606C1099.95 272.47 1100.42 273.758 1100.42 275.47V283.15H1098.24V281.47C1097.85 282.062 1097.3 282.518 1096.58 282.838C1095.88 283.142 1095.04 283.294 1094.06 283.294C1092.64 283.294 1091.49 282.95 1090.63 282.262C1089.78 281.574 1089.36 280.67 1089.36 279.55C1089.36 278.43 1089.76 277.534 1090.58 276.862C1091.4 276.174 1092.69 275.83 1094.47 275.83H1098.12V275.374C1098.12 274.382 1097.83 273.622 1097.25 273.094C1096.68 272.566 1095.83 272.302 1094.71 272.302C1093.96 272.302 1093.22 272.43 1092.5 272.686C1091.78 272.926 1091.17 273.254 1090.68 273.67L1089.72 271.942C1090.37 271.414 1091.16 271.014 1092.07 270.742C1092.98 270.454 1093.95 270.31 1094.97 270.31ZM1094.44 281.518C1095.32 281.518 1096.08 281.326 1096.72 280.942C1097.36 280.542 1097.83 279.982 1098.12 279.262V277.486H1094.56C1092.61 277.486 1091.64 278.142 1091.64 279.454C1091.64 280.094 1091.88 280.598 1092.38 280.966C1092.88 281.334 1093.56 281.518 1094.44 281.518ZM1111.84 282.406C1111.5 282.694 1111.08 282.918 1110.59 283.078C1110.09 283.222 1109.58 283.294 1109.05 283.294C1107.77 283.294 1106.78 282.95 1106.08 282.262C1105.37 281.574 1105.02 280.59 1105.02 279.31V272.326H1102.86V270.43H1105.02V267.646H1107.32V270.43H1110.97V272.326H1107.32V279.214C1107.32 279.902 1107.49 280.43 1107.83 280.798C1108.18 281.166 1108.68 281.35 1109.32 281.35C1110.02 281.35 1110.62 281.15 1111.12 280.75L1111.84 282.406ZM1125.7 276.862C1125.7 277.038 1125.68 277.27 1125.65 277.558H1115.33C1115.47 278.678 1115.96 279.582 1116.79 280.27C1117.64 280.942 1118.69 281.278 1119.94 281.278C1121.46 281.278 1122.68 280.766 1123.61 279.742L1124.88 281.23C1124.3 281.902 1123.58 282.414 1122.72 282.766C1121.87 283.118 1120.92 283.294 1119.86 283.294C1118.52 283.294 1117.33 283.022 1116.29 282.478C1115.25 281.918 1114.44 281.142 1113.86 280.15C1113.3 279.158 1113.02 278.038 1113.02 276.79C1113.02 275.558 1113.3 274.446 1113.84 273.454C1114.4 272.462 1115.16 271.694 1116.12 271.15C1117.1 270.59 1118.19 270.31 1119.41 270.31C1120.62 270.31 1121.7 270.59 1122.65 271.15C1123.61 271.694 1124.35 272.462 1124.88 273.454C1125.42 274.446 1125.7 275.582 1125.7 276.862ZM1119.41 272.254C1118.3 272.254 1117.38 272.59 1116.62 273.262C1115.89 273.934 1115.46 274.814 1115.33 275.902H1123.49C1123.36 274.83 1122.92 273.958 1122.17 273.286C1121.43 272.598 1120.51 272.254 1119.41 272.254ZM1128.89 265.342H1131.2V283.15H1128.89V265.342ZM1146.85 270.43L1140.69 284.422C1140.14 285.718 1139.5 286.63 1138.77 287.158C1138.05 287.686 1137.17 287.95 1136.15 287.95C1135.53 287.95 1134.92 287.846 1134.33 287.638C1133.75 287.446 1133.27 287.158 1132.89 286.774L1133.87 285.046C1134.53 285.67 1135.29 285.982 1136.15 285.982C1136.71 285.982 1137.17 285.83 1137.54 285.526C1137.93 285.238 1138.27 284.734 1138.57 284.014L1138.98 283.126L1133.37 270.43H1135.77L1140.21 280.606L1144.6 270.43H1146.85Z" fill="#403F3F"/>
<defs>
<linearGradient id="paint0_linear_66_642" x1="99.6043" y1="102.412" x2="99.6043" y2="132.256" gradientUnits="userSpaceOnUse">
<stop stop-color="#A0F3D4"/>
<stop offset="1" stop-color="#3DC290" stop-opacity="0.6"/>
</linearGradient>
<linearGradient id="paint1_linear_66_642" x1="127.107" y1="115.399" x2="127.107" y2="137.887" gradientUnits="userSpaceOnUse">
<stop stop-color="#FFD3D3"/>
<stop offset="1" stop-color="#FF4949" stop-opacity="0.2"/>
</linearGradient>
<linearGradient id="paint2_linear_66_642" x1="625.184" y1="49.7758" x2="625.184" y2="84.5428" gradientUnits="userSpaceOnUse">
<stop stop-color="#A0F3D4"/>
<stop offset="1" stop-color="#3DC290" stop-opacity="0.6"/>
</linearGradient>
<linearGradient id="paint3_linear_66_642" x1="618.301" y1="69.9439" x2="618.301" y2="82.0386" gradientUnits="userSpaceOnUse">
<stop stop-color="#FFD3D3"/>
<stop offset="1" stop-color="#FF4949" stop-opacity="0.2"/>
</linearGradient>
<linearGradient id="paint4_linear_66_642" x1="606.628" y1="75.2615" x2="606.628" y2="84.2653" gradientUnits="userSpaceOnUse">
<stop stop-color="#FFD3D3"/>
<stop offset="1" stop-color="#FF4949" stop-opacity="0.2"/>
</linearGradient>
<linearGradient id="paint5_linear_66_642" x1="1082.83" y1="91.62" x2="1082.83" y2="139.085" gradientUnits="userSpaceOnUse">
<stop stop-color="#FFD3D3"/>
<stop offset="1" stop-color="#FF4949" stop-opacity="0.2"/>
</linearGradient>
<linearGradient id="paint6_linear_66_642" x1="1091.99" y1="86.0333" x2="1091.99" y2="122.548" gradientUnits="userSpaceOnUse">
<stop stop-color="#FFD3D3"/>
<stop offset="1" stop-color="#FF4949" stop-opacity="0.2"/>
</linearGradient>
<linearGradient id="paint7_linear_66_642" x1="1067.33" y1="52.8999" x2="1067.33" y2="71.8233" gradientUnits="userSpaceOnUse">
<stop stop-color="#A0F3D4"/>
<stop offset="1" stop-color="#3DC290" stop-opacity="0.6"/>
</linearGradient>
<linearGradient id="paint8_linear_66_642" x1="1064.33" y1="65.9649" x2="1064.33" y2="81.9216" gradientUnits="userSpaceOnUse">
<stop stop-color="#A0F3D4"/>
<stop offset="1" stop-color="#3DC290" stop-opacity="0.6"/>
</linearGradient>
</defs>
</svg>
