<svg width="264" height="34" viewBox="0 0 264 34" fill="none" xmlns="http://www.w3.org/2000/svg">
<circle cx="17" cy="17" r="17" fill="#EE7F49"/>
<path d="M18.5693 24.6502V18.0696H20.835L21.1718 15.4931H18.5693V13.8519C18.5693 13.1084 18.7807 12.5994 19.8697 12.5994H21.2496V10.3023C20.5782 10.2318 19.9034 10.1978 19.2281 10.2003C17.2255 10.2003 15.8505 11.3983 15.8505 13.5974V15.4883H13.5996V18.0648H15.8554V24.6502H18.5693Z" fill="#FDFBF6"/>
<circle cx="109" cy="17" r="16.5" stroke="#EE7F49"/>
<g clip-path="url(#clip0_66_846)">
<path d="M116.01 10.6374C115.932 10.9925 115.85 11.3469 115.777 11.703C115.185 14.5571 114.595 17.4115 114.005 20.2658C113.864 20.9473 113.722 21.6285 113.583 22.3104C113.477 22.8347 113.234 22.9357 112.797 22.6348C110.908 21.334 109.018 20.0334 107.129 18.7326C107.086 18.7026 107.043 18.6714 106.989 18.6329C107.349 18.3023 107.699 17.9793 108.051 17.657C109.523 16.3065 110.997 14.9576 112.465 13.6029C112.557 13.5186 112.636 13.3978 112.669 13.2795C112.719 13.1018 112.641 12.9425 112.487 12.8356C112.328 12.7252 112.16 12.7284 111.991 12.8193C111.536 13.0634 111.081 13.3068 110.627 13.5506C108.435 14.726 106.243 15.901 104.052 17.0788C103.963 17.1271 103.888 17.1331 103.793 17.0978C102.99 16.8004 102.185 16.5089 101.382 16.2123C101.292 16.179 101.201 16.1351 101.125 16.0778C101.008 15.9904 101.007 15.8723 101.125 15.7852C101.209 15.7227 101.309 15.6766 101.408 15.639C105.005 14.2731 108.602 12.9091 112.2 11.5447C113.291 11.1307 114.382 10.7159 115.474 10.3033C115.56 10.2709 115.651 10.2473 115.741 10.2291C115.854 10.2061 115.951 10.2345 116.01 10.345C116.01 10.4424 116.01 10.5399 116.01 10.6374Z" fill="#EE7F49"/>
<path d="M104.545 17.8439C106.079 17.0215 107.596 16.208 109.113 15.3945C109.12 15.4021 109.126 15.4098 109.133 15.4174C109.104 15.4479 109.077 15.4801 109.046 15.5086C108.041 16.431 107.037 17.355 106.028 18.2732C105.872 18.4152 105.797 18.5707 105.799 18.7833C105.805 19.3387 105.795 19.8943 105.791 20.4498C105.79 20.5021 105.786 20.5544 105.755 20.6132C105.353 19.6938 104.952 18.7743 104.545 17.8439Z" fill="#EE7F49"/>
<path d="M106.705 19.5459C107.2 19.8862 107.663 20.2047 108.143 20.5355C107.669 20.9799 107.204 21.4156 106.739 21.8513C106.727 21.8441 106.716 21.8369 106.705 21.8297C106.705 21.0806 106.705 20.3316 106.705 19.5459Z" fill="#EE7F49"/>
</g>
<circle cx="201" cy="17" r="16.5" stroke="#EE7F49"/>
<path d="M195.209 13.0692C196.237 13.0692 197.069 12.2365 197.069 11.2094C197.069 10.1823 196.237 9.34961 195.209 9.34961C194.182 9.34961 193.35 10.1823 193.35 11.2094C193.35 12.2365 194.182 13.0692 195.209 13.0692Z" fill="#EE7F49"/>
<path d="M198.826 14.4777V24.7958H202.03V19.6933C202.03 18.3469 202.283 17.043 203.953 17.043C205.599 17.043 205.619 18.5823 205.619 19.7783V24.7967H208.825V19.1382C208.825 16.3587 208.226 14.2227 204.978 14.2227C203.418 14.2227 202.372 15.0786 201.945 15.8887H201.901V14.4777H198.826ZM193.605 14.4777H196.814V24.7958H193.605V14.4777Z" fill="#EE7F49"/>
<circle cx="247" cy="17" r="16.5" stroke="#EE7F49"/>
<path d="M247.174 9.50384C249.152 9.50384 251.13 9.52018 253.107 9.49927C255.062 9.47861 256.385 10.7803 256.761 12.1171C256.863 12.4795 256.925 12.8655 256.927 13.2413C256.943 15.3935 256.94 17.546 256.934 19.6983C256.928 21.823 255.314 23.438 253.189 23.4407C249.178 23.4461 245.167 23.4458 241.156 23.4409C239.018 23.4383 237.407 21.8204 237.403 19.6819C237.4 17.5374 237.399 15.393 237.403 13.2486C237.407 11.3703 238.658 9.88005 240.506 9.55571C240.77 9.50944 241.044 9.50638 241.313 9.50588C243.267 9.502 245.22 9.50384 247.174 9.50384ZM244.614 19.4828C246.329 18.478 248.015 17.4903 249.733 16.4836C248.001 15.47 246.319 14.4853 244.614 13.4872C244.614 15.5076 244.614 17.4721 244.614 19.4828Z" fill="#EE7F49"/>
<circle cx="155" cy="17" r="16.5" stroke="#EE7F49"/>
<path d="M148.815 12.4126C148.813 11.8473 148.95 11.2919 149.211 10.8032C150.669 12.7514 152.86 14.0237 155.315 14.1631L155.316 14.1553L155.316 14.1475L155.318 14.1229L155.323 14.1538C155.278 13.9147 155.251 13.6662 155.251 13.4179C155.251 11.6486 156.567 10.208 158.204 10.208L158.204 10.208C158.608 10.207 159.008 10.2965 159.38 10.471C159.751 10.6454 160.085 10.901 160.361 11.2219L160.355 11.2274L160.369 11.2245C161.026 11.0865 161.656 10.8271 162.233 10.4578C162.01 11.1908 161.551 11.8118 160.94 12.2061L160.945 12.2204C161.532 12.1516 162.103 11.9765 162.628 11.7331C162.228 12.3607 161.729 12.9198 161.16 13.3722L161.156 13.3676L161.157 13.3788C161.165 13.518 161.165 13.6574 161.165 13.797C161.165 18.0474 158.187 22.9424 152.747 22.9424C151.083 22.9424 149.536 22.4218 148.23 21.519C148.457 21.5461 148.677 21.5548 148.915 21.5548C150.301 21.5548 151.577 21.0448 152.596 20.1779L152.612 20.1646L152.591 20.1642C151.298 20.1342 150.211 19.2164 149.834 17.9503C150.014 17.9777 150.193 17.9976 150.382 17.9976H150.382C150.646 17.9968 150.909 17.9599 151.164 17.8879L151.163 17.8727C149.811 17.5756 148.796 16.2833 148.796 14.7231V14.6973C149.204 14.9424 149.66 15.0806 150.126 15.1005L150.152 15.1016L150.131 15.0864C149.336 14.5089 148.815 13.5267 148.815 12.4126L148.815 12.4126Z" fill="#EE7F49" stroke="#A6C7C9" stroke-width="0.015625"/>
<circle cx="63" cy="17" r="16.5" stroke="#EE7F49"/>
<path d="M63.4241 14.1538C61.614 14.1538 60.1531 15.6147 60.1531 17.4248C60.1531 19.2349 61.614 20.6958 63.4241 20.6958C65.2342 20.6958 66.695 19.2349 66.695 17.4248C66.695 15.6147 65.2342 14.1538 63.4241 14.1538ZM63.4241 19.5507C62.2535 19.5507 61.2982 18.5954 61.2982 17.4248C61.2982 16.2542 62.2535 15.2989 63.4241 15.2989C64.5946 15.2989 65.5499 16.2542 65.5499 17.4248C65.5499 18.5954 64.5946 19.5507 63.4241 19.5507ZM66.829 13.2575C66.4063 13.2575 66.0651 13.5988 66.0651 14.0214C66.0651 14.4441 66.4063 14.7854 66.829 14.7854C67.2516 14.7854 67.5929 14.4457 67.5929 14.0214C67.593 13.9211 67.5733 13.8217 67.535 13.729C67.4966 13.6362 67.4404 13.5519 67.3694 13.481C67.2984 13.41 67.2142 13.3538 67.1214 13.3154C67.0287 13.2771 66.9293 13.2574 66.829 13.2575ZM69.8001 17.4248C69.8001 16.5445 69.808 15.6721 69.7586 14.7933C69.7092 13.7726 69.4763 12.8668 68.73 12.1204C67.982 11.3724 67.0778 11.1412 66.0571 11.0917C65.1768 11.0423 64.3044 11.0503 63.4257 11.0503C62.5453 11.0503 61.673 11.0423 60.7942 11.0917C59.7736 11.1412 58.8677 11.374 58.1214 12.1204C57.3734 12.8684 57.1422 13.7726 57.0927 14.7933C57.0433 15.6737 57.0513 16.5461 57.0513 17.4248C57.0513 18.3036 57.0433 19.1775 57.0927 20.0563C57.1422 21.077 57.375 21.9828 58.1214 22.7292C58.8693 23.4772 59.7736 23.7084 60.7942 23.7579C61.6746 23.8073 62.5469 23.7993 63.4257 23.7993C64.306 23.7993 65.1783 23.8073 66.0571 23.7579C67.0778 23.7084 67.9836 23.4756 68.73 22.7292C69.4779 21.9812 69.7092 21.077 69.7586 20.0563C69.8096 19.1775 69.8001 18.3051 69.8001 17.4248ZM68.3966 21.1854C68.2802 21.4757 68.1399 21.6926 67.915 21.9158C67.6902 22.1407 67.4749 22.2811 67.1846 22.3975C66.3457 22.7308 64.3538 22.6558 63.4241 22.6558C62.4943 22.6558 60.5008 22.7308 59.6619 22.3991C59.3717 22.2826 59.1548 22.1423 58.9315 21.9174C58.7067 21.6926 58.5663 21.4773 58.4499 21.187C58.1182 20.3465 58.1931 18.3546 58.1931 17.4248C58.1931 16.495 58.1182 14.5015 58.4499 13.6626C58.5663 13.3723 58.7067 13.1555 58.9315 12.9322C59.1564 12.7089 59.3717 12.567 59.6619 12.4505C60.5008 12.1188 62.4943 12.1938 63.4241 12.1938C64.3538 12.1938 66.3473 12.1188 67.1862 12.4505C67.4764 12.567 67.6933 12.7073 67.9166 12.9322C68.1415 13.157 68.2818 13.3723 68.3982 13.6626C68.73 14.5015 68.655 16.495 68.655 17.4248C68.655 18.3546 68.73 20.3465 68.3966 21.1854Z" fill="#EE7F49"/>
<circle cx="63.5" cy="17.5" r="2.5" fill="#EE7F49"/>
<defs>
<clipPath id="clip0_66_846">
<rect width="15.0097" height="15" fill="white" transform="translate(101 9)"/>
</clipPath>
</defs>
</svg>
